<?xml version="1.0" encoding="UTF-8"?>
<!DOCTYPE svg PUBLIC "-//W3C//DTD SVG 1.1//EN" "http://www.w3.org/Graphics/SVG/1.1/DTD/svg11.dtd">
<!-- Creator: CorelDRAW X7 -->
<svg xmlns="http://www.w3.org/2000/svg" xml:space="preserve" width="48.2638mm" height="83.7853mm" version="1.1" style="shape-rendering:geometricPrecision; text-rendering:geometricPrecision; image-rendering:optimizeQuality; fill-rule:evenodd; clip-rule:evenodd"
viewBox="0 0 3359 5831"
 xmlns:xlink="http://www.w3.org/1999/xlink">
 <defs>
  <style type="text/css">
   <![CDATA[
    .str0 {stroke:white;stroke-width:347.951}
    .fil2 {fill:none}
    .fil0 {fill:#BFEAF5}
    .fil1 {fill:#BFEAF5;fill-rule:nonzero}
   ]]>
  </style>
 </defs>
 <g id="Capa_x0020_1">
  <metadata id="CorelCorpID_0Corel-Layer"/>
  <g id="_2478673482176">
   <polygon class="fil0" points="1334,789 389,789 485,184 1428,247 "/>
   <polygon class="fil0" points="1132,1408 1167,1415 1246,927 364,950 224,1838 208,1871 332,2002 402,1472 427,1476 364,1983 365,2025 692,2218 722,2248 1032,2277 1080,1947 1161,1448 1126,1439 "/>
   <polygon class="fil0" points="1288,875 1231,555 1375,551 1253,1258 1787,1340 1795,1597 1204,1427 "/>
   <polygon class="fil0" points="344,1077 628,1103 1245,934 1298,929 1289,550 423,574 "/>
   <polygon class="fil0" points="286,5532 368,5530 364,5364 281,5366 "/>
   <polygon class="fil0" points="857,5483 424,5495 420,5362 854,5351 "/>
   <polygon class="fil0" points="879,5350 1071,5345 1075,5478 883,5483 "/>
   <polygon class="fil0" points="1097,5345 1205,5342 1209,5474 1100,5477 "/>
   <polygon class="fil0" points="1289,5498 1415,5494 1418,5611 1293,5615 "/>
   <polygon class="fil0" points="1444,5494 1569,5490 1572,5606 1447,5610 "/>
   <path class="fil0" d="M1230 5335l147 -4c1,43 2,76 3,120l-146 4 -4 -120z"/>
   <path class="fil0" d="M1402 5330l147 -4c1,44 2,76 3,120l-147 4c-1,-44 -2,-76 -3,-120z"/>
   <polygon class="fil0" points="3129,1808 3080,1809 3073,1539 3126,1547 "/>
   <polygon class="fil0" points="317,3563 226,3565 231,3737 321,3734 "/>
   <polygon class="fil0" points="326,3937 237,3940 253,4449 340,4446 "/>
   <polygon class="fil0" points="322,3762 232,3765 236,3912 326,3909 "/>
   <polygon class="fil0" points="348,4743 262,4746 264,4822 350,4820 "/>
   <polygon class="fil0" points="341,4474 254,4476 261,4718 347,4715 "/>
   <polygon class="fil0" points="363,5336 355,5036 271,5038 280,5338 "/>
   <polygon class="fil0" points="353,4939 268,4942 270,5010 355,5008 "/>
   <polygon class="fil0" points="350,4847 265,4850 267,4914 352,4911 "/>
   <polygon class="fil0" points="1599,5490 1724,5486 1727,5600 1602,5605 "/>
   <polygon class="fil0" points="1754,5485 1879,5482 1882,5595 1757,5599 "/>
   <polygon class="fil0" points="3142,4297 3165,4297 3166,4428 3146,4428 "/>
   <polygon class="fil0" points="3138,4133 3162,4132 3164,4263 3141,4264 "/>
   <polygon class="fil0" points="3134,3968 3160,3968 3162,4099 3137,4099 "/>
   <polygon class="fil0" points="3129,3804 3158,3803 3159,3934 3133,3935 "/>
   <polygon class="fil0" points="3125,3639 3155,3639 3157,3770 3128,3770 "/>
   <polygon class="fil0" points="3121,3475 3153,3474 3155,3605 3124,3606 "/>
   <polygon class="fil0" points="3116,3310 3151,3310 3152,3441 3120,3441 "/>
   <path class="fil0" d="M2439 3345l170 -17 7 260 0 3 -150 4 0 -3 0 -1c-16,0 -32,-4 -47,-8l20 -238z"/>
   <path class="fil0" d="M2144 3552l10 -332 262 40 2 67 -149 4 1 34 140 -4 -18 214c-14,-4 -28,-6 -42,-6l-174 5 -32 -22z"/>
   <polygon class="fil0" points="2174,3611 2181,3765 2111,3767 2111,3767 2089,3768 2140,3597 "/>
   <polygon class="fil0" points="2090,3666 2060,3769 1915,3772 1912,3671 "/>
   <polygon class="fil0" points="3063,3855 3065,3937 2653,3947 2651,3865 "/>
   <polygon class="fil0" points="3062,3830 2650,3841 2648,3758 3060,3747 "/>
   <polygon class="fil0" points="3059,3714 2647,3725 2644,3623 3057,3613 "/>
   <polygon class="fil0" points="3053,3477 3056,3579 2643,3590 2641,3487 2702,3486 2702,3503 2816,3500 2815,3483 "/>
   <polygon class="fil0" points="2075,3208 2126,3215 2123,3335 1904,3341 1900,3212 "/>
   <polygon class="fil0" points="1904,3372 2024,3369 2027,3477 1907,3481 "/>
   <polygon class="fil0" points="2122,3369 2119,3476 2054,3477 2051,3371 "/>
   <polygon class="fil0" points="2031,3635 1911,3638 1908,3515 2028,3512 "/>
   <path class="fil0" d="M2118 3509l-2 69 -16 55c-14,0 -28,0 -42,1l-3 -123 63 -2z"/>
   <path class="fil0" d="M1916 3806c40,-1 79,-2 119,-3l4 160 -119 4 -4 -161z"/>
   <polygon class="fil0" points="2062,3802 2182,3799 2186,3960 2067,3963 "/>
   <path class="fil0" d="M2204 3606l119 -3 4 159c-39,1 -79,2 -119,3l-4 -159z"/>
   <polygon class="fil0" points="2209,3798 2328,3795 2332,3956 2213,3959 "/>
   <path class="fil0" d="M2350 3603c40,-2 81,23 120,21l4 134c-40,1 -80,2 -119,3l-5 -158z"/>
   <polygon class="fil0" points="2355,3794 2475,3791 2479,3952 2360,3955 "/>
   <path class="fil0" d="M2617 3624l3 103c-40,1 -80,2 -120,3l-2 -103 119 -3z"/>
   <path class="fil0" d="M2501 3763c40,-1 80,-2 120,-3l5 188 -120 3 -5 -188z"/>
   <polygon class="fil0" points="2447,3321 2497,3319 2496,3308 2455,3262 2445,3262 "/>
   <path class="fil0" d="M2636 3323l103 -3 0 0c123,-3 32,-1 155,-4l0 0 30 -1 0 0 125 -3 3 131 -102 3 -152 4 1 28 -81 2 -1 -28 -77 2 -4 -131z"/>
   <polygon class="fil0" points="1921,4000 2040,3997 2044,4128 1924,4131 "/>
   <polygon class="fil0" points="2067,3996 2187,3993 2190,4124 2071,4127 "/>
   <polygon class="fil0" points="2214,3992 2333,3989 2337,4120 2217,4123 "/>
   <polygon class="fil0" points="2361,3988 2480,3985 2483,4116 2364,4119 "/>
   <polygon class="fil0" points="2507,3985 2626,3982 2630,4113 2510,4116 "/>
   <polygon class="fil0" points="2654,3981 2773,3978 2776,4109 2657,4112 "/>
   <polygon class="fil0" points="2800,3977 2919,3974 2923,4105 2804,4108 "/>
   <polygon class="fil0" points="2947,3973 3066,3970 3069,4101 2950,4104 "/>
   <path class="fil0" d="M1925 4164c40,-1 80,-2 120,-3l3 131 -119 3 -4 -131z"/>
   <polygon class="fil0" points="2072,4161 2191,4157 2195,4289 2075,4292 "/>
   <polygon class="fil0" points="2218,4157 2338,4154 2341,4285 2222,4288 "/>
   <polygon class="fil0" points="2365,4153 2484,4150 2488,4281 2368,4284 "/>
   <polygon class="fil0" points="2511,4149 2631,4146 2634,4277 2515,4280 "/>
   <polygon class="fil0" points="2658,4145 2777,4142 2781,4273 2661,4276 "/>
   <polygon class="fil0" points="2804,4141 2924,4138 2927,4269 2808,4272 "/>
   <path class="fil0" d="M2951 4138c40,-1 80,-3 119,-4l4 131 -120 4 -3 -131z"/>
   <path class="fil0" d="M2955 4302c40,-1 80,-2 120,-3l3 131 -119 3 -4 -131z"/>
   <polygon class="fil0" points="2662,4310 2928,4303 2936,4598 2670,4605 "/>
   <polygon class="fil0" points="2516,4314 2635,4310 2638,4441 2519,4445 "/>
   <polygon class="fil0" points="2369,4317 2489,4314 2492,4445 2373,4448 "/>
   <polygon class="fil0" points="2223,4321 2342,4318 2345,4449 2226,4452 "/>
   <polygon class="fil0" points="2076,4325 2195,4322 2199,4453 2080,4456 "/>
   <path class="fil0" d="M1930 4329c39,-1 79,-2 119,-3l3 131 -119 3 -3 -131z"/>
   <polygon class="fil0" points="1947,4987 2027,4985 2213,4980 2220,5275 2074,5279 2074,5279 1955,5282 "/>
   <path class="fil0" d="M1574 5326l147 -4 3 120 -147 3c-1,-43 -2,-76 -3,-119z"/>
   <polygon class="fil0" points="1746,5321 1892,5317 1896,5437 1749,5441 "/>
   <path class="fil0" d="M1709 3881l1 36 146 21 -3 -143 -126 3c-6,28 -12,55 -18,83z"/>
   <path class="fil0" d="M1367 3868l13 -1 305 46c-1,-12 -1,-24 -1,-35l0 0c5,-27 11,-53 16,-79l-108 3 -228 -36 3 102z"/>
   <polygon class="fil0" points="1212,3872 1341,3868 1339,3762 1209,3741 "/>
   <polygon class="fil0" points="1183,3740 1079,3743 1082,3875 1187,3872 "/>
   <polygon class="fil0" points="861,4663 1053,4632 1056,4758 864,4763 "/>
   <path class="fil0" d="M1057 4786l3 141c-64,-4 -128,-9 -192,-13l-4 -123 193 -5z"/>
   <path class="fil0" d="M1061 4955l3 102c-65,-6 -129,-12 -193,-18l-3 -97c65,4 129,9 193,13z"/>
   <polygon class="fil0" points="411,5007 404,4738 836,4667 845,5008 641,5001 500,5004 495,4821 476,4822 481,5005 "/>
   <polygon class="fil0" points="415,5166 412,5035 641,5029 845,5035 849,5154 "/>
   <polygon class="fil0" points="416,5194 849,5182 853,5323 419,5334 "/>
   <path class="fil0" d="M1064 5085l7 232 -193 5 -6 -255c64,6 128,12 192,18z"/>
   <polygon class="fil0" points="1099,3714 1203,3711 1204,3712 1201,3574 1172,3569 1096,3571 "/>
   <path class="fil0" d="M1230 3716l108 17 -4 -136c-36,-6 -72,-13 -108,-19l4 138z"/>
   <path class="fil0" d="M1732 3770l120 -3 -3 -100 -87 3c-1,0 -1,1 -1,2 -3,0 -5,-1 -8,-1 -7,33 -14,66 -21,99z"/>
   <path class="fil0" d="M1363 3737l231 37 112 -3c7,-35 15,-70 22,-105 -123,-21 -245,-43 -368,-64 1,45 2,90 3,135z"/>
   <path class="fil0" d="M1750 3642l98 -3 -11 -425 -356 9 5 214c27,0 54,-1 80,-2l1 28c-27,1 -53,2 -80,2l3 131c87,15 173,31 260,46z"/>
   <polygon class="fil0" points="378,3761 538,3757 542,3904 382,3908 "/>
   <polygon class="fil0" points="563,3756 715,3752 719,3899 567,3903 "/>
   <polygon class="fil0" points="741,3752 892,3748 896,3880 744,3884 "/>
   <polygon class="fil0" points="918,3747 1053,3743 1057,3876 921,3879 "/>
   <polygon class="fil0" points="568,3931 845,3924 853,4208 575,4216 "/>
   <polygon class="fil0" points="383,3936 543,3932 550,4216 390,4220 "/>
   <path class="fil0" d="M870 3914l179 -4 7 293 -178 5c-2,-93 -5,-200 -8,-294z"/>
   <path class="fil0" d="M1074 3903l113 -3 5 158 -114 3c-1,-54 -3,-108 -4,-158z"/>
   <path class="fil0" d="M1192 4086l4 123 -45 -9 -69 2c-1,-36 -2,-74 -3,-113l113 -3z"/>
   <path class="fil0" d="M1274 4225l-53 -11 -3 -128 88 -3c-10,47 -21,95 -32,142z"/>
   <path class="fil0" d="M1368 3929l0 0 0 -31 489 74 8 295 -335 9 0 0 -231 -46c23,-100 46,-200 69,-301z"/>
   <path class="fil0" d="M1213 3900l129 -4 1 29c-10,43 -20,87 -30,130l-96 3 -4 -158z"/>
   <polygon class="fil0" points="391,4248 551,4244 562,4681 403,4710 "/>
   <polygon class="fil0" points="703,4513 699,4350 701,4350 856,4346 853,4236 576,4244 587,4677 842,4637 838,4509 "/>
   <polygon class="fil0" points="725,4377 728,4484 840,4481 858,4401 857,4374 "/>
   <path class="fil0" d="M1054 4375c-1,-48 -2,-96 -4,-144l-171 5 4 143c57,-1 114,-3 171,-4z"/>
   <path class="fil0" d="M863 4492l4 141 185 -29c-2,-67 -4,-134 -5,-201l-165 4 -19 85z"/>
   <path class="fil0" d="M1265 4252l-119 -23 -70 1 4 161 -8 1c1,69 3,138 5,208l84 -14 112 -2 -8 -332z"/>
   <polygon class="fil0" points="1510,4300 1290,4257 1299,4583 1404,4580 1400,4445 1400,4424 1419,4424 1513,4421 "/>
   <path class="fil0" d="M1419 4444c1,45 2,91 4,136l94 -2 -4 -136 -94 2z"/>
   <path class="fil0" d="M1866 4301l-331 8 3 117c77,8 154,16 232,24 33,-1 66,-2 100,-3l-4 -146z"/>
   <path class="fil0" d="M1539 4447l3 130 55 -1 94 25 183 -5 -4 -128 -100 3c0,0 0,0 0,0 -77,-8 -154,-16 -231,-24z"/>
   <path class="fil0" d="M1672 5098l43 -1 -4 -148 -147 4 4 139c48,2 86,4 104,6z"/>
   <path class="fil0" d="M1574 5304l146 -4 -4 -175 -38 1c1,33 2,67 3,101l-19 0c0,-34 -1,-68 -2,-102 -20,-1 -52,-3 -91,-5l5 184z"/>
   <path class="fil0" d="M1543 5091l-4 -138 -146 4c1,43 2,85 3,128 52,2 102,4 147,6z"/>
   <path class="fil0" d="M1402 5309l146 -4 -5 -186c-44,-2 -95,-4 -146,-6 1,65 3,130 5,196z"/>
   <path class="fil0" d="M1224 5105l6 208 146 -4 -5 -197c-51,-3 -101,-5 -147,-7z"/>
   <path class="fil0" d="M1090 5099l6 218 109 -3 -6 -210c-46,-2 -84,-4 -109,-5z"/>
   <path class="fil0" d="M1087 4965l2 106c51,3 166,8 281,13l-3 -126 -280 7z"/>
   <polygon class="fil0" points="1552,4925 1710,4921 1707,4782 1548,4786 "/>
   <polygon class="fil0" points="1308,4931 1526,4926 1523,4787 1304,4793 "/>
   <polygon class="fil0" points="1274,4612 1158,4615 1078,4628 1086,4937 1282,4932 1279,4793 1193,4796 1193,4768 1278,4765 "/>
   <polygon class="fil0" points="1518,4606 1299,4611 1303,4765 1522,4759 "/>
   <polygon class="fil0" points="1703,4631 1687,4631 1589,4604 1543,4605 1547,4758 1706,4754 "/>
   <polygon class="fil0" points="1741,5124 1746,5300 1772,5299 1772,5299 1892,5296 1887,5120 "/>
   <polygon class="fil0" points="1740,5096 1887,5092 1883,4944 1736,4948 "/>
   <polygon class="fil0" points="1736,4920 1882,4916 1878,4778 1732,4782 "/>
   <polygon class="fil0" points="1874,4626 1794,4628 1728,4630 1731,4754 1878,4750 "/>
   <polygon class="fil0" points="533,3557 373,3562 377,3733 516,3729 516,3729 537,3729 "/>
   <polygon class="fil0" points="372,3534 532,3529 526,3306 364,3235 "/>
   <polygon class="fil0" points="361,3094 363,3197 525,3267 521,3090 "/>
   <polygon class="fil0" points="517,2967 497,2968 358,2972 360,3066 520,3062 "/>
   <polygon class="fil0" points="917,3719 1069,3715 1065,3571 913,3575 "/>
   <polygon class="fil0" points="740,3724 892,3720 888,3576 736,3580 "/>
   <polygon class="fil0" points="563,3728 714,3724 711,3581 559,3585 "/>
   <polygon class="fil0" points="913,3547 1064,3543 1061,3416 909,3420 "/>
   <polygon class="fil0" points="735,3552 887,3548 884,3420 732,3424 "/>
   <polygon class="fil0" points="558,3557 710,3553 707,3425 555,3429 "/>
   <polygon class="fil0" points="909,3392 1060,3388 1057,3270 905,3274 "/>
   <polygon class="fil0" points="731,3396 883,3392 880,3275 728,3279 "/>
   <polygon class="fil0" points="723,3084 727,3251 879,3247 876,3118 901,3118 905,3246 1057,3242 1052,3076 "/>
   <polygon class="fil0" points="554,3401 706,3397 703,3279 551,3283 "/>
   <polygon class="fil0" points="550,3255 702,3251 698,3085 546,3089 "/>
   <path class="fil0" d="M1049 2953l-506 14 2 94 152 -4 0 -16 25 0c0,5 0,10 0,15l329 -8 -2 -95z"/>
   <polygon class="fil0" points="1696,3183 1836,3179 1830,2933 1689,2937 "/>
   <polygon class="fil0" points="1664,2937 1473,2942 1476,3047 1667,3042 "/>
   <polygon class="fil0" points="1480,3189 1670,3183 1667,3070 1477,3075 "/>
   <path class="fil0" d="M1451 3048l-3 -105 -369 10 3 105c123,-4 246,-7 369,-10z"/>
   <path class="fil0" d="M1455 3224l-260 7 -1 -35 260 -7 -3 -113c-122,3 -245,6 -368,10l12 457 78 -2c0,-1 0,-1 0,-1 12,3 25,5 38,7 -2,-75 -4,-149 -6,-224l25 -1 6 230c77,13 153,26 229,40l-5 -208 0 0 -5 -160z"/>
   <polygon class="fil0" points="356,2917 345,2479 374,2478 607,2526 576,2633 576,2633 576,2634 494,2913 "/>
   <polygon class="fil0" points="689,2248 613,2506 612,2506 612,2507 376,2459 369,2067 "/>
   <polygon class="fil0" points="1032,2296 1038,2534 631,2507 702,2266 "/>
   <polygon class="fil0" points="626,2527 721,2533 723,2616 599,2619 "/>
   <polygon class="fil0" points="739,2534 883,2544 884,2612 741,2615 "/>
   <polygon class="fil0" points="900,2545 1039,2554 1040,2608 902,2611 "/>
   <polygon class="fil0" points="577,2692 578,2717 570,2717 "/>
   <polygon class="fil0" points="564,2737 578,2737 583,2911 513,2912 "/>
   <polygon class="fil0" points="593,2639 724,2635 726,2713 596,2717 "/>
   <polygon class="fil0" points="742,2635 885,2631 887,2709 744,2713 "/>
   <polygon class="fil0" points="903,2631 1040,2627 1043,2705 905,2709 "/>
   <polygon class="fil0" points="596,2736 726,2733 728,2801 598,2805 "/>
   <polygon class="fil0" points="744,2732 887,2729 889,2797 746,2801 "/>
   <polygon class="fil0" points="905,2728 1043,2725 1045,2793 907,2797 "/>
   <polygon class="fil0" points="598,2824 729,2821 731,2907 601,2910 "/>
   <polygon class="fil0" points="746,2820 890,2817 892,2902 749,2906 "/>
   <polygon class="fil0" points="907,2816 1045,2813 1048,2898 910,2902 "/>
   <path class="fil0" d="M1618 2404l198 -5 13 483c-66,2 -132,3 -198,5l-13 -483z"/>
   <polygon class="fil0" points="1199,1457 1796,1629 1804,1955 1815,2368 1617,2373 1614,2235 1777,2231 1776,2200 1613,2204 1607,1994 1580,1994 1603,2888 1078,2901 1062,2283 1110,1950 "/>
   <path class="fil0" d="M1887 2700l5 180c89,-2 178,-5 268,-7l32 -181 -305 8z"/>
   <polygon class="fil0" points="1883,2558 1886,2670 2198,2662 2218,2549 "/>
   <polygon class="fil0" points="1882,2528 2220,2519 2218,2426 1880,2435 "/>
   <polygon class="fil0" points="1879,2405 2217,2396 2215,2309 1877,2318 "/>
   <polygon class="fil0" points="1873,2152 1876,2287 2202,2279 2172,2144 "/>
   <polygon class="fil0" points="2001,2118 2171,2113 2168,1976 1997,1980 "/>
   <polygon class="fil0" points="1872,2121 1973,2119 1970,1981 1868,1984 "/>
   <polygon class="fil0" points="1992,1785 2163,1781 2160,1679 1989,1684 "/>
   <polygon class="fil0" points="1996,1950 2167,1945 2164,1811 1993,1816 "/>
   <polygon class="fil0" points="1859,1647 1867,1953 1969,1951 1965,1817 1899,1818 1899,1788 1964,1786 1962,1677 "/>
   <polygon class="fil0" points="1852,1350 1858,1615 1989,1653 2168,1648 2196,1610 2191,1403 "/>
   <path class="fil0" d="M2162 3187l253 39c14,2 27,1 29,-13l28 -259c4,-33 -13,-39 -34,-37l-254 7 -22 263z"/>
   <polygon class="fil0" points="2075,3173 2135,3183 2157,2924 1893,2931 1899,3177 "/>
   <polygon class="fil0" points="2549,3256 3047,3243 3045,3158 2499,3173 2496,3200 "/>
   <path class="fil0" d="M2758 1506l-1 -16 -536 -83 6 211 -4 5c253,46 257,48 514,96 7,-64 13,-131 21,-213z"/>
   <path class="fil0" d="M2707 2031c10,-110 18,-195 27,-282 -264,-49 -262,-49 -531,-99l-13 18 12 469 0 0 28 128c121,39 168,54 361,115l116 -349z"/>
   <path class="fil0" d="M2356 2337c-36,-12 -70,-22 -111,-36l6 225c20,6 39,12 58,18l47 -207z"/>
   <path class="fil0" d="M2581 2409c-91,-29 -149,-48 -198,-63l-47 206c76,23 138,41 199,60l46 -203z"/>
   <path class="fil0" d="M3010 1814l-8 -286 -217 -34 1 15 0 0c-10,108 -19,191 -27,274l194 33 57 -2z"/>
   <path class="fil0" d="M3023 2334l-13 -489 -59 1 -195 -32c-7,66 -14,135 -22,219l289 301z"/>
   <path class="fil0" d="M2774 2116l-49 -51 -114 345 -1 -1 -48 211c19,5 39,11 59,17l153 -521z"/>
   <path class="fil0" d="M2857 2203l-64 -67 -149 508c25,8 52,16 80,24l133 -465z"/>
   <path class="fil0" d="M3034 2739l-10 -362 -148 -154 -129 452c36,11 76,23 121,37 0,0 0,0 0,0 255,37 -47,-5 166,27z"/>
   <path class="fil0" d="M2524 2640c-80,-24 -162,-48 -276,-83l-20 107c32,8 65,16 103,26 -3,10 -5,20 -7,30 -36,-10 -70,-18 -101,-26l-32 178 306 -8 27 -224z"/>
   <path class="fil0" d="M2500 3139l544 -14 -9 -355c-224,-33 91,10 -177,-29 0,0 0,0 0,-1 -126,-38 -214,-64 -299,-90l-25 213 0 0 -34 276z"/>
   <polygon class="fil0" points="3150,3240 3118,3241 3115,3156 3148,3156 "/>
   <polygon class="fil0" points="3148,3122 3114,3123 3107,2852 3104,2711 3095,2388 3138,2418 "/>
   <polygon class="fil0" points="3095,2363 3094,2332 3137,2342 3138,2392 "/>
   <polygon class="fil0" points="3093,2310 3081,1843 3130,1842 3137,2320 "/>
   <path class="fil1" d="M1092 5044c-1,-10 -9,-17 -22,-16l-1 0c-14,0 -22,7 -21,17 0,10 8,16 21,16l2 0c13,0 21,-7 21,-17zm-6 0c0,5 -5,9 -16,10l-1 0c-10,0 -15,-4 -15,-9 -1,-6 5,-10 15,-10l1 0c10,0 16,4 16,9z"/>
   <polygon class="fil0" points="1812,2193 1870,2192 1876,2406 1818,2407 "/>
   <path class="fil1" d="M3073 1751l-1 -12 -15 -4 -1 -21 15 -5 0 -12 -67 23 1 11 68 20zm-26 -18l-27 -8 27 -8 0 16z"/>
   <path class="fil1" d="M416 622l1 -11 74 -2 0 11 -75 2zm70 -35l51 26 -50 30 -1 -56zm5 33l0 -11 0 0 0 0 1 0 0 0 0 0 0 0 1 0 0 1 0 0 0 0 1 0 0 0 0 0 0 0 0 0 1 1 0 0 0 0 0 0 0 0 0 1 1 0 0 0 0 0 0 0 0 1 0 0 0 0 0 1 0 0 0 0 0 0 0 1 0 0 0 0 0 0 0 1 0 0 0 0 0 0 0 1 0 0 0 0 -1 0 0 1 0 0 0 0 0 0 0 0 -1 0 0 1 0 0 0 0 0 0 -1 0 0 0 0 0 0 0 -1 1 0 0 0 0 0 0 -1 0 0 0z"/>
   <polygon class="fil0" points="1960,5480 2085,5477 2088,5588 1963,5592 "/>
   <polygon class="fil0" points="2251,5472 2376,5469 2379,5577 2254,5582 "/>
   <polygon class="fil0" points="2397,5469 2522,5465 2525,5572 2400,5577 "/>
   <polygon class="fil0" points="2543,5465 2668,5462 2670,5567 2545,5572 "/>
   <polygon class="fil0" points="2688,5461 2813,5458 2816,5562 2691,5566 "/>
   <polygon class="fil0" points="2834,5457 2959,5454 2962,5557 2837,5561 "/>
   <polygon class="fil0" points="2243,5144 2368,5140 2371,5271 2246,5275 "/>
   <polygon class="fil0" points="2388,5140 2513,5136 2517,5267 2392,5271 "/>
   <polygon class="fil0" points="2534,5136 2659,5133 2662,5264 2537,5267 "/>
   <polygon class="fil0" points="2680,5132 2805,5129 2808,5260 2683,5263 "/>
   <polygon class="fil0" points="2825,5128 2950,5125 2954,5256 2829,5259 "/>
   <polygon class="fil0" points="3151,4626 3169,4626 3171,4757 3154,4757 "/>
   <polygon class="fil0" points="3146,4462 3167,4461 3169,4592 3150,4593 "/>
   <path class="fil0" d="M2960 4466l119 -3 3 131c-39,1 -79,2 -119,4l-3 -132z"/>
   <polygon class="fil0" points="2520,4478 2639,4475 2643,4606 2523,4609 "/>
   <polygon class="fil0" points="2373,4482 2493,4479 2496,4610 2377,4613 "/>
   <polygon class="fil0" points="2227,4486 2346,4483 2350,4614 2230,4617 "/>
   <polygon class="fil0" points="2080,4490 2200,4486 2203,4617 2084,4621 "/>
   <path class="fil0" d="M1934 4493l119 -3 4 131c-40,1 -80,2 -120,3l-3 -131z"/>
   <path class="fil0" d="M1938 4658c27,-1 53,-2 80,-2l0 0 186 -5 4 131c-49,1 -98,2 -147,4l0 0 -40 1 -79 2 -4 -131z"/>
   <polygon class="fil0" points="1942,4822 2062,4819 2065,4950 1946,4953 "/>
   <polygon class="fil0" points="2089,4818 2208,4815 2212,4946 2092,4949 "/>
   <path class="fil0" d="M2231 4650l120 -3 3 131c-40,1 -80,2 -119,3l-4 -131z"/>
   <path class="fil0" d="M2378 4646l119 -3 4 131c-40,1 -80,2 -120,3l-3 -131z"/>
   <path class="fil0" d="M2524 4642l120 -3 3 131c-40,1 -79,2 -119,3l-4 -131z"/>
   <path class="fil0" d="M2671 4639l119 -4 4 132c-40,1 -80,2 -120,3l-3 -131z"/>
   <path class="fil0" d="M2817 4635l120 -3 3 131c-40,1 -79,2 -119,3l-4 -131z"/>
   <path class="fil0" d="M2964 4631c40,-1 79,-2 119,-3l4 131 -120 3 -3 -131z"/>
   <polygon class="fil0" points="2968,4795 3088,4792 3091,4923 2972,4926 "/>
   <polygon class="fil0" points="2822,4799 2941,4796 2944,4927 2825,4930 "/>
   <polygon class="fil0" points="2675,4803 2795,4800 2798,4931 2679,4934 "/>
   <polygon class="fil0" points="2529,4807 2648,4804 2651,4935 2532,4938 "/>
   <polygon class="fil0" points="2382,4811 2501,4808 2505,4939 2386,4942 "/>
   <polygon class="fil0" points="2236,4815 2355,4811 2358,4942 2239,4946 "/>
   <polygon class="fil0" points="2240,4979 2359,4976 2363,5107 2243,5110 "/>
   <polygon class="fil0" points="2386,4975 2506,4972 2509,5103 2390,5106 "/>
   <polygon class="fil0" points="2533,4971 2652,4968 2656,5099 2536,5102 "/>
   <polygon class="fil0" points="2679,4968 2799,4964 2802,5095 2683,5099 "/>
   <polygon class="fil0" points="2826,4964 2945,4961 2949,5092 2829,5095 "/>
   <polygon class="fil0" points="2972,4960 3092,4957 3095,5088 2976,5091 "/>
   <polygon class="fil0" points="2980,5453 3105,5450 3107,5552 2982,5556 "/>
   <path class="fil0" d="M2975 5289c42,-1 84,-2 125,-3l4 120 -125 3 -4 -120z"/>
   <polygon class="fil0" points="2971,5124 3096,5121 3100,5252 2975,5255 "/>
   <polygon class="fil0" points="2830,5293 2955,5289 2958,5409 2833,5413 "/>
   <polygon class="fil0" points="2684,5297 2809,5293 2812,5413 2687,5416 "/>
   <polygon class="fil0" points="2538,5300 2663,5297 2666,5417 2541,5420 "/>
   <polygon class="fil0" points="2393,5304 2518,5301 2521,5421 2396,5424 "/>
   <polygon class="fil0" points="2247,5308 2372,5305 2375,5425 2250,5428 "/>
   <polygon class="fil0" points="2101,5312 2226,5309 2229,5428 2104,5432 "/>
   <path class="fil0" d="M1955 5316c42,-1 84,-3 125,-4l4 120 -125 4 -4 -120z"/>
   <path class="fil0" d="M2115 5476l48 -1 2 46c-2,1 -4,1 -5,2l-45 -47zm118 106l-16 1 -32 -33c1,-2 2,-4 2,-5l45 -2 1 39zm-28 1l-30 2 0 -26c1,0 3,-1 4,-2l26 26zm-39 2l-29 1 24 -29c1,1 3,2 5,2l0 26zm-42 1l-16 1 -1 -40 45 -1c1,1 2,3 2,5l-30 35zm30 -56c-1,2 -1,4 -2,6l-45 1 -1 -57 48 50zm18 -55l49 -2 -43 50c-1,-1 -3,-2 -4,-2l-2 -46zm59 2l1 57 -45 1c0,-2 -1,-4 -2,-5l46 -53z"/>
   <path class="fil0" d="M3121 4792l2 0c7,0 13,8 14,17l0 25c0,9 -5,17 -12,18l-3 0c-7,0 -13,-8 -13,-17l-1 -25c0,-10 5,-18 13,-18z"/>
   <path class="fil0" d="M3118 4700l3 0c7,0 13,8 13,17l1 25c0,10 -6,18 -13,18l-2 0c-7,0 -14,-8 -14,-17l0 -25c-1,-9 5,-17 12,-18z"/>
   <path class="fil0" d="M3125 4955l2 0c7,0 14,7 14,17l0 25c1,9 -5,17 -12,17l-3 1c-7,0 -13,-8 -13,-18l-1 -24c0,-10 6,-18 13,-18z"/>
   <path class="fil0" d="M3131 5193l3 0c7,0 13,8 13,17l1 25c0,10 -6,18 -13,18l-2 0c-8,0 -14,-8 -14,-17l-1 -25c0,-9 6,-17 13,-18z"/>
   <path class="fil0" d="M3135 5355l3 0c7,0 13,7 13,17l1 25c0,9 -5,17 -13,17l-2 1c-7,0 -13,-8 -14,-18l0 -24c-1,-10 5,-18 12,-18z"/>
   <path class="fil0" d="M3116 4628l3 0c7,0 13,8 13,17l1 25c0,10 -6,18 -13,18l-2 0c-7,0 -13,-8 -14,-17l0 -25c-1,-9 5,-17 12,-18z"/>
   <path class="fil0" d="M3123 4864l2 0c7,0 13,8 13,17l1 25c0,9 -5,17 -13,18l-2 0c-7,0 -13,-8 -13,-17l-1 -25c0,-10 5,-18 13,-18z"/>
   <path class="fil0" d="M3127 5027l2 0c7,0 13,7 14,17l0 25c1,9 -5,17 -12,17l-3 1c-7,0 -13,-8 -13,-18l-1 -24c0,-10 6,-18 13,-18z"/>
   <path class="fil0" d="M3129 5121l3 0c7,0 13,8 13,17l1 25c0,10 -6,18 -13,18l-2 0c-7,0 -13,-8 -14,-17l0 -25c-1,-9 5,-17 12,-18z"/>
   <path class="fil0" d="M3133 5283l3 0c7,0 13,8 13,17l1 25c0,9 -5,17 -13,18l-2 0c-7,0 -13,-8 -14,-18l0 -24c0,-10 5,-18 12,-18z"/>
   <path class="fil0" d="M3138 5448l2 0c7,0 13,8 14,17l0 25c1,9 -5,17 -12,18l-3 0c-7,0 -13,-8 -13,-17l-1 -25c0,-10 6,-18 13,-18z"/>
   <polygon class="fil2 str0" points="1428,247 1253,1258 3126,1547 3182,5549 290,5651 175,1936 224,1838 485,184 "/>
  </g>
 </g>
</svg>
