<?xml version="1.0" encoding="UTF-8"?>
<!DOCTYPE svg PUBLIC "-//W3C//DTD SVG 1.1//EN" "http://www.w3.org/Graphics/SVG/1.1/DTD/svg11.dtd">
<!-- Creator: CorelDRAW X7 -->
<svg xmlns="http://www.w3.org/2000/svg" xml:space="preserve" width="99.3906mm" height="74.4016mm" version="1.1" style="shape-rendering:geometricPrecision; text-rendering:geometricPrecision; image-rendering:optimizeQuality; fill-rule:evenodd; clip-rule:evenodd"
viewBox="0 0 4768 3569"
 xmlns:xlink="http://www.w3.org/1999/xlink">
 <defs>
  <style type="text/css">
   <![CDATA[
    .str0 {stroke:white;stroke-width:239.842}
    .fil3 {fill:none}
    .fil0 {fill:#BFEAF5}
    .fil1 {fill:#FEFEFE;fill-rule:nonzero}
    .fil2 {fill:#BFEAF5;fill-rule:nonzero}
   ]]>
  </style>
 </defs>
 <g id="Capa_x0020_1">
  <metadata id="CorelCorpID_0Corel-Layer"/>
  <polygon class="fil0" points="3562,159 3561,126 3505,128 3506,161 "/>
  <polygon class="fil0" points="3600,103 3821,97 3822,150 3602,158 "/>
  <polygon class="fil0" points="3838,97 4171,88 4172,138 3840,150 "/>
  <polygon class="fil0" points="1509,3257 1566,3255 1613,3216 2197,2950 2183,2421 1534,2438 "/>
  <polygon class="fil0" points="1534,2449 1899,2440 1860,934 913,958 928,1499 1562,1522 "/>
  <polygon class="fil0" points="915,1023 1595,1005 1575,237 895,261 "/>
  <polygon class="fil0" points="4496,1245 4515,1223 4517,1225 "/>
  <polygon class="fil0" points="4552,1191 4636,1097 4629,1062 4317,1419 4407,1333 "/>
  <polygon class="fil0" points="3680,2030 3678,1983 3608,1912 3598,1531 3542,1604 3143,1614 3137,1373 2649,1297 2587,1342 2549,1343 2577,2408 2806,2375 2799,2115 2817,2115 2824,2373 3374,2293 "/>
  <polygon class="fil0" points="3497,538 3572,536 3569,433 3494,435 "/>
  <polygon class="fil0" points="3500,652 3575,650 3572,555 3498,557 "/>
  <polygon class="fil0" points="3460,402 3458,416 3569,413 3566,317 3496,319 3416,369 "/>
  <polygon class="fil0" points="3439,539 3480,538 3477,435 3455,436 "/>
  <polygon class="fil0" points="3434,654 3483,652 3480,558 3436,559 3423,651 "/>
  <polygon class="fil0" points="3483,672 3433,673 3433,673 3415,668 3417,762 3486,761 "/>
  <polygon class="fil0" points="3575,669 3501,671 3503,760 3578,758 "/>
  <polygon class="fil0" points="3486,780 3418,782 3421,897 3489,895 "/>
  <polygon class="fil0" points="3578,777 3503,779 3506,894 3581,892 "/>
  <polygon class="fil0" points="3597,1502 3582,912 3421,916 3439,1587 3529,1585 "/>
  <polygon class="fil0" points="2935,188 2921,327 3401,357 3493,303 3491,303 3492,302 3493,303 3566,301 3562,165 3522,167 "/>
  <polygon class="fil0" points="3746,1969 3716,1970 3647,1900 3636,1498 3668,1462 3689,1575 3910,1809 "/>
  <polygon class="fil0" points="3635,1469 3632,1337 3658,1442 "/>
  <path class="fil0" d="M3834 1687l96 102 54 -53 55 -52 39 -43c-26,-26 -51,-52 -77,-78 3,-4 6,-7 9,-11 26,26 51,52 77,78l53 -60 -106 -113 -200 230z"/>
  <polygon class="fil0" points="3946,1175 3937,1161 3635,1273 3682,1421 "/>
  <polygon class="fil0" points="4019,1258 3956,1190 3688,1440 3689,1443 3711,1557 3745,1593 "/>
  <polygon class="fil0" points="4104,1349 4032,1272 3758,1606 3821,1674 "/>
  <polygon class="fil0" points="4223,1477 4116,1362 4046,1444 4152,1556 "/>
  <polygon class="fil0" points="4338,1050 4289,974 4350,936 4398,1013 "/>
  <polygon class="fil0" points="4388,1127 4348,1066 4407,1029 4442,1085 "/>
  <polygon class="fil0" points="4235,1123 4163,1050 4273,983 4327,1065 "/>
  <polygon class="fil0" points="4510,1174 4404,1293 4249,1137 4337,1081 4374,1138 4347,1159 4357,1175 4452,1101 4473,1135 4473,1135 4473,1135 "/>
  <polygon class="fil0" points="4480,960 4413,1003 4366,927 4506,842 4558,840 4442,914 "/>
  <polygon class="fil0" points="4139,1184 4065,1109 4147,1060 4220,1133 "/>
  <polygon class="fil0" points="4216,1261 4153,1197 4233,1147 4290,1204 "/>
  <polygon class="fil0" points="4387,1301 4325,1371 4230,1275 4304,1217 "/>
  <polygon class="fil0" points="4039,1247 3969,1174 3993,1153 4049,1119 4123,1194 "/>
  <polygon class="fil0" points="4123,1334 4052,1261 4137,1207 4202,1273 "/>
  <polygon class="fil0" points="4313,1385 4247,1462 4136,1347 4215,1286 "/>
  <polygon class="fil0" points="4097,1055 4194,995 4192,897 4191,865 4190,838 4091,840 4092,871 4092,871 "/>
  <polygon class="fil0" points="4075,900 4074,859 4074,859 4074,841 3975,843 3975,861 3975,861 3976,903 "/>
  <polygon class="fil0" points="4076,920 3977,922 3979,993 4078,990 "/>
  <polygon class="fil0" points="3980,1049 4010,1107 4080,1065 4078,1009 3979,1012 "/>
  <polygon class="fil0" points="3859,895 3900,894 3962,1013 3958,879 3958,879 3957,844 3858,847 3859,885 3859,885 "/>
  <polygon class="fil0" points="3967,535 4066,532 4068,622 3969,625 "/>
  <path class="fil0" d="M4083 532l99 -3 2 90 -99 3c0,-30 -1,-60 -2,-90z"/>
  <polygon class="fil0" points="3970,648 4069,645 4071,736 3972,738 "/>
  <polygon class="fil0" points="4086,645 4185,642 4187,733 4088,735 "/>
  <polygon class="fil0" points="4207,518 4293,516 4296,606 4209,609 "/>
  <polygon class="fil0" points="4314,516 4400,513 4402,604 4316,606 "/>
  <polygon class="fil0" points="4210,632 4296,629 4299,720 4212,722 "/>
  <polygon class="fil0" points="4317,629 4403,627 4405,717 4319,719 "/>
  <polygon class="fil0" points="4213,745 4299,743 4301,824 4215,826 "/>
  <polygon class="fil0" points="4320,742 4406,740 4408,821 4322,824 "/>
  <polygon class="fil0" points="3963,411 4062,409 4065,509 3966,512 "/>
  <polygon class="fil0" points="4080,408 4179,406 4181,506 4082,509 "/>
  <polygon class="fil0" points="4204,405 4290,403 4293,493 4206,495 "/>
  <polygon class="fil0" points="4311,402 4397,400 4399,490 4313,492 "/>
  <polygon class="fil0" points="3853,651 3952,649 3954,739 3855,741 "/>
  <polygon class="fil0" points="3856,764 3955,762 3957,821 3858,823 "/>
  <polygon class="fil0" points="3972,761 4072,759 4073,818 3974,820 "/>
  <polygon class="fil0" points="4089,758 4188,756 4190,815 4091,817 "/>
  <polygon class="fil0" points="4216,849 4302,847 4304,922 4219,972 "/>
  <polygon class="fil0" points="4322,847 4409,844 4409,863 4324,911 "/>
  <polygon class="fil0" points="3823,155 3826,278 3605,284 3602,164 "/>
  <polygon class="fil0" points="4172,141 4175,269 3843,278 3840,154 "/>
  <polygon class="fil0" points="4283,137 4284,153 4198,155 4197,140 "/>
  <polygon class="fil0" points="4390,133 4390,150 4304,152 4304,136 "/>
  <polygon class="fil0" points="4198,178 4284,176 4287,266 4201,269 "/>
  <polygon class="fil0" points="4305,175 4391,173 4393,264 4307,266 "/>
  <polygon class="fil0" points="4308,289 4394,287 4396,377 4310,379 "/>
  <polygon class="fil0" points="4201,292 4287,289 4290,380 4203,382 "/>
  <polygon class="fil0" points="4077,295 4176,292 4178,383 4079,385 "/>
  <polygon class="fil0" points="3960,298 4059,295 4062,386 3963,388 "/>
  <polygon class="fil0" points="3844,301 3943,298 3945,389 3846,391 "/>
  <polygon class="fil0" points="3605,307 3826,301 3829,392 3607,398 "/>
  <polygon class="fil0" points="3608,421 3664,419 3666,520 3610,521 "/>
  <polygon class="fil0" points="3611,544 3667,543 3669,633 3613,634 "/>
  <polygon class="fil0" points="3681,419 3946,412 3948,512 3684,519 "/>
  <polygon class="fil0" points="3684,542 3833,538 3835,629 3687,632 "/>
  <path class="fil0" d="M3850 538l99 -3c1,30 2,60 2,90l-99 3 -2 -90z"/>
  <polygon class="fil0" points="3614,657 3670,656 3674,824 3639,825 3639,844 3675,843 3676,890 3620,891 "/>
  <polygon class="fil0" points="3687,655 3836,652 3842,885 3763,888 3758,693 3741,693 3746,888 3694,889 "/>
  <polygon class="fil0" points="3697,1034 3694,909 3842,905 3845,999 "/>
  <polygon class="fil0" points="3680,1058 3683,1173 3701,1172 3698,1054 3845,1018 3847,1103 3865,1102 3860,914 3889,913 3995,1118 3940,1143 3629,1247 3625,1072 "/>
  <polygon class="fil0" points="3621,911 3677,909 3680,1039 3624,1052 "/>
  <path class="fil0" d="M4512 1008l63 93 -53 59 -6 -6c-1,-48 -2,-97 -4,-146z"/>
  <polygon class="fil0" points="4491,976 4499,988 4503,1140 4487,1122 4423,1019 "/>
  <polygon class="fil0" points="4553,937 4612,1060 4587,1088 4506,966 "/>
  <path class="fil0" d="M4468 917l94 -60c11,11 21,21 32,32l-98 62 -28 -34z"/>
  <polygon class="fil0" points="4420,513 4507,510 4509,601 4423,603 "/>
  <polygon class="fil0" points="4423,626 4510,624 4512,714 4426,716 "/>
  <polygon class="fil0" points="4426,739 4513,737 4515,818 4429,821 "/>
  <polygon class="fil0" points="4417,399 4504,397 4506,487 4420,490 "/>
  <polygon class="fil0" points="4524,397 4593,395 4593,485 4527,487 "/>
  <polygon class="fil0" points="4429,844 4456,843 4429,855 "/>
  <polygon class="fil0" points="4497,128 4497,147 4411,150 4410,132 "/>
  <polygon class="fil0" points="4592,145 4518,147 4517,128 4592,125 "/>
  <polygon class="fil0" points="4412,173 4498,170 4500,261 4414,263 "/>
  <polygon class="fil0" points="4518,170 4592,168 4592,258 4521,260 "/>
  <polygon class="fil0" points="4521,283 4592,281 4593,372 4524,374 "/>
  <polygon class="fil0" points="4415,286 4501,284 4503,374 4417,376 "/>
  <polygon class="fil0" points="1923,482 1851,484 1842,550 1925,548 "/>
  <polygon class="fil0" points="1934,560 1841,562 1836,595 1935,592 "/>
  <polygon class="fil0" points="1926,605 1834,607 1827,666 1928,663 "/>
  <polygon class="fil0" points="1816,742 1930,739 1928,675 1825,678 "/>
  <polygon class="fil0" points="1953,738 2016,737 2015,673 1951,675 "/>
  <polygon class="fil0" points="2002,603 1949,604 1951,662 2015,661 2014,629 2003,628 "/>
  <polygon class="fil0" points="2001,558 1957,559 1958,592 2002,591 "/>
  <polygon class="fil0" points="2010,480 1946,482 1948,547 2011,545 "/>
  <polygon class="fil0" points="2135,587 2133,477 2033,479 2035,557 2023,557 2025,590 "/>
  <polygon class="fil0" points="2136,599 2036,602 2038,660 2137,657 "/>
  <polygon class="fil0" points="2040,736 2139,733 2138,670 2038,672 "/>
  <polygon class="fil0" points="1606,236 1612,465 1724,462 1718,232 "/>
  <path class="fil0" d="M1744 330c1,44 2,87 3,131l113 -3 -3 -131 -113 3z"/>
  <path class="fil0" d="M1880 326c1,44 2,88 3,132l113 -3 -3 -132 -113 3z"/>
  <polygon class="fil0" points="2128,320 2016,323 2019,454 2132,451 "/>
  <polygon class="fil0" points="1930,2389 2182,2382 2155,1353 1903,1360 "/>
  <polygon class="fil0" points="1906,1334 2155,1328 2144,920 1895,926 "/>
  <polygon class="fil0" points="2260,2922 2249,2491 2409,2468 2419,2849 "/>
  <polygon class="fil0" points="2437,2841 2427,2465 2691,2428 2699,2722 "/>
  <polygon class="fil0" points="2717,2714 2709,2425 3321,2339 3074,2551 "/>
  <polygon class="fil0" points="2189,215 2195,453 2428,447 2634,454 2680,197 "/>
  <polygon class="fil0" points="2200,636 2196,487 2426,481 2390,696 "/>
  <polygon class="fil0" points="2628,487 2607,610 2426,585 2443,485 "/>
  <polygon class="fil0" points="2604,628 2576,788 2406,704 2423,604 "/>
  <polygon class="fil0" points="2573,806 2548,949 2423,920 2449,799 2433,795 2407,916 2206,869 2200,655 2394,716 2394,717 "/>
  <polygon class="fil0" points="2514,1344 2544,969 2207,891 2230,1787 2390,1783 2390,1802 2231,1806 2248,2455 2542,2413 2532,2016 2428,2019 2427,2000 2531,1998 "/>
  <polygon class="fil0" points="3160,1595 3241,1592 3238,1492 3158,1494 "/>
  <polygon class="fil0" points="3155,1371 3157,1475 3238,1473 3255,1472 3256,1492 3258,1592 3421,1588 3419,1493 3338,1495 3337,1476 3418,1474 3416,1364 "/>
  <polygon class="fil0" points="3154,1352 3415,1345 3409,1131 3149,1138 "/>
  <polygon class="fil0" points="3334,1114 3409,1112 3405,962 3330,964 "/>
  <polygon class="fil0" points="3148,1118 3316,1114 3312,965 3144,969 "/>
  <polygon class="fil0" points="3329,945 3405,943 3400,782 3325,784 "/>
  <polygon class="fil0" points="3243,947 3312,945 3308,785 3239,786 "/>
  <polygon class="fil0" points="3237,712 3238,767 3307,765 3306,725 "/>
  <polygon class="fil0" points="3137,693 3139,760 3185,768 3221,768 3219,709 "/>
  <polygon class="fil0" points="3322,645 3325,765 3400,763 3397,664 "/>
  <polygon class="fil0" points="3235,624 3236,693 3306,706 3304,641 "/>
  <polygon class="fil0" points="3134,599 3136,674 3219,689 3217,619 "/>
  <polygon class="fil0" points="2957,955 2951,745 3021,758 3023,833 3041,833 3039,761 3122,776 3123,835 3141,834 3139,779 3185,788 3185,788 3185,788 3221,787 3226,948 "/>
  <polygon class="fil0" points="2932,654 2933,722 2887,714 2885,646 "/>
  <polygon class="fil0" points="3019,671 3021,738 2951,725 2949,658 "/>
  <polygon class="fil0" points="3119,690 3121,757 3038,741 3037,674 "/>
  <polygon class="fil0" points="2929,547 2931,635 2885,626 2883,536 "/>
  <polygon class="fil0" points="3016,569 3019,651 2949,638 2946,552 "/>
  <polygon class="fil0" points="3117,594 3119,670 3036,655 3034,574 "/>
  <polygon class="fil0" points="3016,350 3007,444 3422,537 3441,411 3399,376 "/>
  <polygon class="fil0" points="2907,342 2998,349 2989,441 2902,421 "/>
  <polygon class="fil0" points="2835,337 2890,341 2885,418 2828,405 "/>
  <polygon class="fil0" points="2758,332 2817,336 2811,401 2753,388 "/>
  <polygon class="fil0" points="2685,373 2694,328 2741,331 2736,384 "/>
  <polygon class="fil0" points="2997,545 3005,464 3419,556 3406,647 "/>
  <polygon class="fil0" points="2901,441 2988,460 2980,540 2896,520 "/>
  <polygon class="fil0" points="2827,424 2884,437 2879,515 2819,500 "/>
  <polygon class="fil0" points="2751,407 2809,420 2802,496 2744,481 "/>
  <polygon class="fil0" points="2668,463 2682,392 2734,404 2726,477 "/>
  <polygon class="fil0" points="2817,520 2865,531 2867,623 2808,611 "/>
  <polygon class="fil0" points="2734,563 2726,596 2645,580 2664,481 2800,515 2794,574 "/>
  <polygon class="fil0" points="2744,577 2793,585 2791,608 2739,598 "/>
  <polygon class="fil0" points="2806,631 2868,642 2870,710 2800,697 "/>
  <polygon class="fil0" points="2629,666 2642,599 2789,627 2783,694 "/>
  <polygon class="fil0" points="2585,895 2625,685 2934,742 2940,955 2845,958 "/>
  <polygon class="fil0" points="2771,959 2732,1207 2646,1208 2622,1280 2546,1292 2571,968 2581,914 "/>
  <polygon class="fil0" points="2772,1293 2747,1224 2788,963 2844,977 2844,977 3127,970 3137,1353 "/>
  <polygon class="fil0" points="1750,487 1717,721 1699,720 1732,487 1612,490 1623,908 2143,894 2140,759 1793,768 1793,743 1828,485 "/>
  <path class="fil1" d="M3258 846l0 5 -17 1 -1 -5 18 -1zm-11 25l0 -5 18 -1 0 5 -18 1zm-203 -22l-5 1 -1 -18 5 0 1 17zm28 2l0 5 -18 1 0 -5 18 -1zm35 -1l0 5 -18 1 0 -5 18 -1zm18 -15l1 16 -5 1 0 -17 4 0zm-84 100l5 0 0 17 -4 1 -1 -18zm-1 -35l5 0 0 17 -4 0 -1 -17zm4 -26l1 8 -5 0 -1 -8 3 -3 2 3zm-5 0l0 -3 3 0 -3 3zm12 -3l0 5 -9 0 0 -5 9 0zm35 -1l0 5 -17 0 0 -4 17 -1zm35 -1l0 5 -17 1 0 -5 17 -1zm6 35l-5 0 0 -17 5 -1 0 18zm1 35l-5 0 0 -17 5 0 0 17zm-156 -85l0 5 -18 0 0 -5 18 0zm35 -1l0 5 -17 0 -1 -5 18 0zm14 -16l5 -1 0 18 -5 0 0 -17zm-49 36l0 5 -17 0 0 -4 17 -1zm36 -1l0 5 -18 1 0 -5 18 -1zm19 20l-5 1 0 -18 5 0 0 17zm1 36l-5 0 0 -18 5 0 0 18zm-4 25l0 -8 5 0 0 8 -5 0zm182 -100l-1 -5 18 -1 0 5 -17 1zm-36 0l0 -4 18 -1 0 5 -18 0zm-29 -4l12 0 0 5 -12 0 -2 -2 2 -3zm0 5l-2 0 0 -2 2 2zm-3 -8l5 0 0 6 -4 0 -1 -6zm68 26l0 -5 18 0 0 4 -18 1zm-35 1l0 -5 17 -1 0 5 -17 1zm-30 -4l12 -1 0 5 -11 1 -3 -3 2 -2zm-2 2l0 -2 2 0 -2 2zm5 6l-5 0 0 -6 5 0 0 6zm1 35l-5 0 0 -17 4 -1 1 18zm1 35l-5 0 0 -17 4 0 1 17zm92 -2l0 5 -17 0 0 -5 17 0z"/>
  <path class="fil2" d="M2134 1804l0 3 17 6 2 0 0 -11 -3 0 0 8 -16 -6zm0 18c0,4 4,6 10,6l1 0c6,0 9,-2 9,-6 0,-5 -4,-7 -10,-7l0 0c-7,0 -10,3 -10,7zm3 0c0,-2 2,-3 7,-3l0 0c5,-1 7,1 7,3 0,1 -2,3 -7,3l0 0c-5,0 -7,-1 -7,-3zm-2 15c0,4 3,7 9,7l1 0c6,0 9,-3 9,-7 0,-4 -3,-7 -9,-6l-1 0c-6,0 -9,2 -9,6zm2 0c0,-2 2,-3 7,-3l1 0c4,0 6,1 7,3 0,2 -2,3 -7,3l-1 0c-4,1 -6,-1 -7,-3z"/>
  <path class="fil2" d="M2562 1894c0,-3 -1,-5 -2,-6 -1,-2 -3,-3 -6,-2l-22 0 0 5 22 0c3,-1 4,1 4,3 0,1 -1,2 -2,3l3 3c2,-1 3,-4 3,-6zm0 -14l-1 -5 -5 0 0 6 6 -1zm-1 -23c0,-3 -1,-5 -2,-6 -1,-2 -3,-2 -6,-2l-22 0 0 5 22 0c3,0 4,1 4,3 0,1 -1,2 -2,3l3 3c2,-1 3,-4 3,-6zm0 -14l-1 -5 -5 0 0 6 6 -1zm-1 -19l0 -5 -20 0 20 -11 0 -5 -30 1 0 5 19 -1 -19 12 0 5 30 -1zm-1 -24l0 -5 -7 -2 0 -10 7 -2 0 -5 -30 10 0 5 30 9zm-11 -8l-12 -3 12 -4 0 7zm-20 -1l0 -4 -4 -5 -2 5 6 4z"/>
  <path class="fil2" d="M2559 1763c0,-4 -1,-6 -3,-9l-14 1 0 10 4 0 0 -6 8 0c0,1 1,2 1,4 0,4 -4,7 -11,8l0 0c-7,0 -11,-3 -11,-8 0,-2 1,-4 2,-5l-4 -3c-2,3 -3,5 -2,8 0,8 6,13 15,13l0 0c10,0 15,-6 15,-13zm-1 -14l0 -16 -5 0 1 11 -9 1 0 -11 -4 0 0 11 -8 0 -1 -12 -4 1 1 16 29 -1zm0 -21l-1 -5 -10 0 0 -3c0,0 0,0 0,0l10 -6 0 -6 -12 7c-1,-4 -4,-6 -8,-6l0 0c-3,0 -5,1 -7,3 -2,2 -2,5 -2,8l0 9 30 -1zm-15 -5l-11 1 0 -3c0,-4 2,-7 5,-7 3,0 6,2 6,6l0 3zm14 -17l0 -5 -7 -2 0 -9 7 -3 -1 -5 -29 10 0 6 30 8zm-11 -8l-12 -3 12 -4 0 7z"/>
  <polygon class="fil0" points="944,259 944,1500 129,1470 215,285 "/>
  <polygon class="fil3 str0" points="3522,167 4592,125 4595,884 4638,1107 4407,1333 3984,1736 3711,2003 3074,2551 1613,3216 1508,3304 1562,1522 129,1470 215,285 "/>
 </g>
</svg>
