<?xml version="1.0" encoding="UTF-8"?>
<!DOCTYPE svg PUBLIC "-//W3C//DTD SVG 1.1//EN" "http://www.w3.org/Graphics/SVG/1.1/DTD/svg11.dtd">
<!-- Creator: CorelDRAW X7 -->
<svg xmlns="http://www.w3.org/2000/svg" xml:space="preserve" width="63.5491mm" height="107.855mm" version="1.1" style="shape-rendering:geometricPrecision; text-rendering:geometricPrecision; image-rendering:optimizeQuality; fill-rule:evenodd; clip-rule:evenodd"
viewBox="0 0 5006 8496"
 xmlns:xlink="http://www.w3.org/1999/xlink">
 <defs>
  <style type="text/css">
   <![CDATA[
    .str2 {stroke:white;stroke-width:393.87}
    .str1 {stroke:#F28736;stroke-width:22.2852}
    .str0 {stroke:#AAE0F9;stroke-width:25.2707;stroke-linecap:round;stroke-linejoin:round}
    .fil1 {fill:none}
    .fil0 {fill:#BFEAF5}
    .fil3 {fill:#48B754;fill-rule:nonzero}
    .fil2 {fill:#BFEAF5;fill-rule:nonzero}
   ]]>
  </style>
 </defs>
 <g id="Capa_x0020_1">
  <metadata id="CorelCorpID_0Corel-Layer"/>
  <path class="fil0" d="M2146 7865c26,-16 58,-37 78,-59 36,-42 113,-116 147,-117 34,-1 111,-82 144,-113 34,-32 41,-5 65,-33 23,-28 62,-94 107,-99 44,-4 77,-46 115,-61 37,-15 68,-5 112,-23 44,-19 54,-15 89,-10 34,6 82,-12 102,-9 21,3 65,-15 89,-2 25,13 24,-22 86,-3 62,19 87,46 124,45 38,-1 55,-1 100,15 45,16 100,35 132,58 31,23 52,19 69,36 18,16 49,19 66,36 18,16 49,33 73,46 25,13 -2,31 32,40 35,9 84,42 88,70 4,27 48,29 52,53 4,24 42,19 60,60 18,41 63,29 70,63 8,34 22,41 46,40 24,0 24,20 49,43 25,24 33,85 64,78 30,-8 35,23 66,46 31,23 111,41 172,26 61,-15 109,-27 120,-10 5,9 9,16 11,22l-23 66 -225 135 -2 -2c-217,-114 -348,-182 -526,-381 -64,-70 -252,-260 -356,-257 -31,0 -51,-14 -84,-13 -11,0 -22,-2 -34,-4l-29 -22 -555 -71 -641 387 -53 -76zm95 -2777c-10,14 -20,28 -32,37 -18,16 -63,49 -70,70 -7,21 -17,60 -41,85 -24,25 -37,56 -61,76 -24,19 -43,39 -54,54 -11,16 -43,22 -80,48 -38,26 -67,53 -82,76 -14,23 -42,51 -47,72 -5,21 -3,51 -19,88 -16,36 -45,84 -48,128 -3,44 -13,73 -33,102 -20,29 -24,40 -81,51 -56,11 -117,30 -147,42 -30,12 -73,42 -85,73 -13,30 -49,96 -86,122 -38,25 -66,32 -94,32 -29,1 -53,15 -85,31 -32,16 -104,37 -113,45 -9,8 39,-22 73,-34 34,-13 53,-28 79,-40 26,-12 66,-6 89,-16 22,-10 47,-18 73,-51 25,-33 53,-76 63,-106 11,-31 56,-63 93,-75 38,-12 83,-19 125,-34 41,-14 81,-25 99,-73 17,-48 33,-116 32,-139 -1,-23 21,-54 37,-113 16,-60 22,-94 50,-119 28,-26 75,-59 97,-77 22,-18 67,-32 78,-57 11,-25 37,-39 67,-78 29,-39 72,-66 77,-99 5,-32 23,-59 56,-81 26,-16 42,-48 56,-69l14 29zm590 -2019c-11,-7 -24,-16 -41,-30 -31,-26 -61,-67 -84,-74 -23,-7 -36,-11 -48,-25 -12,-15 -25,-11 -38,-15 -13,-3 -29,-25 -60,-30 -30,-5 -38,-7 -59,-14 -21,-7 -44,-5 -65,-12 -21,-7 -43,-4 -43,-4l-12 -17 448 -10c0,0 10,27 40,35 31,9 28,38 54,39 7,0 15,2 24,5l-116 152z"/>
  <g id="_2478937500272">
   <path class="fil0" d="M1830 5937l-114 235 -934 -215 -12 -468 -397 10 -11 -577 -38 -489 -13 -143 367 -222 -226 -389 418 -315 -12 -23 -434 327 226 389 -342 206 -110 -1185 24 -172 2498 -66 1 48c-24,63 112,20 97,86 -7,20 17,32 53,43l-569 745 -161 587 19 572 139 287 1103 1248 455 211 349 23 214 75 283 316 88 680 -140 408 -109 66c-11,-2 -21,-5 -31,-8 -154,-51 -336,-200 -389,-251 -54,-51 -185,-186 -234,-240 -49,-54 -311,-193 -456,-204 -98,-8 -331,19 -473,37l-119 -15 -413 250 -325 170 -220 -140 209 -119c144,-273 171,-331 344,-500 0,0 259,-11 421,-15l1052 -28 -2 -44 -1567 35 -155 4 -5 -178 -395 10 -21 -782 114 -256 -47 -24z"/>
   <path class="fil0" d="M3017 2825l-229 6c-82,2 13,71 110,150l119 -156z"/>
   <path class="fil0" d="M2947 2917c-9,-3 -17,-5 -24,-5 -26,-1 -23,-30 -54,-39 -30,-8 -40,-35 -40,-35l-69 2 -2 -24 271 -7 -82 108z"/>
   <polygon class="fil0" points="3000,2459 276,2522 353,1980 2158,1932 2567,2160 "/>
   <polygon class="fil0" points="291,2415 2840,2348 3002,2460 3035,2730 237,2804 "/>
   <path class="fil0" d="M1774 8027l0 0c16,-21 31,-5 60,-47 30,-41 30,-58 64,-53 34,6 54,-22 82,-12 27,10 54,-25 78,-23 24,3 109,-33 109,-33 0,0 2,-1 4,-2l49 71 -131 80 -315 19z"/>
   <polygon class="fil0" points="1363,7426 1521,7422 1525,7570 1367,7574 "/>
   <polygon class="fil0" points="1358,7240 1516,7235 1520,7384 1362,7388 "/>
   <path class="fil0" d="M1785 7042l158 -4 4 148c-53,2 -105,3 -158,4l-4 -148z"/>
   <path class="fil0" d="M1979 7037l159 -4 4 148c-53,1 -106,3 -159,4l-4 -148z"/>
   <polygon class="fil0" points="1343,6681 1509,6677 1447,6827 1347,6829 "/>
   <polygon class="fil0" points="1565,6675 1696,6672 1700,6820 1521,6825 1520,6778 "/>
   <polygon class="fil0" points="1512,6490 1517,6490 1596,6488 1530,6638 1521,6639 1518,6639 1516,6639 1516,6639 1342,6643 1338,6495 "/>
   <polygon class="fil0" points="1648,6487 1691,6486 1695,6634 1582,6637 "/>
   <polygon class="fil0" points="1507,6304 1557,6303 1678,6300 1613,6450 1561,6451 1557,6451 1513,6452 1511,6452 1337,6457 1333,6309 "/>
   <polygon class="fil0" points="1690,6448 1664,6448 1689,6394 "/>
   <polygon class="fil0" points="1542,6862 1701,6858 1705,7006 1546,7010 "/>
   <path class="fil0" d="M1547 7048l159 -4 3 148c-52,2 -105,3 -158,5l-4 -149z"/>
   <polygon class="fil0" points="1552,7234 1710,7230 1714,7379 1556,7383 "/>
   <polygon class="fil0" points="1557,7421 1715,7416 1719,7565 1561,7569 "/>
   <polygon class="fil0" points="1164,7245 1306,7241 1309,7389 1168,7393 "/>
   <polygon class="fil0" points="1169,7431 1310,7427 1314,7575 1173,7579 "/>
   <polygon class="fil0" points="995,7435 1137,7432 1141,7580 999,7584 "/>
   <polygon class="fil0" points="990,7249 1132,7245 1136,7394 994,7397 "/>
   <polygon class="fil0" points="816,7254 958,7250 962,7398 820,7402 "/>
   <polygon class="fil0" points="821,7440 963,7436 967,7584 825,7588 "/>
   <polygon class="fil0" points="976,6691 1117,6687 1121,6835 979,6839 "/>
   <polygon class="fil0" points="1149,6686 1291,6682 1295,6831 1153,6834 "/>
   <polygon class="fil0" points="980,6877 1122,6873 1126,7021 984,7025 "/>
   <polygon class="fil0" points="807,6881 948,6878 952,7026 810,7030 "/>
   <polygon class="fil0" points="1154,6872 1296,6869 1300,7017 1158,7021 "/>
   <path class="fil0" d="M811 7068l142 -4 4 148c-47,1 -94,3 -142,4l-4 -148z"/>
   <path class="fil0" d="M985 7063l142 -4 4 149c-47,1 -95,2 -142,3l-4 -148z"/>
   <path class="fil0" d="M1159 7058l142 -3 4 148c-48,1 -95,3 -142,4l-4 -149z"/>
   <polygon class="fil0" points="1348,6867 1506,6863 1510,7011 1352,7016 "/>
   <path class="fil0" d="M1353 7053l158 -4 4 149c-53,1 -105,2 -158,4l-4 -149z"/>
   <path class="fil0" d="M628 6700c47,-1 94,-3 141,-4l4 148 -141 4 -4 -148z"/>
   <path class="fil0" d="M623 6514c47,-2 94,-3 142,-4l4 148 -142 4 -4 -148z"/>
   <polygon class="fil0" points="618,6327 760,6324 764,6472 622,6476 "/>
   <polygon class="fil0" points="613,6141 755,6138 759,6286 617,6290 "/>
   <polygon class="fil0" points="608,5955 750,5951 754,6100 612,6103 "/>
   <polygon class="fil0" points="604,5769 745,5765 749,5914 607,5917 "/>
   <polygon class="fil0" points="792,6323 934,6319 937,6468 796,6471 "/>
   <polygon class="fil0" points="797,6509 938,6505 942,6654 801,6657 "/>
   <polygon class="fil0" points="971,6505 1112,6501 1116,6649 975,6653 "/>
   <polygon class="fil0" points="1144,6500 1286,6496 1290,6645 1148,6648 "/>
   <polygon class="fil0" points="802,6695 943,6692 947,6840 806,6844 "/>
   <polygon class="fil0" points="966,6318 1107,6315 1111,6463 970,6467 "/>
   <polygon class="fil0" points="1140,6314 1281,6310 1285,6458 1143,6462 "/>
   <polygon class="fil0" points="599,5583 740,5579 744,5727 603,5731 "/>
   <polygon class="fil0" points="826,7626 968,7622 972,7771 830,7774 "/>
   <polygon class="fil0" points="1000,7621 1142,7618 1145,7766 1004,7770 "/>
   <polygon class="fil0" points="1174,7617 1315,7613 1319,7762 1178,7765 "/>
   <polygon class="fil0" points="1368,7612 1526,7608 1530,7756 1371,7760 "/>
   <polygon class="fil0" points="1562,7607 1720,7603 1724,7751 1566,7755 "/>
   <path class="fil0" d="M785 6045l317 72 4 160 -315 8 -6 -240zm350 79l516 117 0 22 -512 13 -4 -152z"/>
   <path class="fil0" d="M792 6258c70,-28 154,-93 217,-124 7,-26 71,-58 98,-84 30,-26 13,-47 34,-69 8,-20 39,-16 55,-30 16,-9 37,-21 63,-28 38,-11 88,-7 116,-22 48,-42 102,-87 116,-123 7,-17 -40,-37 -42,-63 0,-19 53,-44 57,-68 1,-20 -15,-39 -30,-59 -5,-24 27,-44 38,-64 24,-22 55,-10 78,-11 42,-7 58,-7 100,-14 22,-17 40,-51 57,-132 -4,-46 2,-111 -13,-131 -12,-13 -33,-25 -45,-39 15,-18 50,-48 64,-66 1,-16 6,-35 7,-52 21,-25 51,-61 71,-86 25,-21 52,-46 72,-73 19,-26 51,-70 64,-73 52,1 70,2 119,-9 13,-3 38,-8 69,-14l0 11c-29,2 -56,5 -79,8 -120,14 -288,259 -297,335 -9,77 19,328 -79,330 -98,3 -218,17 -206,82 13,66 -29,132 -29,132 0,0 128,79 31,123 -98,44 -237,89 -290,127 -52,39 -135,169 -176,170 -42,1 -240,116 -240,116z"/>
   <path class="fil0" d="M792 6258c70,-28 154,-93 217,-124 7,-26 71,-58 98,-84 30,-26 13,-47 33,-69 9,-20 40,-16 56,-30 16,-9 37,-21 63,-28 38,-11 88,-7 115,-22 49,-42 103,-87 116,-123 8,-17 -40,-37 -41,-63 0,-19 53,-44 57,-68 0,-20 -15,-39 -30,-59 -5,-24 27,-44 38,-64 24,-22 55,-10 78,-11 42,-7 58,-7 100,-14 22,-17 40,-51 57,-132 -4,-46 2,-111 -13,-131 -12,-13 -34,-25 -46,-39 16,-18 51,-48 65,-66 1,-16 5,-35 7,-52 20,-25 51,-61 71,-86 25,-21 52,-46 72,-73 19,-26 51,-70 64,-73 52,1 70,2 119,-9 12,-3 37,-8 69,-14l0 11c-29,2 -56,5 -79,8 -120,14 -289,259 -297,335 -9,77 19,328 -79,330 -99,3 -218,17 -206,82 13,66 -29,132 -29,132 0,0 128,79 31,123 -98,44 -237,89 -290,127 -52,39 -135,169 -177,170 -41,1 -239,116 -239,116z"/>
   <path class="fil1 str0" d="M792 6258c70,-28 154,-93 217,-124 7,-26 71,-58 98,-84 30,-26 13,-47 33,-69 9,-20 40,-16 56,-30 16,-9 37,-21 63,-28 38,-11 88,-7 115,-22 49,-42 103,-87 116,-123 8,-17 -40,-37 -41,-63 0,-19 53,-44 57,-68 0,-20 -15,-39 -30,-59 -5,-24 27,-44 38,-64 24,-22 55,-10 78,-11 42,-7 58,-7 100,-14 22,-17 40,-51 57,-132 -4,-46 2,-111 -13,-131 -12,-13 -34,-25 -46,-39 16,-18 51,-48 65,-66 1,-16 5,-35 7,-52 20,-25 51,-61 71,-86 25,-21 52,-46 72,-73 19,-26 51,-70 64,-73 52,1 70,2 119,-9 12,-3 37,-8 69,-14m0 11c-29,2 -56,5 -79,8 -120,14 -289,259 -297,335 -9,77 19,328 -79,330 -99,3 -218,17 -206,82 13,66 -29,132 -29,132 0,0 128,79 31,123 -98,44 -237,89 -290,127 -52,39 -135,169 -177,170 -41,1 -239,116 -239,116"/>
   <line class="fil1 str0" x1="1149" y1="5862" x2="1682" y2= "5211" />
   <polygon class="fil0" points="847,5400 848,5435 1084,5429 1087,5539 1104,6146 1136,6143 1119,5538 1115,5393 "/>
   <path class="fil0" d="M337 4555c38,14 69,37 121,33 47,5 54,-32 128,-34 44,9 59,36 93,43 26,11 65,4 95,21 32,24 58,83 92,80 24,-1 40,-2 79,-3 37,3 59,26 99,25 32,-3 54,-20 65,-30 -24,-2 -50,-1 -79,-7 -16,-8 -34,-31 -58,-40 -39,-9 -85,-5 -114,-26 -28,-22 -18,-44 -50,-57 -66,-25 -26,-94 -68,-92 -52,1 -82,53 -124,56 -40,2 -40,-16 -61,-20 -64,17 -54,55 -101,58 -35,5 -91,-17 -117,-7zm1432 96c1,32 16,45 65,44 35,2 72,-7 91,-45 0,-24 -19,-28 -37,-39 -25,-2 -46,-6 -73,0 -24,4 -45,19 -46,40zm-591 488c1,13 36,55 56,54 20,0 23,-15 29,-34 -4,-12 -3,-23 -10,-33 -15,-16 -21,-24 -38,-24 -21,3 -38,17 -37,37zm49 115c-11,-13 -17,-29 -35,-30 -10,2 -17,9 -29,23 -9,11 -15,2 -23,3 -14,10 -27,34 -27,58 2,22 19,29 22,46 4,21 -3,40 7,38 38,-2 10,-54 44,-96 12,-2 22,-4 30,-10 8,-10 10,-19 11,-32zm67 52c25,4 41,2 65,-17 13,-17 22,-32 11,-51 -9,-13 -23,-18 -48,-16 -13,1 -34,15 -40,37 -4,15 1,36 12,47zm-436 287c12,21 32,39 46,61 5,13 2,31 14,37 12,5 23,-6 37,-5 29,3 66,22 107,24 14,2 23,0 27,-5 2,-8 -48,-22 -81,-27 -24,-4 -51,-20 -76,-18 -8,-19 -28,-43 -49,-72 -8,-11 -33,-9 -25,5z"/>
   <path class="fil2" d="M1823 7396c3,0 6,-1 8,-4 2,-2 3,-6 3,-11l-1 -39 -7 1 1 38c0,5 -2,7 -5,7 -2,0 -4,-1 -5,-3l-4 6c2,3 6,5 10,5zm19 -1l8 0 0 -10 -9 0 1 10zm29 -1l7 0 -1 -37 10 24 0 0 10 -24 1 36 7 0 -1 -52 -8 0 -9 23 -10 -23 -8 0 2 53zm41 -1l9 0 0 -10 -9 0 0 10zm45 0c5,-1 8,-3 11,-6l-4 -6c-2,2 -4,4 -7,4 -5,0 -10,-6 -10,-19l0 0c-1,-13 4,-20 9,-20 3,0 5,2 7,4l4 -7c-3,-3 -6,-5 -11,-4 -10,0 -17,9 -17,26l0 2c1,17 8,26 18,26zm29 -1c8,0 14,-8 13,-21l0 -1c0,-12 -6,-20 -14,-20 -8,1 -13,9 -13,21l0 1c0,13 6,20 14,20zm0 -7c-4,0 -7,-5 -7,-13l0 -1c0,-8 2,-14 6,-14 4,0 7,6 7,14l0 0c0,8 -2,14 -6,14zm20 6l7 -1 -1 -53 -8 0 2 54zm27 0c8,-1 13,-8 13,-21l0 -1c0,-12 -6,-20 -14,-20 -8,0 -14,8 -14,21l1 1c0,12 6,20 14,20zm0 -7c-4,0 -7,-5 -7,-13l0 -1c-1,-8 2,-14 6,-14 4,0 7,5 7,13l0 1c0,8 -2,14 -6,14zm19 5l7 0 0 -26c0,-5 2,-8 5,-8 3,0 4,3 5,8l0 26 7 0 0 -26c0,-5 2,-8 5,-8 3,0 5,2 5,7l0 27 7 -1 0 -28c-1,-8 -5,-12 -10,-12 -4,0 -7,3 -9,6 -1,-4 -4,-6 -8,-6 -3,0 -6,3 -8,7l0 -6 -7 0 1 40zm64 0c6,-1 11,-7 11,-21l0 -2c-1,-13 -6,-19 -12,-19 -4,0 -7,4 -9,7l0 -20 -7 0 1 54 7 0 0 -6c2,3 5,7 9,7zm-2 -8c-4,0 -7,-4 -7,-12l0 -2c0,-8 2,-13 6,-13 3,0 6,5 6,13l0 1c1,9 -2,13 -5,13zm31 7c8,0 14,-8 14,-21l0 -1c-1,-12 -7,-20 -15,-20 -8,0 -13,8 -13,21l0 1c1,12 6,20 14,20zm0 -7c-4,0 -6,-5 -7,-13l0 -1c0,-8 3,-14 7,-14 4,0 6,5 7,13l0 1c0,8 -3,14 -7,14z"/>
   <path class="fil2" d="M1822 7619l8 0 -1 -19 5 0c0,0 0,0 1,0l8 18 9 0 -10 -21c5,-2 8,-7 8,-15l0 0c0,-5 -2,-9 -5,-12 -2,-3 -6,-4 -11,-4l-13 0 1 53zm7 -26l-1 -20 5 0c6,0 9,3 9,10 0,5 -2,9 -9,9l-4 1zm27 -21l7 0 0 -8 -8 0 1 8zm1 46l7 0 -1 -40 -7 0 1 40zm22 0l7 0 9 -41 -7 0 -5 29 -8 -29 -7 1 11 40zm30 -1c3,0 6,-2 8,-5l0 4 7 0 -1 -26c0,-5 -1,-8 -4,-11 -2,-2 -5,-3 -9,-3 -4,0 -7,2 -10,3l3 7c1,-1 4,-3 6,-3 4,0 7,3 7,8l0 2c-2,-1 -4,-1 -7,-1 -6,0 -10,4 -10,13l0 1c0,7 5,12 10,11zm2 -6c-3,0 -5,-2 -5,-6l0 -1c0,-4 2,-6 5,-7 2,0 4,1 5,2l1 5c0,4 -3,7 -6,7zm29 6c5,0 7,-4 9,-7l0 6 7 -1 -1 -53 -7 0 0 19c-2,-3 -4,-6 -9,-6 -6,0 -11,6 -10,20l0 2c0,14 6,20 11,20zm2 -8c-3,0 -6,-4 -6,-12l0 -2c0,-8 2,-13 6,-13 3,0 6,5 7,13l0 1c0,8 -3,13 -7,13zm29 7c3,0 6,-2 8,-6l0 5 7 0 -1 -26c0,-5 -1,-9 -4,-11 -2,-2 -5,-4 -9,-4 -4,1 -7,2 -10,4l3 6c1,-1 3,-2 6,-2 4,0 7,2 7,7l0 2c-2,0 -4,-1 -7,-1 -6,0 -10,5 -10,13l0 1c0,7 4,12 10,12zm2 -6c-3,-1 -5,-3 -5,-7l0 0c0,-4 2,-7 5,-7 2,0 4,0 5,1l0 5c1,4 -2,8 -5,8zm27 5l7 -1 9 -40 -7 0 -5 29 -8 -29 -7 0 11 41zm21 -47l7 0 0 -8 -7 0 0 8zm1 46l8 0 -2 -41 -7 1 1 40zm22 0c4,0 7,-2 8,-6l0 5 7 0 0 -26c0,-5 -2,-9 -4,-11 -2,-2 -5,-4 -9,-3 -4,0 -7,1 -10,3l2 6c2,-1 4,-2 7,-2 4,0 7,2 7,7l0 3c-2,-1 -4,-2 -7,-2 -6,0 -10,5 -10,13l0 1c0,7 4,12 9,12zm2 -6c-2,0 -4,-3 -4,-7l0 0c0,-4 2,-7 5,-7 2,0 4,0 5,1l0 5c0,4 -2,8 -6,8z"/>
   <path class="fil0" d="M1597 8037c181,-135 356,-262 363,-262l76 6 121 185 -68 42 -492 29z"/>
   <path class="fil0" d="M2802 2912c0,0 -35,6 -144,8 -109,3 -5,148 20,278 4,20 8,38 11,56l199 -260c-46,-48 -86,-82 -86,-82z"/>
   <polygon class="fil0" points="1826,7799 2115,7992 2089,8008 2053,8010 1799,7844 "/>
   <polygon class="fil0" points="2424,7340 2589,7207 1790,7228 1803,7736 2008,7641 2010,7701 1832,7781 1839,7809 1899,7846 1923,7820 2025,7779 2108,7713 2140,7650 2297,7455 "/>
   <polygon class="fil0" points="1805,7878 2016,8012 2089,8008 2134,7980 1816,7784 "/>
   <polygon class="fil0" points="1847,6010 3369,6417 3306,6347 1839,5956 "/>
   <polygon class="fil0" points="3449,7156 3673,6582 3710,6599 3493,7155 "/>
   <path class="fil2" d="M1705 5503l2 -9 -14 -7 4 -17 16 -1 2 -9 -70 3 -2 9 62 31zm-21 -20l-25 -12 28 -1 -3 13zm-4 -45c1,-6 -3,-11 -12,-13l-1 0c-8,-2 -14,1 -15,7 -2,5 3,10 11,12l1 0c9,2 15,-1 16,-6zm8 11l4 -18 -5 -1 -4 18 5 1zm-13 -12c0,2 -5,3 -10,2l-1 0c-5,-1 -8,-4 -7,-6 0,-3 4,-4 9,-3l1 0c5,2 9,4 8,7zm56 -46c1,-6 0,-12 -2,-17l-32 -7 -4 18 9 2 2 -9 17 4c1,1 1,4 1,6 -2,8 -11,13 -27,9l-1 0c-15,-3 -22,-11 -21,-19 1,-5 4,-7 7,-8l-7 -7c-5,3 -8,7 -9,13 -3,13 7,26 28,30l1 1c21,4 35,-3 38,-16zm4 -22l2 -9 -14 -7 4 -17 16 0 2 -10 -70 3 -2 9 62 31zm-21 -20l-25 -12 28 -1 -3 13zm32 -30l2 -9 -65 -14 -2 9 65 14zm7 -28l2 -9 -56 -13 2 -12 -9 -2 -8 33 10 2 3 -11 56 12zm5 -25l2 -9 -14 -7 4 -17 16 -1 2 -9 -70 3 -2 9 62 31zm-20 -20l-25 -12 28 -1 -3 13zm32 -30l2 -9 -44 -9 48 -11 2 -8 -66 -14 -2 9 42 9 -46 10 -2 9 66 14z"/>
   <polygon class="fil0" points="1824,7963 1914,8018 2076,8008 1901,7902 "/>
   <polyline class="fil1 str1" points="1752,8021 1809,8007 1834,8023 "/>
   <polyline class="fil1 str1" points="1767,7978 1827,7971 1904,8019 "/>
   <path class="fil3" d="M3322 6383l-2 11 -28 -6 2 -11 28 6zm27 13l6 6 -7 -1 1 -5z"/>
   <path class="fil3" d="M1743 6163l10 4 -12 26 -10 -4 12 -26zm24 -53l10 5 -12 26 -10 -5 12 -26zm25 -52l10 5 -12 26 -11 -5 13 -26zm24 -52l10 4 -12 26 -10 -4 12 -26zm27 -32l-5 10 -10 -5 5 -10 7 -3 3 8zm-10 -5l2 -4 5 1 -7 3zm24 2l-3 11 -17 -5 3 -11 17 5zm55 16l-3 11 -28 -8 3 -11 28 8zm56 16l-3 10 -28 -8 3 -10 28 8zm55 15l-3 11 -27 -8 3 -11 27 8zm56 16l-3 11 -28 -8 3 -11 28 8zm56 16l-3 10 -28 -8 3 -10 28 8zm55 15l-3 11 -28 -8 3 -11 28 8zm56 16l-3 11 -28 -8 3 -11 28 8zm55 16l-3 10 -28 -7 3 -11 28 8zm56 15l-3 11 -28 -8 3 -10 28 7zm55 16l-3 11 -27 -8 3 -11 27 8zm56 16l-3 11 -28 -8 3 -11 28 8zm49 25l-24 -7 3 -10 24 6 -3 11z"/>
   <polygon class="fil0" points="836,7998 977,7995 980,8075 838,8083 "/>
   <polygon class="fil0" points="647,7444 789,7441 793,7589 651,7593 "/>
   <polygon class="fil0" points="643,7258 784,7255 788,7403 646,7407 "/>
   <path class="fil0" d="M638 7072c47,-1 94,-2 141,-4l4 149 -141 3 -4 -148z"/>
   <path class="fil0" d="M633 6886l141 -4 4 149c-47,1 -94,2 -141,3l-4 -148z"/>
   <path class="fil0" d="M652 7631c47,-2 95,-3 142,-4l4 148 -142 4 -4 -148z"/>
   <path class="fil0" d="M1567 7793l154 -4 0 16 -108 121 -42 1c-2,-49 -3,-85 -4,-134z"/>
   <path class="fil0" d="M1372 7798l159 -4 3 136c-53,1 -105,2 -158,4l-4 -136z"/>
   <path class="fil0" d="M1179 7803l141 -4 4 136c-47,1 -95,3 -142,4l-3 -136z"/>
   <path class="fil0" d="M1005 7808l141 -4 4 136c-47,1 -94,2 -142,3l-3 -135z"/>
   <path class="fil0" d="M831 7812l142 -4 3 136c-47,1 -94,3 -141,4l-4 -136z"/>
   <polygon class="fil0" points="657,7817 799,7813 802,7949 661,7952 "/>
   <polygon class="fil0" points="1010,7994 1151,7990 1153,8064 1012,8073 "/>
   <polygon class="fil0" points="1183,7989 1325,7986 1327,8054 1185,8062 "/>
   <path class="fil0" d="M1378 7984c53,-1 107,-4 160,-5l1 18 -56 47 -103 7c-1,-21 -2,-42 -2,-67z"/>
   <polygon class="fil0" points="1650,7886 1711,7933 1603,8006 1563,8039 1459,8046 "/>
   <polygon class="fil0" points="2649,3307 204,3136 198,3078 541,640 947,299 1522,1261 1909,1793 2567,2160 3002,2460 3042,2791 "/>
  </g>
  <path class="fil1 str2" d="M362 4922l-38 -489 -126 -1355 343 -2438 406 -341 575 962 387 532 658 367 435 300 40 331 -740 971 -161 587 19 572 139 287 1103 1248 455 211c116,8 233,16 349,23 616,188 781,991 400,1451 -243,292 -315,124 -599,-52l-612 -464 -555 -71 -751 454 -1669 101 -58 -3187z"/>
 </g>
</svg>
