<?xml version="1.0" encoding="UTF-8"?>
<!DOCTYPE svg PUBLIC "-//W3C//DTD SVG 1.1//EN" "http://www.w3.org/Graphics/SVG/1.1/DTD/svg11.dtd">
<!-- Creator: CorelDRAW X7 -->
<svg xmlns="http://www.w3.org/2000/svg" xml:space="preserve" width="40.371mm" height="70.1758mm" version="1.1" style="shape-rendering:geometricPrecision; text-rendering:geometricPrecision; image-rendering:optimizeQuality; fill-rule:evenodd; clip-rule:evenodd"
viewBox="0 0 10558 18352"
 xmlns:xlink="http://www.w3.org/1999/xlink">
 <defs>
  <style type="text/css">
   <![CDATA[
    .str2 {stroke:white;stroke-width:1307.57}
    .str1 {stroke:#FEFEFE;stroke-width:8.62997}
    .str0 {stroke:#373435;stroke-width:18.4891}
    .fil2 {fill:none}
    .fil0 {fill:#BFEAF5}
    .fil1 {fill:white}
    .fil3 {fill:#BFEAF5;fill-rule:nonzero}
   ]]>
  </style>
 </defs>
 <g id="Capa_x0020_1">
  <metadata id="CorelCorpID_0Corel-Layer"/>
  <g id="_2478646475440">
   <polygon class="fil0" points="468,2623 863,17692 561,17703 165,2576 "/>
   <polygon class="fil0" points="802,16077 849,16076 856,16568 815,16569 "/>
   <polygon class="fil0" points="786,15459 840,15457 847,15950 799,15951 "/>
   <polygon class="fil0" points="770,14841 831,14839 838,15332 782,15333 "/>
   <polygon class="fil0" points="818,16695 858,16694 864,17144 830,17145 "/>
   <polygon class="fil1" points="467,2622 862,17692 561,17703 164,2576 "/>
   <path class="fil0" d="M9772 8743l-416 11 -101 -3843 296 -178 195 2167 26 1843zm-229 -4097l-290 175 -14 -499 -1837 48 23 895 -470 13 -65 -2460 567 -78 -36 -1373 538 -560 1229 -102 355 3941z"/>
   <polygon class="fil0" points="4439,3076 7331,2689 7298,1397 7801,820 4387,1103 "/>
   <polygon class="fil0" points="1964,1674 1857,3602 674,3633 659,2652 "/>
   <polygon class="fil0" points="2440,1317 2828,1232 4268,1113 4320,3115 4225,3117 4236,3540 1980,3599 2095,1576 "/>
   <polygon class="fil0" points="4767,11026 4646,11521 4467,11526 4454,11034 4682,11028 4682,11028 "/>
   <polygon class="fil0" points="7071,9728 7542,9716 7554,10208 7084,10221 "/>
   <polygon class="fil0" points="7088,10346 7558,10334 7571,10826 7101,10839 "/>
   <polygon class="fil0" points="7104,10964 7574,10952 7587,11444 7117,11457 "/>
   <polygon class="fil0" points="7120,11582 7590,11570 7603,12062 7133,12075 "/>
   <path class="fil0" d="M7136 12200c157,-4 314,-8 470,-12l13 492 -470 13 -13 -493z"/>
   <path class="fil0" d="M7152 12818c157,-4 314,-8 470,-12l13 492 -470 13 -13 -493z"/>
   <polygon class="fil0" points="9460,12758 9829,12748 9836,13241 9473,13250 "/>
   <polygon class="fil0" points="8883,12773 9354,12761 9366,13253 8896,13265 "/>
   <polygon class="fil0" points="8306,12788 8777,12776 8789,13268 8319,13280 "/>
   <polygon class="fil0" points="7729,12803 8199,12791 8212,13283 7742,13296 "/>
   <polygon class="fil0" points="9444,12140 9820,12130 9827,12622 9457,12632 "/>
   <polygon class="fil0" points="8867,12155 9337,12143 9350,12635 8880,12647 "/>
   <polygon class="fil0" points="8290,12170 8760,12158 8773,12650 8303,12662 "/>
   <polygon class="fil0" points="7713,12185 8183,12173 8196,12665 7726,12678 "/>
   <polygon class="fil0" points="9428,11522 9811,11512 9818,12004 9441,12014 "/>
   <polygon class="fil0" points="8851,11537 9321,11525 9334,12017 8864,12029 "/>
   <polygon class="fil0" points="8274,11552 8744,11540 8757,12032 8287,12044 "/>
   <polygon class="fil0" points="7697,11567 8167,11555 8180,12047 7710,12060 "/>
   <polygon class="fil0" points="9412,10904 9803,10894 9810,11386 9425,11396 "/>
   <polygon class="fil0" points="8835,10919 9305,10907 9318,11399 8848,11411 "/>
   <polygon class="fil0" points="8258,10934 8728,10922 8741,11414 8271,11426 "/>
   <polygon class="fil0" points="7681,10949 8151,10937 8164,11429 7694,11441 "/>
   <polygon class="fil0" points="9396,10286 9794,10275 9801,10768 9409,10778 "/>
   <polygon class="fil0" points="8819,10301 9289,10289 9302,10781 8832,10793 "/>
   <polygon class="fil0" points="8242,10316 8712,10304 8725,10796 8255,10808 "/>
   <polygon class="fil0" points="7665,10331 8135,10319 8148,10811 7678,10823 "/>
   <polygon class="fil0" points="9379,9668 9785,9657 9792,10150 9392,10160 "/>
   <path class="fil0" d="M8802 9683l471 -12 12 492c-156,4 -313,8 -470,12l-13 -492z"/>
   <path class="fil0" d="M8225 9698l471 -12 12 492c-156,4 -313,8 -470,12l-13 -492z"/>
   <path class="fil0" d="M7648 9713l471 -12 12 492c-156,4 -313,8 -470,13l-13 -493z"/>
   <path class="fil0" d="M7632 9095c157,-4 314,-8 470,-12l13 492 -470 13 -13 -493z"/>
   <path class="fil0" d="M8209 9080c157,-4 314,-8 470,-12l13 492 -470 12 -13 -492z"/>
   <path class="fil0" d="M8786 9065c157,-4 314,-8 470,-12l13 492 -470 12 -13 -492z"/>
   <polygon class="fil0" points="9363,9050 9776,9039 9783,9531 9376,9542 "/>
   <polygon class="fil0" points="7055,9110 7525,9098 7538,9590 7068,9603 "/>
   <polygon class="fil0" points="2889,11567 2416,11580 2403,11087 2815,11077 "/>
   <polygon class="fil0" points="3427,11553 2997,11565 2923,11074 3352,11063 "/>
   <polygon class="fil0" points="4017,11538 3534,11550 3460,11060 3943,11047 "/>
   <polygon class="fil0" points="4360,11529 4125,11535 4051,11044 4348,11036 "/>
   <polygon class="fil0" points="2420,11705 2890,11693 2903,12185 2433,12198 "/>
   <polygon class="fil0" points="2997,11690 3467,11678 3480,12170 3010,12183 "/>
   <polygon class="fil0" points="3574,11675 4044,11663 4057,12155 3587,12168 "/>
   <polygon class="fil0" points="4151,11660 4621,11648 4634,12140 4164,12152 "/>
   <polygon class="fil0" points="2436,12323 2906,12311 2919,12803 2449,12816 "/>
   <path class="fil0" d="M3013 12308c157,-4 313,-8 470,-12l13 492 -470 13 -13 -493z"/>
   <polygon class="fil0" points="3590,12293 4060,12281 4073,12773 3603,12786 "/>
   <polygon class="fil0" points="4167,12278 4637,12266 4650,12758 4180,12770 "/>
   <polygon class="fil0" points="2452,12941 2922,12929 2935,13421 2465,13434 "/>
   <path class="fil0" d="M3029 12926c157,-4 313,-8 470,-12l13 492 -470 13 -13 -493z"/>
   <polygon class="fil0" points="3606,12911 4076,12899 4089,13391 3619,13404 "/>
   <polygon class="fil0" points="4183,12896 4653,12884 4666,13376 4196,13388 "/>
   <polygon class="fil0" points="4760,12881 5230,12869 5243,13361 4773,13373 "/>
   <polygon class="fil0" points="5337,12866 5807,12853 5820,13346 5350,13358 "/>
   <polygon class="fil0" points="5914,12851 6384,12838 6397,13331 5927,13343 "/>
   <path class="fil0" d="M6491 12836c157,-4 314,-9 470,-13l13 493 -470 12 -13 -492z"/>
   <polygon class="fil0" points="4744,12263 5214,12251 5227,12743 4757,12755 "/>
   <polygon class="fil0" points="5321,12248 5791,12235 5804,12728 5334,12740 "/>
   <polygon class="fil0" points="5898,12233 6368,12220 6381,12713 5911,12725 "/>
   <path class="fil0" d="M6475 12218c157,-5 313,-9 470,-13l13 493 -470 12 -13 -492z"/>
   <polygon class="fil0" points="4728,11645 5198,11633 5211,12125 4741,12137 "/>
   <polygon class="fil0" points="5305,11630 5775,11618 5788,12110 5318,12122 "/>
   <polygon class="fil0" points="5882,11615 6352,11602 6365,12095 5895,12107 "/>
   <polygon class="fil0" points="6459,11600 6929,11587 6942,12080 6472,12092 "/>
   <polygon class="fil0" points="5866,10997 6336,10984 6349,11477 5879,11489 "/>
   <polygon class="fil0" points="6443,10982 6913,10969 6926,11462 6456,11474 "/>
   <polygon class="fil0" points="4683,9791 4874,9786 4877,9918 4984,9915 4980,9783 5314,9774 5329,10349 5436,10346 5421,9771 5726,9763 5739,10256 5597,10260 5600,10385 5743,10382 5772,11492 4900,11515 4769,11518 4908,10901 "/>
   <polygon class="fil0" points="2535,9229 3173,9212 3186,9704 2668,9718 "/>
   <polygon class="fil0" points="3225,10322 2819,10332 2807,9840 3212,9829 "/>
   <polygon class="fil0" points="4558,9176 4857,9168 4870,9660 4657,9666 4621,9484 "/>
   <polygon class="fil0" points="4964,9165 5298,9156 5311,9649 4977,9657 "/>
   <polygon class="fil0" points="5405,9153 5710,9145 5723,9638 5418,9646 "/>
   <polygon class="fil0" points="5849,10379 6031,10374 6028,10248 5846,10253 5817,9143 6287,9130 6287,9130 6864,9115 6877,9608 6665,9613 6669,9739 6880,9733 6909,10844 6439,10856 6427,10378 6320,10381 6332,10859 5862,10871 "/>
   <polygon class="fil0" points="816,12984 1191,12974 1204,13467 823,13477 "/>
   <polygon class="fil0" points="1298,12972 1768,12959 1781,13452 1311,13464 "/>
   <polygon class="fil0" points="806,12366 1175,12356 1188,12849 814,12859 "/>
   <polygon class="fil0" points="1282,12354 1752,12341 1765,12834 1295,12846 "/>
   <polygon class="fil0" points="1859,12339 2329,12326 2342,12819 1872,12831 "/>
   <polygon class="fil0" points="1875,12956 2345,12944 2358,13437 1888,13449 "/>
   <polygon class="fil0" points="797,11748 1159,11738 1172,12231 804,12240 "/>
   <polygon class="fil0" points="1266,11736 1736,11723 1749,12216 1278,12228 "/>
   <polygon class="fil0" points="1843,11721 2313,11708 2326,12201 1855,12213 "/>
   <polygon class="fil0" points="1249,11118 2297,11090 2309,11583 1262,11610 "/>
   <polygon class="fil0" points="787,11130 1143,11120 1155,11613 795,11622 "/>
   <polygon class="fil0" points="778,10512 1126,10502 1139,10995 786,11004 "/>
   <polygon class="fil0" points="2796,10951 1246,10992 1233,10500 2721,10461 "/>
   <polygon class="fil0" points="3333,10937 2904,10949 2829,10458 3259,10447 "/>
   <polygon class="fil0" points="3924,10922 3441,10934 3366,10444 3849,10431 "/>
   <polygon class="fil0" points="4331,10419 4344,10911 4032,10919 3957,10428 4095,10425 4095,10425 "/>
   <polygon class="fil0" points="4688,10409 4786,10899 4679,10902 4679,10902 4451,10908 4438,10416 "/>
   <polygon class="fil0" points="3737,9816 3734,9690 3293,9702 3280,9209 4441,9179 4663,10284 4435,10290 4424,9883 4317,9886 4328,10293 4092,10299 4092,10299 3931,10303 3921,9915 3814,9918 3824,10306 3332,10319 3319,9827 "/>
   <polygon class="fil0" points="769,9893 1110,9884 1123,10377 776,10386 "/>
   <polygon class="fil0" points="2713,10335 1230,10374 1217,9882 2700,9843 "/>
   <path class="fil0" d="M759 9275l251 -6 0 0c463,-13 927,-25 1391,-37l134 489c-441,12 -881,23 -1321,35l-7 -268 -107 2 7 269 0 0 -340 9 -8 -493z"/>
   <polygon class="fil0" points="2245,8657 2331,8975 1806,8988 1798,8669 "/>
   <polygon class="fil0" points="1704,8991 755,9016 751,8697 1695,8672 "/>
   <polygon class="fil0" points="1091,8562 749,8571 708,5927 1028,6148 "/>
   <polygon class="fil0" points="2109,8158 2211,8533 1194,8559 1184,8182 "/>
   <polygon class="fil0" points="2015,7814 2087,8078 1182,8102 1175,7836 "/>
   <polygon class="fil0" points="1729,7742 1173,7756 1166,7491 1722,7476 "/>
   <polygon class="fil0" points="1922,7471 1993,7735 1832,7739 1825,7473 "/>
   <polygon class="fil0" points="1848,7202 1900,7391 1164,7410 1159,7220 "/>
   <polygon class="fil0" points="1775,6933 1827,7122 1157,7140 1152,6950 "/>
   <polygon class="fil0" points="1685,6603 1753,6854 1149,6869 1132,6220 "/>
   <polygon class="fil0" points="704,5642 1726,5888 1690,6512 707,5832 "/>
   <polygon class="fil0" points="676,3759 1849,3728 1731,5807 703,5559 "/>
   <polygon class="fil0" points="7519,8839 7048,8851 7038,8465 7508,8453 "/>
   <polygon class="fil0" points="7505,8327 7035,8339 7024,7921 7494,7909 "/>
   <polygon class="fil0" points="7491,7783 7021,7795 7005,7173 7475,7161 "/>
   <polygon class="fil0" points="7471,7035 7001,7047 6989,6600 7460,6588 "/>
   <polygon class="fil0" points="7456,6462 6986,6474 6974,6027 7445,6015 "/>
   <polygon class="fil0" points="7441,5889 6971,5901 6959,5454 7430,5442 "/>
   <polygon class="fil0" points="8096,8824 7625,8836 7615,8450 8085,8437 "/>
   <polygon class="fil0" points="8082,8312 7612,8324 7601,7906 8071,7893 "/>
   <polygon class="fil0" points="8068,7768 7598,7780 7582,7158 8052,7145 "/>
   <polygon class="fil0" points="8048,7020 7578,7032 7566,6585 8037,6572 "/>
   <polygon class="fil0" points="8033,6447 7563,6459 7551,6012 8022,5999 "/>
   <polygon class="fil0" points="8018,5874 7548,5886 7537,5439 8007,5426 "/>
   <polygon class="fil0" points="8003,5301 7533,5313 7513,4547 7983,4535 "/>
   <polygon class="fil0" points="6749,4717 6244,4731 6231,4240 6736,4227 "/>
   <polygon class="fil0" points="6765,5333 6260,5347 6247,4856 6752,4843 "/>
   <polygon class="fil0" points="6780,5906 6275,5920 6263,5472 6768,5459 "/>
   <polygon class="fil0" points="6795,6479 6290,6492 6278,6045 6783,6032 "/>
   <polygon class="fil0" points="6810,7052 6305,7065 6293,6618 6798,6605 "/>
   <polygon class="fil0" points="6827,7695 6322,7708 6308,7191 6813,7178 "/>
   <polygon class="fil0" points="6129,4734 5624,4747 5611,4257 6116,4243 "/>
   <polygon class="fil0" points="6145,5350 5640,5363 5627,4872 6132,4859 "/>
   <polygon class="fil0" points="6160,5923 5655,5936 5643,5488 6148,5475 "/>
   <polygon class="fil0" points="6175,6495 5670,6509 5658,6061 6163,6048 "/>
   <polygon class="fil0" points="6190,7068 5685,7082 5673,6634 6178,6621 "/>
   <polygon class="fil0" points="6207,7711 5702,7725 5688,7207 6193,7194 "/>
   <polygon class="fil0" points="5509,4750 5003,4763 4991,4273 5496,4260 "/>
   <polygon class="fil0" points="5525,5366 5020,5379 5007,4889 5512,4875 "/>
   <polygon class="fil0" points="5540,5939 5035,5952 5023,5505 5528,5491 "/>
   <polygon class="fil0" points="5555,6512 5050,6525 5038,6078 5543,6064 "/>
   <polygon class="fil0" points="5570,7085 5065,7098 5053,6651 5558,6637 "/>
   <polygon class="fil0" points="5587,7728 5081,7741 5068,7224 5573,7210 "/>
   <polygon class="fil0" points="4888,4766 4383,4779 4370,4289 4876,4276 "/>
   <polygon class="fil0" points="4905,5382 4399,5395 4387,4905 4892,4892 "/>
   <polygon class="fil0" points="4920,5955 4414,5968 4403,5521 4908,5508 "/>
   <polygon class="fil0" points="4935,6528 4429,6541 4418,6094 4923,6081 "/>
   <polygon class="fil0" points="4950,7101 4444,7114 4433,6667 4938,6654 "/>
   <polygon class="fil0" points="4966,7744 4461,7757 4448,7240 4953,7227 "/>
   <polygon class="fil0" points="4342,3211 6702,2906 6733,4101 4367,4163 "/>
   <polygon class="fil0" points="4346,7760 4204,7764 4199,7586 4342,7582 "/>
   <polygon class="fil0" points="4368,8605 4674,8597 4683,8913 4479,8918 "/>
   <polygon class="fil0" points="4080,8104 4069,8108 4357,8921 3251,8950 3243,8634 3733,8621 3730,8496 3240,8509 3237,8407 3227,8028 3576,8019 3572,7894 3224,7903 3216,7612 4069,7590 4071,7689 4069,7689 "/>
   <polygon class="fil0" points="4656,7878 4671,8471 4324,8480 4193,8111 4194,8111 4188,7890 "/>
   <polygon class="fil0" points="6857,8856 4801,8910 4774,7875 6830,7821 "/>
   <polygon class="fil0" points="4303,6097 4338,7457 2069,7516 1810,6568 1834,6162 "/>
   <polygon class="fil0" points="3136,8953 2465,8971 2103,7641 3101,7615 "/>
   <polygon class="fil0" points="4239,3666 4284,5398 3906,5408 3909,5534 4288,5524 4299,5971 1841,6036 1972,3725 "/>
   <polygon class="fil0" points="9250,8793 8202,8821 8178,7879 9225,7852 "/>
   <polygon class="fil0" points="8645,7753 8175,7765 8159,7143 8629,7130 "/>
   <polygon class="fil0" points="9222,7738 8752,7750 8736,7128 9206,7115 "/>
   <polygon class="fil0" points="9202,6990 8155,7017 8143,6570 9191,6542 "/>
   <polygon class="fil0" points="9176,5969 9178,6075 9187,6417 8950,6423 8717,6429 8140,6444 8128,5997 8706,5982 8685,5214 9047,5101 9151,5040 "/>
   <polygon class="fil0" points="8595,5859 8125,5871 8120,5682 8590,5670 "/>
   <polygon class="fil0" points="8579,5247 8588,5589 8118,5601 8113,5392 "/>
   <polygon class="fil0" points="8560,4520 8577,5144 8110,5290 8090,4532 "/>
   <polygon class="fil0" points="9137,4505 9149,4937 9045,4999 8683,5111 8667,4517 "/>
   <polygon class="fil0" points="7241,15939 8235,15913 8263,16962 7268,16988 "/>
   <path class="fil0" d="M3106 1713l-84 -104c-25,-36 -78,-51 -117,-50l-128 3c-77,2 -141,-65 -143,-150l-4 -130c0,-14 2,-24 6,-34l886 -73c16,32 35,44 36,82l4 131c2,84 -59,155 -136,157l-127 4c-39,1 -92,18 -115,56l-78 108z"/>
   <path class="fil0" d="M3105 1714l-83 -105c-26,-36 -79,-51 -118,-50l-127 3c-77,2 -142,-65 -144,-150l-3 -130c-1,-14 1,-24 5,-34l886 -73c16,32 36,44 37,82l3 131c2,84 -59,155 -135,157l-128 4c-39,1 -91,18 -114,56l-79 109z"/>
   <path class="fil2 str0" d="M3105 1714l-83 -105c-26,-36 -79,-51 -118,-50l-127 3c-77,2 -142,-65 -144,-150l-3 -130c-1,-14 1,-24 5,-34m886 -73c16,32 36,44 37,82l3 131c2,84 -59,155 -135,157l-128 4c-39,1 -91,18 -114,56l-79 109"/>
   <path class="fil3" d="M2924 1383l33 -1 -4 -160 -33 3 4 158zm88 -166l42 -3c26,8 47,32 49,76l0 2c1,55 -27,91 -64,92 -23,1 -41,-9 -55,-26l16 -35c8,9 19,21 36,20 20,0 34,-19 33,-49l0 -1c-1,-32 -20,-48 -51,-47l-3 0 -3 -29zm113 -9l33 -3 0 9c3,-3 5,-7 8,-10l58 -4c17,12 30,38 31,79l0 1c1,59 -26,99 -61,100 -17,1 -31,-6 -41,-20 -16,-20 -26,-51 -28,-114l0 -4c0,-12 0,-24 0,-34zm68 132c-19,1 -31,-22 -32,-56l0 0c-1,-34 11,-54 29,-55 18,0 31,19 32,54l0 0c1,33 -10,57 -29,57z"/>
   <polygon class="fil0" points="4330,17221 4800,17209 4809,17552 4339,17567 "/>
   <polygon class="fil0" points="4913,17206 5383,17194 5392,17534 4922,17549 "/>
   <polygon class="fil0" points="5495,17191 5965,17178 5974,17515 5504,17530 "/>
   <polygon class="fil0" points="6078,17175 6548,17163 6557,17496 6087,17511 "/>
   <polygon class="fil0" points="6661,17160 7131,17148 7139,17478 6669,17493 "/>
   <polygon class="fil0" points="8409,17114 8879,17102 8887,17422 8417,17437 "/>
   <polygon class="fil0" points="8991,17099 9461,17087 9470,17403 8999,17418 "/>
   <polygon class="fil0" points="9574,17084 9890,17076 9895,17390 9582,17400 "/>
   <polygon class="fil0" points="7826,17130 8296,17117 8304,17441 7834,17456 "/>
   <polygon class="fil0" points="7243,17145 7713,17133 7722,17459 7252,17474 "/>
   <polygon class="fil0" points="9525,15230 9864,15221 9871,15714 9538,15722 "/>
   <polygon class="fil0" points="9509,14612 9855,14603 9862,15095 9522,15104 "/>
   <polygon class="fil0" points="8932,14627 9402,14615 9415,15107 8945,15119 "/>
   <polygon class="fil0" points="8948,15245 9418,15233 9431,15725 8961,15737 "/>
   <polygon class="fil0" points="8371,15260 8841,15248 8854,15740 8384,15752 "/>
   <polygon class="fil0" points="8355,14642 8825,14630 8838,15122 8368,15134 "/>
   <polygon class="fil0" points="7778,14657 8248,14645 8261,15137 7791,15150 "/>
   <polygon class="fil0" points="7794,15275 8264,15263 8277,15755 7807,15768 "/>
   <polygon class="fil0" points="7201,14672 7671,14660 7684,15152 7214,15165 "/>
   <polygon class="fil0" points="7217,15290 7687,15278 7700,15770 7230,15783 "/>
   <polygon class="fil0" points="8376,15878 8846,15866 8859,16358 8389,16371 "/>
   <polygon class="fil0" points="8959,15863 9429,15851 9442,16343 8972,16355 "/>
   <polygon class="fil0" points="9541,15848 9873,15839 9880,16332 9554,16340 "/>
   <path class="fil0" d="M7169 13436l470 -12 13 492c-157,4 -314,9 -471,13l-12 -493z"/>
   <path class="fil0" d="M7185 14054c156,-4 313,-8 470,-12l13 492 -470 13 -13 -493z"/>
   <path class="fil0" d="M7762 14039l470 -12 13 492c-157,4 -314,8 -470,13l-13 -493z"/>
   <path class="fil0" d="M8339 14024l470 -12 13 492c-157,4 -314,8 -470,12l-13 -492z"/>
   <path class="fil0" d="M8916 14009l470 -12 13 492c-157,4 -314,8 -470,12l-13 -492z"/>
   <polygon class="fil0" points="9493,13994 9846,13985 9853,14477 9506,14486 "/>
   <polygon class="fil0" points="9477,13376 9838,13366 9845,13859 9490,13868 "/>
   <polygon class="fil0" points="8900,13391 9370,13379 9383,13871 8912,13883 "/>
   <polygon class="fil0" points="8323,13406 8793,13394 8806,13886 8335,13898 "/>
   <polygon class="fil0" points="7746,13421 8216,13409 8229,13901 7758,13914 "/>
   <polygon class="fil0" points="2468,13559 2938,13547 2951,14039 2481,14052 "/>
   <path class="fil0" d="M3045 13544l470 -12 13 492c-156,4 -313,9 -470,13l-13 -493z"/>
   <polygon class="fil0" points="3622,13529 4092,13517 4105,14009 3635,14022 "/>
   <polygon class="fil0" points="4199,13514 4669,13502 4682,13994 4212,14006 "/>
   <path class="fil0" d="M2484 14177l471 -12 12 492c-156,5 -313,9 -470,13l-13 -493z"/>
   <path class="fil0" d="M3061 14162c157,-4 314,-8 471,-12l12 492 -470 13 -13 -493z"/>
   <path class="fil0" d="M3638 14147l471 -12 12 492c-156,4 -313,8 -470,13l-13 -493z"/>
   <path class="fil0" d="M4215 14132l471 -12 12 492c-156,4 -313,8 -470,12l-13 -492z"/>
   <polygon class="fil0" points="2501,14795 2971,14783 2984,15275 2513,15288 "/>
   <polygon class="fil0" points="3078,14780 3548,14768 3561,15260 3091,15273 "/>
   <polygon class="fil0" points="3655,14765 4125,14753 4138,15245 3668,15258 "/>
   <polygon class="fil0" points="4232,14750 4702,14738 4715,15230 4245,15242 "/>
   <polygon class="fil0" points="2517,15413 2987,15401 3000,15894 2530,15906 "/>
   <polygon class="fil0" points="3094,15398 3564,15386 3577,15878 3107,15891 "/>
   <polygon class="fil0" points="3671,15383 4141,15371 4154,15863 3684,15876 "/>
   <polygon class="fil0" points="4248,15368 4718,15356 4731,15848 4261,15860 "/>
   <polygon class="fil0" points="4825,15353 5295,15341 5308,15833 4838,15845 "/>
   <polygon class="fil0" points="3132,16016 3603,16003 3615,16496 3145,16508 "/>
   <polygon class="fil0" points="3715,16000 4185,15988 4198,16481 3728,16493 "/>
   <polygon class="fil0" points="4298,15985 4768,15973 4781,16465 4311,16478 "/>
   <polygon class="fil0" points="4880,15970 5350,15958 5363,16450 4893,16462 "/>
   <polygon class="fil0" points="5463,15955 5933,15942 5946,16435 5476,16447 "/>
   <polygon class="fil0" points="6046,15939 6516,15927 6529,16419 6058,16432 "/>
   <polygon class="fil0" points="6628,15924 7098,15912 7111,16404 6641,16417 "/>
   <polygon class="fil0" points="5402,15338 5872,15326 5885,15818 5415,15830 "/>
   <polygon class="fil0" points="5979,15323 6449,15310 6462,15803 5992,15815 "/>
   <polygon class="fil0" points="6556,15308 7026,15295 7039,15788 6569,15800 "/>
   <polygon class="fil0" points="4809,14735 5279,14723 5292,15215 4822,15227 "/>
   <polygon class="fil0" points="5386,14720 5856,14708 5869,15200 5399,15212 "/>
   <polygon class="fil0" points="5963,14705 6433,14692 6446,15185 5976,15197 "/>
   <polygon class="fil0" points="6540,14690 7010,14677 7023,15170 6553,15182 "/>
   <path class="fil0" d="M4792 14117l471 -12 13 492c-157,4 -314,8 -471,12l-13 -492z"/>
   <path class="fil0" d="M5370 14102l470 -12 13 492c-157,4 -314,8 -471,12l-12 -492z"/>
   <path class="fil0" d="M5947 14087l470 -13 13 493c-157,4 -314,8 -471,12l-12 -492z"/>
   <path class="fil0" d="M6524 14072c156,-4 313,-9 470,-13l13 493 -471 12 -12 -492z"/>
   <polygon class="fil0" points="4776,13499 5246,13487 5259,13979 4789,13991 "/>
   <polygon class="fil0" points="5353,13484 5823,13472 5836,13964 5366,13976 "/>
   <polygon class="fil0" points="5930,13469 6400,13456 6413,13949 5943,13961 "/>
   <path class="fil0" d="M6507 13454l470 -13 13 493c-156,4 -313,8 -470,12l-13 -492z"/>
   <polygon class="fil0" points="863,16075 1272,16064 1285,16557 870,16568 "/>
   <polygon class="fil0" points="1385,16061 1855,16049 1868,16542 1397,16554 "/>
   <polygon class="fil0" points="853,15457 1256,15446 1269,15939 861,15950 "/>
   <polygon class="fil0" points="1363,15444 1833,15431 1846,15924 1376,15936 "/>
   <polygon class="fil0" points="844,14839 1240,14828 1253,15321 851,15331 "/>
   <polygon class="fil0" points="1347,14826 1817,14813 1830,15306 1359,15318 "/>
   <polygon class="fil0" points="834,14221 1223,14210 1236,14703 842,14713 "/>
   <path class="fil0" d="M1330 14208l470 -13 13 493c-156,4 -313,8 -470,12l-13 -492z"/>
   <polygon class="fil0" points="825,13602 1207,13592 1220,14085 832,14095 "/>
   <polygon class="fil0" points="1314,13590 1784,13577 1797,14070 1327,14082 "/>
   <polygon class="fil0" points="1891,13575 2361,13562 2374,14055 1904,14067 "/>
   <path class="fil0" d="M1907 14193l471 -13 12 493c-156,4 -313,8 -470,12l-13 -492z"/>
   <polygon class="fil0" points="1924,14811 2394,14798 2407,15291 1936,15303 "/>
   <polygon class="fil0" points="1940,15429 2410,15416 2423,15909 1953,15921 "/>
   <polygon class="fil0" points="1967,16046 2437,16034 2450,16526 1980,16539 "/>
   <polygon class="fil0" points="2566,16649 3036,16637 3048,17087 2578,17100 "/>
   <polygon class="fil0" points="3149,16634 3619,16621 3631,17072 3160,17084 "/>
   <polygon class="fil0" points="3731,16618 4201,16606 4213,17057 3743,17069 "/>
   <polygon class="fil0" points="4314,16603 4784,16591 4796,17041 4326,17054 "/>
   <polygon class="fil0" points="4897,16588 5367,16576 5378,17026 4908,17038 "/>
   <polygon class="fil0" points="5479,16573 5949,16560 5961,17011 5491,17023 "/>
   <polygon class="fil0" points="6062,16557 6532,16545 6544,16996 6074,17008 "/>
   <polygon class="fil0" points="6644,16542 7114,16530 7126,16980 6656,16993 "/>
   <polygon class="fil0" points="8392,16496 8862,16484 8874,16935 8404,16947 "/>
   <polygon class="fil0" points="8975,16481 9445,16469 9457,16919 8987,16932 "/>
   <polygon class="fil0" points="9558,16466 9882,16457 9888,16908 9569,16916 "/>
   <polygon class="fil0" points="1401,16680 1871,16667 1883,17118 1413,17130 "/>
   <polygon class="fil0" points="872,16693 1288,16682 1300,17133 879,17144 "/>
   <polygon class="fil0" points="1983,16664 2454,16652 2465,17102 1995,17115 "/>
   <path class="fil0" d="M2586 16030l182 -5 4 174c-6,2 -11,5 -17,9l-169 -178zm146 205c-3,6 -5,12 -7,19l-169 4 -6 -214 182 191zm-6 56c2,7 5,14 8,19l-172 200 -5 -214 169 -5zm33 45c5,4 11,6 17,8l5 174 -182 4 160 -186zm43 -312l182 -4 -160 186c-6,-4 -11,-6 -18,-8l-4 -174zm218 8l6 214 -170 5c-1,-7 -4,-14 -7,-19l171 -200zm7 251l5 215 -182 -191c4,-6 6,-12 7,-19l170 -5zm-30 229l-182 5 -5 -174c6,-2 12,-5 17,-9l170 178z"/>
   <path class="fil0" d="M7810 16053l123 -3 3 109c-11,7 -21,18 -26,31l-97 3 -3 -140zm184 -5l123 -3 4 140 -96 2c-7,-12 -17,-23 -28,-29l-3 -110zm129 203l4 140 -124 4 -3 -110c11,-7 21,-18 27,-31l96 -3zm-180 145l-124 3 -4 -140 96 -2c7,13 17,23 29,30l3 109zm-578 -331l124 -4 3 110c-11,7 -21,18 -27,31l-96 3 -4 -140zm184 -5l124 -4 4 140 -96 3c-7,-13 -17,-23 -29,-30l-3 -109zm130 203l3 140 -124 3 -2 -109c11,-8 20,-18 26,-31l97 -3zm-181 145l-124 3 -3 -140 96 -2c7,12 16,23 28,29l3 110zm-121 101l124 -3 3 110c-12,7 -21,18 -27,31l-96 2 -4 -140zm184 -5l124 -3 3 140 -96 3c-6,-13 -16,-23 -28,-30l-3 -110zm129 204l4 140 -124 3 -3 -110c12,-7 21,-18 27,-31l96 -2zm-180 144l-124 4 -4 -140 97 -3c6,13 16,23 28,30l3 109zm311 -355l124 -3 3 110c-12,7 -21,18 -27,31l-96 3 -4 -141zm184 -4l124 -4 4 140 -97 3c-6,-13 -16,-23 -28,-30l-3 -109zm129 203l4 140 -124 3 -3 -109c12,-8 21,-18 27,-31l96 -3zm-180 145l-124 3 -3 -140 96 -2c6,12 16,23 28,29l3 110z"/>
   <path class="fil0" d="M7809 16053l124 -3 3 109c-12,7 -21,18 -27,31l-96 3 -4 -140zm184 -5l124 -3 4 140 -97 2c-6,-12 -16,-23 -28,-29l-3 -110zm129 203l4 140 -124 4 -3 -110c12,-7 21,-18 27,-31l96 -3zm-180 145l-124 3 -3 -140 96 -2c6,13 16,23 28,29l3 110zm-577 -331l124 -4 3 110c-12,7 -21,18 -27,31l-96 2 -4 -139zm184 -5l124 -4 3 140 -96 3c-6,-13 -16,-23 -28,-30l-3 -109zm129 203l4 140 -124 3 -3 -109c12,-8 21,-18 27,-32l96 -2zm-180 145l-124 3 -4 -140 97 -3c6,13 16,24 28,30l3 110zm-121 101l123 -3 3 110c-11,7 -21,18 -26,31l-97 2 -3 -140zm184 -5l123 -3 4 140 -96 3c-7,-13 -17,-23 -29,-30l-2 -110zm129 204l3 140 -123 3 -3 -110c11,-7 21,-18 27,-31l96 -2zm-181 144l-123 4 -4 -140 96 -3c7,13 17,23 29,30l2 109zm312 -355l124 -3 2 110c-11,7 -20,18 -26,31l-97 3 -3 -141zm184 -4l124 -4 3 140 -96 3c-7,-13 -16,-23 -28,-30l-3 -109zm129 203l4 140 -124 3 -3 -109c12,-8 21,-18 27,-32l96 -2zm-180 145l-124 3 -4 -140 96 -2c7,12 17,23 29,29l3 110z"/>
   <path class="fil2 str1" d="M7809 16053l124 -3 3 109c-12,7 -21,18 -27,31l-96 3 -4 -140m184 -5l124 -3 4 140 -97 2c-6,-12 -16,-23 -28,-29l-3 -110m129 203l4 140 -124 4 -3 -110c12,-7 21,-18 27,-31l96 -3m-180 145l-124 3 -3 -140 96 -2c6,13 16,23 28,29l3 110m-577 -331l124 -4 3 110c-12,7 -21,18 -27,31l-96 2 -4 -139m184 -5l124 -4 3 140 -96 3c-6,-13 -16,-23 -28,-30l-3 -109m129 203l4 140 -124 3 -3 -109c12,-8 21,-18 27,-32l96 -2m-180 145l-124 3 -4 -140 97 -3c6,13 16,24 28,30l3 110m-121 101l123 -3 3 110c-11,7 -21,18 -26,31l-97 2 -3 -140m184 -5l123 -3 4 140 -96 3c-7,-13 -17,-23 -29,-30l-2 -110m129 204l3 140 -123 3 -3 -110c11,-7 21,-18 27,-31l96 -2m-181 144l-123 4 -4 -140 96 -3c7,13 17,23 29,30l2 109m312 -355l124 -3 2 110c-11,7 -20,18 -26,31l-97 3 -3 -141m184 -4l124 -4 3 140 -96 3c-7,-13 -16,-23 -28,-30l-3 -109m129 203l4 140 -124 3 -3 -109c12,-8 21,-18 27,-32l96 -2m-180 145l-124 3 -4 -140 96 -2c7,12 17,23 29,29l3 110"/>
   <polygon class="fil2 str2" points="887,17677 659,2652 2519,1258 9188,705 9746,6900 9895,17390 "/>
  </g>
 </g>
</svg>
