<?xml version="1.0" encoding="UTF-8"?>
<!DOCTYPE svg PUBLIC "-//W3C//DTD SVG 1.1//EN" "http://www.w3.org/Graphics/SVG/1.1/DTD/svg11.dtd">
<!-- Creator: CorelDRAW X7 -->
<svg xmlns="http://www.w3.org/2000/svg" xml:space="preserve" width="81.1168mm" height="89.0246mm" version="1.1" style="shape-rendering:geometricPrecision; text-rendering:geometricPrecision; image-rendering:optimizeQuality; fill-rule:evenodd; clip-rule:evenodd"
viewBox="0 0 3017 3311"
 xmlns:xlink="http://www.w3.org/1999/xlink">
 <defs>
  <style type="text/css">
   <![CDATA[
    .str0 {stroke:white;stroke-width:185.967}
    .fil3 {fill:none;fill-rule:nonzero}
    .fil0 {fill:#BFEAF5}
    .fil2 {fill:#FEFEFE;fill-rule:nonzero}
    .fil1 {fill:#BFEAF5;fill-rule:nonzero}
   ]]>
  </style>
 </defs>
 <g id="Capa_x0020_1">
  <metadata id="CorelCorpID_0Corel-Layer"/>
  <g id="_2478646461200">
   <polygon class="fil0" points="2867,1112 2916,1163 2916,1185 2920,1402 2867,1355 2860,1127 "/>
   <polygon class="fil0" points="2935,1982 2930,1809 2880,1789 2886,1983 "/>
   <polygon class="fil0" points="2930,1789 2880,1769 2878,1734 2883,1663 2927,1680 "/>
   <polygon class="fil0" points="2867,1373 2920,1420 2927,1664 2876,1645 "/>
   <polygon class="fil1" points="2919,1400 2867,1353 2860,1127 2868,1110 2916,1162 "/>
   <polygon class="fil0" points="1553,3166 1554,3223 1642,3221 1640,3163 "/>
   <polygon class="fil0" points="1658,3162 1660,3220 1747,3218 1746,3159 "/>
   <polygon class="fil0" points="1763,3159 1765,3218 1852,3215 1851,3156 "/>
   <polygon class="fil0" points="2294,3227 2310,3139 2464,3134 2454,3238 "/>
   <polygon class="fil0" points="1739,443 2243,469 2193,420 1486,145 1595,851 643,533 427,1948 119,3215 369,3209 1169,3179 1424,911 1676,875 "/>
   <polygon class="fil0" points="2683,886 2876,1091 2880,1081 2875,1069 "/>
   <polygon class="fil0" points="1424,3170 1423,3123 895,3137 897,3189 "/>
   <polygon class="fil0" points="2004,347 1519,360 1500,234 1701,229 "/>
   <polygon class="fil0" points="2454,669 2867,1111 2855,1135 2863,1351 2661,1172 2120,759 2110,757 2114,742 2182,620 2244,515 2384,603 "/>
   <polygon class="fil0" points="894,3102 1422,3088 1361,773 1283,747 850,1394 "/>
   <polygon class="fil0" points="2096,754 1836,697 1831,532 2219,522 2102,736 2101,736 "/>
   <polygon class="fil0" points="1563,645 1786,697 1793,934 1534,872 1528,891 1743,942 1569,1419 1538,1402 1532,1417 1564,1433 1536,1517 1551,1526 1579,1441 1809,1567 1824,2118 1420,2128 1388,782 1595,851 "/>
   <polygon class="fil0" points="1531,434 2190,419 2193,420 2235,461 2223,502 1826,513 1786,514 1787,722 1567,672 "/>
   <polygon class="fil0" points="1391,2129 1454,2127 1419,793 1355,771 "/>
   <polygon class="fil0" points="2217,501 2255,502 2330,551 2229,455 "/>
   <polygon class="fil0" points="2836,3051 2919,3049 2916,2960 2834,2962 "/>
   <polygon class="fil0" points="2482,3098 2479,3131 2921,3114 2920,3086 "/>
   <polygon class="fil0" points="2877,1788 2838,1772 2820,1985 2883,1983 "/>
   <polygon class="fil0" points="2884,1998 2822,2000 2824,2091 2887,2090 "/>
   <polygon class="fil0" points="2863,1762 2805,1739 2817,1638 2870,1658 "/>
   <polygon class="fil0" points="2792,1733 2532,1629 2703,1226 2792,1306 2742,1427 2754,1433 2803,1316 2863,1369 2872,1643 2818,1623 2820,1604 2807,1602 "/>
   <polygon class="fil0" points="2891,2198 2715,2203 2722,2475 2900,2470 "/>
   <polygon class="fil0" points="2888,2105 2825,2106 2827,2185 2890,2183 "/>
   <polygon class="fil0" points="2905,2629 2825,2631 2826,2671 2906,2669 "/>
   <polygon class="fil0" points="2879,2485 2822,2487 2825,2616 2882,2614 "/>
   <polygon class="fil0" points="2900,2485 2893,2485 2896,2614 2904,2614 "/>
   <polygon class="fil0" points="2910,2785 2830,2787 2831,2851 2892,2850 2892,2865 2832,2866 2834,2947 2915,2945 "/>
   <polygon class="fil0" points="2908,2733 2828,2736 2829,2772 2910,2770 "/>
   <polygon class="fil0" points="2907,2684 2827,2686 2828,2721 2908,2719 "/>
   <polygon class="fil0" points="1534,3122 1446,3124 1447,3169 1535,3166 "/>
   <polygon class="fil0" points="1639,3119 1552,3121 1553,3165 1640,3162 "/>
   <polygon class="fil0" points="1744,3116 1657,3118 1658,3161 1745,3158 "/>
   <polygon class="fil0" points="1850,3113 1762,3116 1763,3157 1851,3154 "/>
   <polygon class="fil0" points="1626,3083 1542,3085 1538,2927 1621,2925 "/>
   <polygon class="fil0" points="1529,3086 1445,3088 1441,2929 1525,2927 "/>
   <polygon class="fil0" points="1849,3077 1639,3083 1635,2924 1845,2919 "/>
   <polygon class="fil0" points="1899,3111 1900,3152 2281,3138 2288,3101 "/>
   <polygon class="fil0" points="1898,3076 1968,3074 1964,2916 1894,2918 "/>
   <polygon class="fil0" points="1979,2988 2031,2987 2029,2914 1977,2915 "/>
   <polygon class="fil0" points="2045,2986 2095,2985 2094,2912 2043,2914 "/>
   <polygon class="fil0" points="1982,3074 2033,3072 2031,3002 1980,3003 "/>
   <polygon class="fil0" points="2047,3072 2098,3071 2096,3000 2045,3001 "/>
   <polygon class="fil0" points="2111,3070 2286,3066 2284,2991 2203,2993 2201,2939 2225,2939 2283,2951 2282,2916 2310,2915 2311,2975 2355,2974 2355,2989 2312,2990 2314,3065 2385,3063 2381,2909 2394,2909 2398,3063 2483,3061 2481,2986 2441,2987 2440,2972 2481,2971 2476,2796 2285,2801 2107,2907 "/>
   <polygon class="fil0" points="2284,2964 2225,2953 2213,2953 2213,2978 2285,2976 "/>
   <polygon class="fil0" points="2497,3060 2651,3056 2648,2967 2494,2971 "/>
   <polygon class="fil0" points="2664,3056 2823,3052 2821,2963 2662,2967 "/>
   <polygon class="fil0" points="2310,3137 2317,3100 2467,3096 2464,3131 "/>
   <polygon class="fil0" points="1676,2757 1752,2755 1756,2906 1680,2908 "/>
   <polygon class="fil0" points="1765,2755 1840,2753 1844,2904 1769,2906 "/>
   <polygon class="fil0" points="1441,2914 1434,2667 1838,2657 1840,2738 1765,2740 1765,2739 1751,2740 1751,2740 1676,2742 1663,2743 1663,2758 1667,2909 "/>
   <polygon class="fil0" points="1421,2143 1824,2132 1837,2642 1434,2652 "/>
   <polygon class="fil0" points="2825,1767 2766,1743 2746,1897 2813,1905 "/>
   <polygon class="fil0" points="2687,1711 2634,1690 2546,1898 2649,1896 "/>
   <polygon class="fil0" points="2732,1895 2752,1738 2700,1716 2663,1895 2722,1894 2722,1894 "/>
   <polygon class="fil0" points="2621,1685 2525,1646 2451,1821 2439,1814 2512,1641 1964,1421 1854,1407 1873,2116 2286,2105 2282,1920 2281,1905 2295,1905 2531,1899 "/>
   <polygon class="fil0" points="2300,2105 2485,2100 2481,1915 2295,1920 "/>
   <polygon class="fil0" points="2499,2100 2698,2095 2693,1909 2494,1915 "/>
   <polygon class="fil0" points="2721,1909 2707,1909 2709,1988 2806,1985 2812,1920 "/>
   <polygon class="fil0" points="2520,1624 1973,1404 2130,783 2657,1185 2692,1216 "/>
   <polygon class="fil0" points="1959,1400 1854,1387 1836,711 2115,773 2118,774 "/>
   <polygon class="fil0" points="2581,2478 2708,2475 2705,2372 2579,2376 "/>
   <polygon class="fil0" points="2491,2363 2705,2357 2703,2287 2517,2292 "/>
   <polygon class="fil0" points="2523,2277 2703,2273 2701,2203 2549,2207 "/>
   <polygon class="fil0" points="2811,2107 2712,2109 2714,2188 2813,2185 "/>
   <polygon class="fil0" points="2712,2094 2811,2092 2808,2000 2709,2003 "/>
   <polygon class="fil0" points="2570,2113 2062,2126 2071,2492 2568,2479 2565,2376 2476,2378 2475,2366 "/>
   <polygon class="fil0" points="2280,2788 2282,2787 2476,2781 2472,2640 1887,2655 1893,2903 2095,2897 2095,2897 "/>
   <polygon class="fil0" points="1878,2306 1883,2497 2058,2492 2053,2319 "/>
   <polygon class="fil0" points="2048,2127 1873,2131 1877,2291 2053,2304 "/>
   <polygon class="fil0" points="2699,2109 2585,2112 2555,2192 2701,2188 "/>
   <polygon class="fil0" points="2468,2496 1883,2512 1887,2640 2472,2625 "/>
   <polygon class="fil0" points="2808,2487 2482,2496 2485,2625 2811,2616 "/>
   <polygon class="fil0" points="2646,2871 2492,2875 2494,2956 2648,2952 "/>
   <polygon class="fil0" points="2644,2792 2490,2796 2492,2860 2645,2856 "/>
   <polygon class="fil0" points="2659,2856 2818,2852 2816,2788 2657,2792 "/>
   <polygon class="fil0" points="2661,2952 2820,2948 2818,2867 2659,2871 "/>
   <polygon class="fil0" points="2812,2631 2486,2640 2490,2781 2816,2773 "/>
   <path class="fil1" d="M2513 2854l0 -2 -13 -5 -2 0 0 9 2 0 0 -6 13 4zm0 -14c0,-2 -2,-4 -5,-4l0 0c-4,0 -5,2 -5,4 0,1 1,2 1,3 -3,0 -4,-1 -4,-3 0,-1 0,-2 0,-2l-1 -1c-1,1 -1,2 -1,3 0,3 2,5 8,5l0 0c3,0 5,-1 6,-2 0,0 1,-1 1,-3zm-2 0c0,2 -1,3 -3,3l0 0c-2,0 -3,-1 -3,-2 0,-2 1,-3 3,-3l0 0c1,0 3,1 3,2z"/>
   <path class="fil1" d="M2511 2776l0 -3 -15 1 0 2 1 3 2 -1 -1 -2 13 0zm0 -10c0,-3 -3,-5 -8,-5l0 0c-5,0 -7,2 -7,5 0,3 2,5 7,5l1 0c4,0 7,-2 7,-5zm-2 0c0,1 -2,2 -6,3l0 0c-4,0 -5,-1 -5,-3 0,-1 1,-2 5,-3l0 0c4,0 6,1 6,3zm1 -12c0,-3 -2,-5 -7,-5l0 0c-5,0 -8,2 -8,5 0,3 3,5 8,5l0 0c5,0 7,-2 7,-5zm-2 0c0,1 -1,3 -5,3l0 0c-4,0 -6,-1 -6,-3 0,-1 2,-2 6,-2l0 0c4,-1 5,0 5,2z"/>
   <path class="fil1" d="M1896 2099c0,-2 -2,-4 -5,-4l0 0c-3,0 -4,2 -4,4 0,1 0,1 0,2l-3 0 -1 -6 -2 1 1 7 7 0 0 -1c0,-1 0,-2 0,-2 0,-2 1,-3 2,-3l0 0c2,0 3,1 3,3 0,1 0,1 -1,2l2 1c1,-1 1,-2 1,-4zm0 -11c0,-3 -3,-5 -7,-5l-1 0c-5,0 -7,2 -7,5 0,3 3,5 7,5l1 0c5,0 7,-2 7,-5zm-2 0c0,1 -2,2 -5,2l-1 0c-3,1 -5,0 -5,-2 0,-1 2,-3 5,-3l1 0c3,0 5,1 5,3zm2 -12c0,-3 -3,-5 -8,-5l0 0c-5,0 -7,2 -7,5 0,3 2,5 7,5l1 0c4,0 7,-2 7,-5zm-2 0c0,1 -2,2 -6,3l0 0c-4,0 -5,-1 -5,-3 0,-1 1,-2 5,-3l0 0c4,0 6,1 6,3z"/>
   <path class="fil1" d="M2595 2850l8 -1 0 -2 -5 0 2 -4c2,-3 2,-4 2,-6l0 0c0,-2 -1,-4 -4,-4 -1,0 -3,1 -4,3l2 1c1,-1 1,-1 2,-1 1,-1 2,0 2,2 0,1 0,2 -1,4l-4 6 0 2zm9 -1l8 0 0 -2 -5 0 3 -4c1,-3 2,-4 2,-6l0 0c0,-3 -2,-4 -4,-4 -2,0 -3,1 -4,2l1 2c1,-1 2,-2 3,-2 1,0 1,1 1,2 0,1 0,2 -1,4l-4 6 0 2zm14 0c3,0 5,-3 5,-8l0 0c-1,-6 -2,-8 -5,-8 -3,0 -5,3 -5,8l0 0c1,6 2,8 5,8zm0 -2c-1,0 -2,-2 -2,-6l0 0c0,-4 1,-6 2,-6 1,0 2,2 2,6l0 0c0,4 0,6 -2,6zm11 2c3,0 5,-3 4,-8l0 -1c0,-5 -2,-8 -4,-8 -3,0 -5,3 -5,9l0 0c0,5 2,8 5,8zm0 -2c-1,0 -2,-2 -2,-6l0 0c-1,-5 0,-6 2,-6 1,0 2,1 2,5l0 1c0,4 -1,6 -2,6z"/>
   <path class="fil1" d="M2761 2085l8 0 0 -2 -5 0 2 -4c2,-3 2,-4 2,-6l0 0c0,-2 -1,-4 -4,-4 -1,0 -3,1 -4,3l2 1c1,-1 1,-2 2,-2 1,0 2,1 2,2 0,2 0,3 -1,4l-4 6 0 2zm11 0l2 0 0 -16 -2 0 -2 1 0 2 2 0 0 13zm9 0c3,0 5,-3 4,-8l0 0c0,-6 -1,-8 -4,-8 -3,0 -5,3 -5,8l0 0c0,5 2,8 5,8zm0 -2c-1,0 -2,-2 -2,-6l0 0c-1,-4 0,-6 2,-6 1,0 2,2 2,6l0 0c0,4 -1,6 -2,6zm11 2c3,0 4,-3 4,-8l0 -1c0,-5 -2,-8 -5,-8 -2,0 -4,3 -4,9l0 0c0,5 2,8 5,8zm0 -2c-1,0 -2,-2 -3,-6l0 -1c0,-4 1,-5 3,-5 1,0 2,1 2,5l0 1c0,4 -1,6 -2,6z"/>
   <g>
    <path class="fil0" d="M2149 2197l21 0 -21 0zm28 269l34 -1 0 23 0 -23 -34 1zm-22 -79l20 0 2 79 -2 -79 -20 0zm-3 -80l20 0 2 65 -20 1 -2 -66zm-2 -95l20 -1 2 82 -20 0 20 0 -2 -82 -20 1zm75 276l-1 -24 32 0 -32 0 1 24zm31 -24l-2 -79 20 -1 -20 1 2 79zm-12 -15l-56 1 -2 -64 56 -1 2 64zm30 -79l-20 0 -2 -65 20 -1 2 66zm-90 -63l56 -2 2 66 -56 1 -2 -65zm88 -17l-20 0 -3 -81 20 -1 3 82zm-90 -79l56 -2 2 82 -56 1 -2 -81zm87 -17l-20 1 20 -1zm-88 2l56 -1 -56 1z"/>
   </g>
   <path class="fil2" d="M2162 2195l0 4 -13 0 0 -3 13 -1zm28 269l0 3 -13 0 0 -3 13 0zm21 3l-7 0 0 -4 7 0 1 2 -1 2zm0 -4l1 0 0 2 -1 -2zm2 9l-4 0 0 -7 3 0 1 7zm-4 16l0 -3 4 0 0 3 -4 0zm0 -11l4 0 0 11 -4 0 0 -11zm-13 -10l0 -4 13 0 0 4 -13 0zm-19 -3l5 0 0 3 -5 0 0 -3zm-9 -79l0 4 -13 0 -1 -4 14 0zm9 23l-4 0 0 -14 4 0 0 14zm1 27l-4 0 0 -14 3 0 1 14zm0 27l-3 0 -1 -13 4 -1 0 14zm-4 -20l4 0 0 14 -3 0 -1 -14zm-1 -27l4 0 0 13 -3 0 -1 -13zm0 -27l3 -1 1 14 -4 0 0 -13zm-19 -3l8 0 0 4 -7 0 -1 -4zm12 -80l0 4 -14 0 0 -3 14 -1zm9 23l-4 0 0 -14 3 0 1 14zm1 27l-4 0 0 -14 3 0 1 14zm-4 17l0 -3 4 0 0 3 -2 2 -2 -2zm4 0l0 2 -2 0 2 -2zm-12 2l0 -3 10 0 0 3 -10 0zm0 -165l0 4 -14 0 0 -3 14 -1zm8 23l-3 0 -1 -14 4 0 0 14zm1 27l-4 0 0 -13 4 0 0 13zm1 27l-4 1 0 -14 3 0 1 13zm-22 5l12 0 1 4 -13 0 0 -4zm1 0l0 4 -1 0 0 -4 1 0zm19 3l-5 0 0 -3 5 0 2 1 -2 2zm2 -2l0 2 -2 0 2 -2zm-4 -8l4 0 0 8 -4 1 0 -9zm-1 -27l4 0 0 13 -3 1 -1 -14zm0 -27l3 0 1 13 -4 0 0 -13zm3 -19l0 5 -4 0 0 -5 2 -2 2 2zm-2 -2l2 0 0 2 -2 -2zm-9 4l0 -4 9 0 0 4 -9 0zm62 261l3 0 1 14 -4 0 0 -14zm19 -12l0 4 -14 0 0 -3 14 -1zm14 3l0 0 0 -3 0 0 0 3zm-13 1l0 -4 13 0 0 3 -13 1zm-19 -3l5 0 0 3 -5 0 -1 -2 1 -1zm-1 1l0 -1 1 0 -1 1zm3 9l-3 0 0 -9 3 0 0 9zm-3 15l0 -1 4 0 0 1 -4 0zm31 -38l4 0 0 14 -4 0 0 -14zm-1 -27l4 0 0 13 -3 0 -1 -13zm-1 -27l4 -1 0 14 -3 0 -1 -13zm18 -14l0 4 -13 0 0 -3 13 -1zm-16 1l10 0 0 3 -10 0 -2 -1 2 -2zm-2 2l0 -2 2 0 -2 2zm4 3l-4 0 0 -3 4 0 0 3zm1 27l-4 1 0 -14 3 0 1 13zm0 28l-3 0 -1 -14 4 0 0 14zm-3 21l0 -8 4 0 0 8 -4 0zm-24 -13l0 -4 14 0 0 3 -14 1zm-27 1l0 -4 14 0 0 3 -14 1zm-15 -4l1 0 0 4 -1 0 -2 -2 2 -2zm0 4l-2 0 0 -2 2 2zm-2 -14l4 0 0 12 -4 0 0 -12zm-1 -27l4 -1 0 14 -3 0 -1 -13zm3 -25l0 11 -3 0 0 -11 1 -1 2 1zm-3 0l-1 -1 2 0 -1 1zm4 -2l0 4 -3 0 0 -3 3 -1zm28 0l0 3 -14 1 0 -4 14 0zm25 3l-12 0 0 -4 12 0 2 2 -2 2zm0 -4l2 0 0 2 -2 -2zm2 4l-4 0 0 -2 4 0 0 2zm1 27l-4 0 0 -14 3 0 1 14zm0 27l-3 0 -1 -13 4 0 0 13zm15 -69l0 -4 14 0 0 4 -14 0zm-9 -23l4 0 0 14 -3 0 -1 -14zm0 -27l3 0 1 14 -4 0 0 -14zm3 -17l0 4 -4 0 0 -4 2 -2 2 2zm-4 0l0 -2 2 0 -2 2zm12 -2l0 3 -10 1 0 -4 10 0zm-64 1l0 4 -14 0 0 -3 14 -1zm27 0l0 3 -13 1 -1 -4 14 0zm15 3l-1 0 0 -4 1 0 2 2 -2 2zm0 -4l2 0 0 2 -2 -2zm2 14l-3 0 -1 -12 4 0 0 12zm1 28l-4 0 0 -14 4 0 0 14zm-3 26l0 -13 3 0 1 13 -2 1 -2 -1zm4 0l0 1 -2 0 2 -1zm-3 1l0 -3 1 0 0 3 -1 0zm-28 1l0 -3 14 -1 0 4 -14 0zm-27 1l0 -4 14 0 0 4 -14 0zm-3 -29l4 0 0 14 -3 0 -1 -14zm0 -27l3 0 1 13 -4 0 0 -13zm75 -26l0 -4 13 0 1 4 -14 0zm-9 -22l4 0 0 13 -3 0 -1 -13zm-1 -28l4 0 0 14 -3 0 -1 -14zm0 -27l3 0 1 14 -4 0 0 -14zm21 -5l-12 1 0 -4 12 0 0 3zm-74 -1l0 3 -13 1 0 -4 13 0zm28 -1l0 3 -14 1 0 -4 14 0zm15 3l-2 0 0 -3 2 -1 1 2 -1 2zm0 -4l1 0 0 2 -1 -2zm2 15l-4 0 0 -13 3 0 1 13zm0 27l-3 0 -1 -14 4 0 0 14zm1 27l-3 0 -1 -13 4 -1 0 14zm-3 15l0 -1 4 0 0 1 -2 2 -2 -2zm4 0l0 2 -2 0 2 -2zm-15 2l0 -4 13 0 0 4 -13 0zm-27 1l0 -4 13 0 1 3 -14 1zm-16 -4l2 0 0 4 -2 0 -2 -2 2 -2zm0 4l-2 0 0 -2 2 2zm-2 -13l3 0 1 11 -4 0 0 -11zm-1 -27l4 0 0 13 -4 0 0 -13zm-1 -28l4 0 0 14 -3 0 -1 -14zm4 -15l0 2 -4 0 0 -2 2 -2 2 2zm-4 0l0 -2 2 0 -2 2zm75 -15l0 -3 14 -1 0 4 -14 0zm-60 -2l0 4 -14 0 0 -3 14 -1zm27 0l0 3 -13 1 0 -4 13 0zm15 3l-1 0 0 -4 1 0 0 4zm-12 0l0 -3 12 -1 0 4 -12 0zm-27 1l0 -4 13 0 0 3 -13 1zm-17 -3l3 0 0 3 -3 0 0 -3z"/>
   <polygon class="fil0" points="1793,954 1809,1550 1584,1427 1759,946 "/>
   <path class="fil1" d="M1762 2111l7 0 0 -2 -5 0 3 -4c2,-3 2,-4 2,-6l0 0c0,-2 -2,-4 -4,-4 -1,0 -3,1 -4,3l2 1c0,-1 1,-2 2,-2 1,0 2,1 2,2 0,2 0,3 -2,4l-3 6 0 2zm13 0c3,0 5,-2 5,-5l0 0c-1,-4 -2,-5 -4,-5 -1,0 -2,0 -3,1 0,-3 1,-5 3,-5 1,0 1,0 2,1l1 -2c-1,-1 -2,-1 -3,-1 -3,0 -5,3 -5,9l0 0c0,3 1,5 2,6 0,1 1,1 2,1zm0 -2c-1,0 -2,-1 -2,-3l0 0c0,-2 1,-3 2,-3 1,0 2,1 2,3l0 0c0,2 0,3 -2,3zm11 2c3,0 4,-3 4,-8l0 -1c0,-5 -2,-8 -5,-7 -2,0 -4,2 -4,8l0 0c0,5 2,8 5,8zm0 -2c-2,0 -3,-2 -3,-6l0 0c0,-4 1,-6 2,-6 2,0 3,2 3,6l0 0c0,4 -1,6 -2,6zm11 2c2,0 4,-3 4,-8l0 -1c0,-5 -2,-8 -5,-8 -3,0 -4,3 -4,8l0 1c0,5 2,8 5,8zm0 -2c-2,0 -3,-2 -3,-6l0 -1c0,-4 1,-5 2,-5 2,-1 3,1 3,5l0 1c0,4 -1,5 -2,6z"/>
   <path class="fil0" d="M1739 403c0,1 0,1 1,1 0,0 1,0 1,-1 0,0 -1,-1 -1,-1 -1,0 -1,1 -1,1z"/>
   <polygon class="fil1" points="1792,538 1548,544 1544,519 1796,514 "/>
   <path class="fil1" d="M2664 3056c0,-1 0,-3 -1,-4 -1,-1 -3,-2 -5,-2l-16 1 0 4 16 -1c2,0 3,1 3,3 0,1 0,2 -1,2l2 2c1,-1 2,-3 2,-5z"/>
   <path class="fil0" d="M1248 1237c-78,2 -139,67 -137,144 2,78 67,139 144,137 78,-2 139,-67 137,-144 -2,-78 -67,-139 -144,-137zm6 261c-66,2 -121,-51 -123,-117 -2,-67 51,-122 117,-124 67,-1 122,51 124,117 1,67 -51,122 -118,124z"/>
   <path class="fil0" d="M1211 1379c1,22 19,39 41,39 23,-1 40,-19 39,-41 0,-23 -43,-110 -43,-110 0,0 -37,90 -37,112zm60 -2c1,11 -8,20 -19,21 -11,0 -20,-9 -21,-20 0,-11 9,-20 20,-20 11,-1 20,8 20,19z"/>
   <polygon class="fil1" points="1222,1212 1236,1212 1235,1167 1259,1211 1272,1211 1270,1133 1256,1133 1257,1176 1233,1134 1220,1134 "/>
   <path class="fil1" d="M1258 1626c12,-1 21,-10 20,-21l0 0c0,-9 -3,-15 -17,-23 -13,-7 -15,-10 -16,-17l0 0c0,-6 5,-12 13,-12 5,0 10,3 14,6l5 -6c-6,-5 -13,-7 -19,-7 -12,0 -21,9 -20,20l0 0c0,9 4,15 18,23 12,6 14,11 15,16l0 0c0,7 -5,13 -13,14 -7,0 -13,-4 -17,-8l-5 6c7,7 14,9 22,9z"/>
   <polygon class="fil1" points="1427,1412 1465,1411 1465,1404 1435,1404 1434,1376 1461,1375 1461,1368 1434,1369 1433,1341 1463,1340 1463,1333 1425,1334 "/>
   <path class="fil1" d="M1570 681l4 0 0 -21 10 20 4 0 -1 -31 -4 0 0 20 -10 -20 -4 0 1 32zm21 -1l5 0 1 -7 9 0 2 7 4 0 -9 -32 -4 0 -8 32zm7 -12l3 -12 3 12 -6 0zm25 11l7 0c7,0 11,-6 11,-16l0 0c0,-10 -5,-16 -12,-15l-7 0 1 31zm6 -27c4,0 7,3 8,11l0 0c0,8 -3,12 -8,12l-2 0 0 -23 2 0zm17 27l14 -1 0 -4 -10 0 0 -9 9 0 -1 -5 -9 1 0 -9 10 -1 0 -4 -14 0 1 32zm35 -1c3,0 5,-1 7,-3l-2 -4c-1,2 -3,3 -4,3 -4,0 -7,-4 -7,-12l0 0c0,-7 3,-11 6,-12 2,0 3,1 4,2l3 -3c-2,-2 -4,-3 -7,-3 -6,0 -11,6 -10,16l0 1c0,10 4,15 10,15zm9 0l4 0 2 -8 8 0 2 7 5 0 -9 -32 -5 1 -7 32zm7 -12l3 -13 3 13 -6 0zm17 11l7 0c6,0 10,-3 10,-9l0 0c0,-4 -2,-7 -5,-8 2,-1 4,-3 4,-7l0 0c0,-2 -1,-4 -2,-5 -2,-2 -4,-3 -7,-3l-8 0 1 32zm11 -23c1,3 -1,5 -4,5l-3 0 0 -9 3 0c3,-1 4,1 4,4l0 0zm2 14l0 0c0,3 -2,4 -5,4l-4 1 0 -10 3 0c4,0 6,2 6,5zm6 9l5 -1 1 -7 9 0 2 7 4 0 -9 -32 -4 0 -8 33zm7 -12l3 -13 3 13 -6 0zm28 -23c2,0 3,-2 4,-5l-3 -1c0,2 -1,2 -1,2 -1,0 -2,0 -2,0 -1,-1 -2,-1 -3,-1 -2,0 -3,1 -4,5l3 0c0,-1 1,-2 1,-2 1,0 2,1 2,1 1,0 2,1 3,1zm-11 34l5 0 -1 -21 11 21 3 -1 0 -31 -5 0 1 20 -10 -20 -4 0 0 32zm22 -1l4 0 2 -7 8 0 2 7 5 0 -10 -32 -4 0 -7 32zm6 -11l3 -13 4 12 -7 1zm24 11c5,0 8,-4 8,-9l0 0c0,-4 -2,-7 -6,-9 -5,-3 -5,-4 -5,-6l0 0c-1,-2 1,-4 3,-4 2,0 4,1 5,3l3 -4c-3,-3 -5,-4 -8,-4 -5,1 -8,4 -8,9l0 0c0,4 2,7 7,10 4,2 5,3 5,5l0 0c0,2 -2,4 -4,4 -3,0 -5,-1 -6,-3l-3 4c3,3 6,4 9,4z"/>
   <path class="fil1" d="M1574 717l-1 -7c1,1 1,2 1,4l0 0c0,1 0,2 0,3zm-2 -13l-1 -10 0 0c1,1 2,3 2,5l0 0c0,2 0,4 -1,5zm15 19c5,0 9,-4 9,-11l-1 -21 -4 0 0 21c0,4 -1,7 -4,7 -3,0 -5,-2 -5,-7l0 -21 -5 0 1 21c0,8 4,11 9,11zm14 -1l4 0 -1 -21 11 21 4 0 -1 -32 -5 0 1 20 -10 -20 -4 1 1 31zm33 0c3,0 5,-1 7,-3l0 -15 -9 0 0 4 5 0 0 8c-1,1 -2,1 -3,1 -4,0 -7,-3 -7,-11l0 -1c0,-7 2,-11 6,-11 2,0 4,1 5,2l2 -4c-2,-2 -4,-3 -7,-3 -6,1 -11,7 -11,17l0 0c1,11 5,16 12,16zm10 -1l4 0 2 -7 8 0 2 7 5 0 -9 -32 -5 0 -7 32zm7 -12l3 -12 3 12 -6 0zm17 12l14 -1 0 -4 -10 0 0 -27 -5 0 1 32z"/>
   <path class="fil1" d="M1693 720c6,0 10,-6 10,-16l0 -1c0,-10 -5,-15 -11,-15 -6,0 -10,6 -9,16l0 1c0,10 4,16 10,15zm0 -4c-3,0 -6,-4 -6,-12l0 0c0,-8 2,-12 5,-12 4,0 6,4 6,12l0 0c1,8 -2,12 -5,12z"/>
   <path class="fil1" d="M1712 720l4 0 4 -23 5 22 4 0 6 -32 -5 0 -3 23 -6 -23 -3 1 -4 22 -5 -22 -5 0 8 32zm33 -1c5,0 9,-4 8,-9l0 0c0,-4 -1,-7 -6,-9 -4,-3 -5,-4 -5,-6l0 0c0,-2 1,-4 3,-4 2,0 4,1 5,3l3 -4c-2,-3 -5,-4 -8,-4 -4,1 -8,4 -8,9l0 0c0,4 3,7 7,10 4,2 5,3 5,5l0 0c0,2 -1,4 -4,4 -2,0 -4,-1 -6,-3l-2 4c3,3 6,4 8,4z"/>
   <polygon class="fil1" points="2862,1350 2677,1184 2735,968 2867,1109 2855,1135 "/>
   <polygon class="fil3 str0" points="2875,1069 2880,1081 2855,1135 2921,3114 369,3209 119,3215 427,1948 643,533 1595,851 1486,145 2193,420 "/>
  </g>
 </g>
</svg>
