<?xml version="1.0" encoding="UTF-8"?>
<!DOCTYPE svg PUBLIC "-//W3C//DTD SVG 1.1//EN" "http://www.w3.org/Graphics/SVG/1.1/DTD/svg11.dtd">
<!-- Creator: CorelDRAW X7 -->
<svg xmlns="http://www.w3.org/2000/svg" xml:space="preserve" width="68.6546mm" height="91.6547mm" version="1.1" style="shape-rendering:geometricPrecision; text-rendering:geometricPrecision; image-rendering:optimizeQuality; fill-rule:evenodd; clip-rule:evenodd"
viewBox="0 0 3150 4205"
 xmlns:xlink="http://www.w3.org/1999/xlink">
 <defs>
  <style type="text/css">
   <![CDATA[
    .str2 {stroke:white;stroke-width:229.402}
    .str1 {stroke:#BFEAF5;stroke-width:9.17609}
    .str0 {stroke:#AAE0F9;stroke-width:14.7185;stroke-linecap:round;stroke-linejoin:round}
    .fil1 {fill:none}
    .fil0 {fill:#BFEAF5}
    .fil2 {fill:#FEFEFE;fill-rule:nonzero}
    .fil3 {fill:#BFEAF5;fill-rule:nonzero}
   ]]>
  </style>
 </defs>
 <g id="Capa_x0020_1">
  <metadata id="CorelCorpID_0Corel-Layer"/>
  <polygon class="fil0" points="3026,2509 2680,2518 2674,2296 2848,2292 3021,2109 "/>
  <polygon class="fil0" points="180,1341 453,1334 784,1172 781,1053 220,1308 "/>
  <polygon class="fil0" points="125,1413 450,1405 539,1365 789,1358 818,2454 253,2469 "/>
  <polygon class="fil0" points="1551,2548 1628,2373 1819,2368 1867,2351 2177,2342 2257,2335 2328,2306 2653,2297 2658,2519 "/>
  <polygon class="fil0" points="1168,2558 1162,2385 1579,2374 1503,2549 "/>
  <polygon class="fil0" points="252,2462 1166,2438 1169,2558 267,2581 "/>
  <polygon class="fil0" points="2229,154 2224,160 2225,184 2245,204 2273,203 2277,198 "/>
  <polygon class="fil0" points="2092,1799 2259,1795 2262,1893 2094,1897 "/>
  <polygon class="fil0" points="1787,1922 2077,1915 2078,1973 2096,1973 2095,1914 2262,1910 2272,2272 2255,2279 2175,2287 1857,2296 1852,2104 2081,2098 2083,2176 2102,2175 2100,2097 2173,2095 2171,2066 1730,2078 "/>
  <polygon class="fil0" points="1726,825 1726,812 2036,448 2170,444 2084,829 "/>
  <polygon class="fil0" points="1947,962 2065,964 2063,920 2080,847 1944,846 "/>
  <polygon class="fil0" points="2065,982 1750,976 1864,1626 1937,1457 2072,1489 2073,1489 2078,1489 "/>
  <polygon class="fil0" points="2252,1503 2259,1778 1830,1789 1876,1654 1949,1485 2084,1517 2085,1517 2109,1517 2109,1507 "/>
  <polygon class="fil0" points="2108,1315 2247,1312 2251,1485 2112,1488 "/>
  <polygon class="fil0" points="2200,189 2200,178 1921,419 2010,406 "/>
  <polygon class="fil0" points="2276,1778 2373,1775 2385,2244 2289,2247 "/>
  <polygon class="fil0" points="2582,976 2640,1292 2515,1296 2263,1302 2268,1484 2450,1480 2446,1349 2465,1348 2469,1498 2268,1503 2275,1760 2552,1752 2553,1771 2389,1775 2401,2244 2842,2232 3020,2044 3019,1958 2997,1531 2798,954 2593,500 2545,442 2286,206 2278,215 2206,452 2098,931 2103,1140 2167,1139 2166,1111 2381,1106 2378,982 "/>
  <path class="fil1 str0" d="M2865 1780c39,-2 10,67 25,79 18,1 11,14 42,18 20,5 35,-4 54,-2 8,3 9,13 20,17 3,1 7,2 10,2"/>
  <g>
   <path class="fil0" d="M2542 1113l-95 2 0 16 96 -2 -1 -16zm35 -86l6 31 -31 1 -1 -31 26 -1zm-9 -50l7 38 -24 0 -1 -38 18 0zm30 163l8 45 -50 1 -2 -45 44 -1zm16 88l9 49 -65 2 -1 -50 57 -1zm-67 51l-43 1 -1 -49 42 -2 2 50zm-54 1l-42 1 -1 -49 42 -1 1 49zm8 -138l42 -1 2 76 -42 1 -2 -76zm-54 2l43 -1 2 75 -43 1 -2 -75zm-3 -114l43 -1 1 73 -42 1 -2 -73zm-53 2l42 -1 3 101 -43 1 -2 -101zm3 113l42 -1 2 76 -42 1 -2 -76zm46 137l-43 1 -1 -50 42 -1 2 50zm-54 1l-61 2 -1 -50 61 -1 1 49zm-65 -136l61 -1 2 75 -61 2 -2 -76zm58 -115l3 101 -61 2 -1 -28 59 -75zm-133 255l-64 1 -1 -49 64 -2 1 50zm68 -2l-57 2 -1 -50 56 -1 2 49zm-60 -136l56 -2 2 76 -56 2 -2 -76zm56 -14l-57 2 0 -28 56 -2 1 28zm-69 -26l1 28 -64 1 -1 -28 64 -1zm-75 2l1 28 -64 1 0 -27 63 -2zm5 178l-64 1 -1 -49 63 -2 2 50zm-67 -136l63 -2 2 76 -63 1 -2 -75zm74 -2l64 -2 2 76 -64 2 -2 -76zm361 -173l1 38 -42 1 -1 -38 42 -1zm-54 1l1 38 -42 1 -1 -38 42 -1zm-53 1l1 38 -43 1 -1 -37 43 -2zm153 90l10 58 -41 1 -1 -58 32 -1zm-87 -41l42 -1 2 72 -42 1 -2 -72zm110 168l3 18 -55 2 0 -19 52 -1z"/>
  </g>
  <path class="fil2" d="M2443 1332l5 0 0 17 -4 0 -1 -17zm-1 -34l5 0 0 17 -4 0 -1 -17zm20 33l5 0 0 17 -4 0 -1 -17zm0 -33l4 0 1 17 -5 0 0 -17z"/>
  <polygon class="fil0" points="1826,1806 2074,1800 2076,1898 1792,1905 "/>
  <polygon class="fil0" points="1829,2104 1720,2107 1644,2317 1816,2313 1834,2306 "/>
  <polygon class="fil0" points="868,2039 939,2037 947,2336 876,2337 "/>
  <polygon class="fil0" points="968,2335 1135,2331 1128,2032 960,2036 "/>
  <polygon class="fil0" points="1808,1528 1357,1540 1361,1668 1829,1656 "/>
  <polygon class="fil0" points="1783,1791 1364,1802 1361,1685 1824,1673 "/>
  <polygon class="fil0" points="1369,1995 1716,1986 1739,1923 1605,1927 1604,1910 1744,1907 1778,1807 1365,1818 "/>
  <polygon class="fil0" points="1725,842 1747,959 1930,962 1927,845 "/>
  <polygon class="fil0" points="1770,1306 1523,1313 1528,1516 1804,1509 "/>
  <polygon class="fil0" points="1352,1317 1502,1313 1505,1418 1354,1422 "/>
  <polygon class="fil0" points="1355,1441 1506,1437 1508,1517 1357,1521 "/>
  <polygon class="fil0" points="1132,1341 1275,1337 1290,1319 1329,1318 1332,1423 1249,1425 1250,1444 1332,1442 1347,1995 1149,2001 "/>
  <polygon class="fil0" points="850,1348 1110,1341 1127,2001 867,2008 "/>
  <polygon class="fil0" points="996,1074 845,1146 841,1026 993,957 "/>
  <polygon class="fil0" points="1264,948 1013,1066 1010,949 1261,836 "/>
  <polygon class="fil0" points="1729,727 1281,940 1278,828 1636,665 1871,462 1976,447 "/>
  <polygon class="fil0" points="998,1134 846,1205 849,1323 1002,1319 "/>
  <polygon class="fil0" points="1265,1008 1015,1126 1020,1319 1273,1312 "/>
  <polygon class="fil0" points="1680,813 1282,1000 1290,1295 1765,1282 "/>
  <polygon class="fil0" points="1937,1457 1864,1626 1831,1436 "/>
  <path class="fil3" d="M1841 1489l4 0 -1 -8 2 0c4,0 7,-3 7,-8l0 0c0,-5 -3,-8 -7,-8l-5 0 0 24zm3 -11l0 -9 2 0c2,0 4,1 4,4l0 0c0,3 -1,5 -4,5l-2 0zm12 11l10 -1 0 -3 -7 0 0 -20 -4 0 1 24zm11 -1l4 0 1 -5 6 0 2 5 3 0 -7 -24 -3 0 -6 24zm6 -8l2 -10 2 9 -4 1zm12 8l12 0 0 -4 -8 1 7 -18 0 -3 -11 0 0 4 7 -1 -7 18 0 3zm14 0l3 -1 1 -5 6 0 2 5 3 0 -6 -24 -4 1 -5 24zm5 -9l2 -10 3 10 -5 0z"/>
  <path class="fil3" d="M1838 1519l4 0 -1 -10 7 -1 0 11 3 -1 0 -23 -4 0 1 10 -7 0 0 -10 -3 0 0 24zm16 -1l3 0 1 -5 6 0 2 5 3 0 -6 -24 -4 0 -5 24zm5 -8l2 -10 3 9 -5 1zm13 8l5 0c5,0 8,-5 8,-12l0 -1c0,-7 -4,-11 -9,-11l-5 0 1 24zm4 -21c3,0 6,3 6,9l0 0c0,6 -2,8 -6,9l-1 0 -1 -18 2 0zm11 21l3 -1 2 -5 6 0 1 5 4 0 -7 -24 -3 1 -6 24zm5 -9l2 -10 3 10 -5 0zm13 8l5 0c6,0 9,-5 9,-12l0 0c-1,-8 -4,-12 -10,-12l-4 0 0 24zm5 -20c3,-1 5,2 5,8l0 0c0,6 -2,9 -5,9l-2 0 0 -17 2 0z"/>
  <polygon class="fil0" points="1152,2129 1311,2125 1309,2058 1326,2058 1328,2144 1153,2149 1158,2330 1594,2319 1704,2017 1150,2031 "/>
  <path class="fil3" d="M1964 808l5 0 1 -7 8 0 2 7 5 0 -9 -31 -4 0 -8 31zm7 -12l3 -12 3 12 -6 0z"/>
  <path class="fil3" d="M1990 808l4 0 0 -27 5 0 0 -4 -15 0 0 4 5 0 1 27zm13 0l4 0 0 -31 -4 0 0 31zm0 -33l3 0 5 -4 -4 -2 -4 6z"/>
  <path class="fil3" d="M2624 2304l0 3 18 0 0 -3 -1 -3 -3 0 1 3 -15 0zm0 7l0 3 17 6 2 0 -1 -10 -2 0 0 7 -16 -6zm1 16c0,3 2,6 6,6l0 0c4,0 5,-3 5,-6 0,0 0,-1 0,-2l4 1 0 6 3 0 0 -9 -9 0 -1 1c0,1 1,2 1,3 0,1 -1,3 -3,3l0 0c-2,0 -4,-1 -4,-3 0,-1 1,-2 1,-3l-2 -2c-1,1 -2,3 -1,5zm0 14c0,4 3,7 9,6l1 0c5,0 9,-2 8,-6 0,-4 -3,-6 -9,-6l0 0c-6,0 -9,3 -9,6zm2 0c0,-1 2,-3 7,-3l0 0c5,0 7,1 7,3 0,2 -2,3 -7,3l0 0c-5,1 -7,-1 -7,-3z"/>
  <path class="fil3" d="M2496 2236l3 0 -1 -20 -2 0 -3 1 0 3 3 -1 0 17zm11 0c3,0 5,-3 5,-6l0 0c0,-3 -1,-4 -3,-5 1,-1 2,-2 2,-4l0 -1c0,-3 -2,-5 -5,-5 -3,0 -5,3 -4,6l0 0c0,2 1,3 2,4 -2,1 -3,3 -3,5l0 0c0,4 3,6 6,6zm0 -3c-2,0 -3,-1 -3,-3l0 0c0,-2 1,-4 3,-4 1,0 2,2 2,4l0 0c0,2 -1,3 -2,3zm0 -9c-2,0 -3,-1 -3,-3l0 0c0,-2 1,-3 2,-3 2,0 3,1 3,3l0 0c0,2 -1,3 -2,3zm13 11c3,0 5,-3 5,-10l0 0c0,-7 -2,-10 -6,-10 -3,0 -6,4 -5,10l0 1c0,6 2,9 6,9zm0 -2c-2,0 -3,-3 -4,-8l0 0c0,-5 1,-7 3,-7 2,0 3,2 3,7l0 0c0,5 -1,8 -2,8zm13 2c3,0 5,-4 5,-10l0 -1c0,-6 -2,-10 -6,-9 -3,0 -5,3 -5,10l0 0c0,7 2,10 6,10zm0 -3c-2,0 -3,-2 -3,-7l0 0c0,-5 1,-8 2,-8 2,0 3,3 3,8l0 0c1,5 -1,7 -2,7z"/>
  <path class="fil3" d="M2326 2240l3 0 -1 -20 -2 0 -3 2 0 2 3 -1 0 17zm10 -3c-1,0 -2,0 -3,-1l-1 3c1,1 2,1 4,1 3,0 6,-3 6,-11l0 0c-1,-4 -1,-7 -3,-8 0,-1 -2,-1 -3,-1 -3,0 -5,3 -5,7l0 0c0,4 2,6 5,6 1,0 2,-1 3,-2 0,4 -1,6 -3,6zm0 -7c-1,0 -2,-1 -2,-3l0 -1c0,-2 1,-4 2,-4 2,0 3,2 3,4l0 0c0,3 -1,4 -3,4zm14 10c3,0 5,-4 5,-10l0 -1c0,-6 -2,-10 -6,-10 -3,0 -6,4 -5,10l0 1c0,7 2,10 6,10zm0 -3c-2,0 -3,-2 -4,-7l0 -1c0,-5 1,-7 3,-7 2,0 3,2 3,7l0 1c0,5 -1,7 -2,7zm13 2c3,0 5,-3 5,-10l0 0c0,-7 -2,-10 -6,-10 -3,0 -5,4 -5,10l0 1c0,6 2,10 6,9zm0 -2c-2,0 -3,-2 -3,-7l0 -1c0,-5 1,-7 2,-7 2,0 3,2 3,7l0 0c1,5 -1,8 -2,8z"/>
  <path class="fil3" d="M2203 2269l3 0 -1 -20 -2 0 -3 2 0 2 2 -1 1 17zm10 -3c-1,0 -2,0 -3,-1l-1 3c1,1 2,1 4,1 3,0 6,-3 6,-11l-1 0c0,-4 0,-7 -2,-8 -1,-1 -2,-1 -3,-1 -3,0 -5,3 -5,7l0 0c0,4 2,6 5,6 1,0 2,-1 3,-2 0,4 -1,6 -3,6zm0 -7c-1,0 -2,-1 -2,-3l0 0c0,-3 0,-4 2,-5 2,0 3,2 3,4l0 0c0,3 -1,4 -3,4zm12 10c3,0 5,-3 5,-7l0 0c0,-4 -2,-6 -5,-6 -1,0 -1,0 -2,0l0 -4 6 -1 0 -2 -8 0 0 9 1 1c1,0 2,0 2,0 2,0 3,1 3,3l0 0c1,2 -1,4 -2,4 -1,0 -2,0 -3,-1l-2 2c2,1 3,2 5,2zm13 0c3,-1 6,-4 5,-11l0 0c0,-7 -2,-10 -6,-10 -3,0 -5,4 -5,10l0 1c0,6 2,10 6,10zm0 -3c-2,0 -3,-2 -3,-7l0 -1c0,-5 1,-7 2,-7 2,0 3,2 4,7l0 0c0,5 -1,8 -3,8z"/>
  <path class="fil3" d="M1532 2312l10 0 0 -3 -6 0 3 -5c2,-3 3,-5 3,-7l0 0c0,-3 -3,-5 -5,-5 -2,0 -4,1 -5,3l2 2c0,-1 1,-2 2,-2 2,0 3,1 3,2 0,2 -1,3 -2,5l-5 8 0 2zm12 0l9 0 0 -3 -6 0 4 -5c1,-3 2,-5 2,-7l0 0c0,-3 -2,-5 -5,-5 -2,0 -3,1 -5,3l2 2c1,-2 2,-2 3,-2 1,0 2,1 2,2 0,2 0,3 -2,5l-4 8 0 2zm17 0c4,0 6,-4 6,-10l0 -1c-1,-6 -3,-10 -6,-10 -4,0 -6,4 -6,10l0 1c0,7 3,10 6,10zm0 -3c-2,0 -3,-2 -3,-7l0 -1c0,-5 1,-7 3,-7 1,0 3,2 3,7l0 1c0,5 -1,7 -3,7zm13 2c4,0 6,-3 6,-10l0 0c0,-7 -3,-10 -6,-10 -4,0 -6,4 -5,10l0 1c0,6 2,10 5,9zm0 -2c-1,0 -3,-2 -3,-7l0 -1c0,-5 1,-7 3,-7 2,0 3,2 3,7l0 0c0,5 -1,8 -3,8z"/>
  <path class="fil3" d="M1065 2325l9 -1 0 -3 -6 1 3 -6c2,-3 3,-4 3,-7l0 0c0,-3 -2,-5 -5,-5 -2,0 -4,1 -5,3l2 2c1,-1 2,-2 3,-2 1,0 2,1 2,3 0,1 -1,2 -2,5l-4 7 0 3zm18 -1l2 0 0 -4 2 0 0 -3 -2 0 0 -13 -3 0 -6 14 0 2 7 0 0 4zm-5 -7l4 -8 0 8 -4 0zm16 7c4,0 6,-4 6,-10l0 -1c0,-6 -3,-9 -6,-9 -4,0 -6,3 -5,10l0 0c0,7 2,10 5,10zm0 -3c-1,0 -2,-2 -3,-7l0 0c0,-5 1,-8 3,-8 2,0 3,3 3,8l0 0c0,5 -1,7 -3,7zm14 3c3,0 5,-4 5,-10l0 -1c0,-6 -2,-10 -6,-10 -3,0 -5,4 -5,10l0 1c0,6 2,10 6,10zm0 -3c-2,0 -3,-2 -3,-7l0 -1c0,-5 1,-7 2,-7 2,0 3,2 3,7l0 1c1,5 -1,7 -2,7z"/>
  <path class="fil3" d="M740 2333l10 0 0 -3 -6 0 3 -5c2,-3 3,-5 3,-7l0 0c-1,-3 -3,-5 -5,-5 -2,0 -4,1 -5,3l1 2c1,-2 2,-2 3,-2 2,0 3,1 3,2 0,2 -1,3 -2,5l-5 8 0 2zm17 0c3,0 5,-3 5,-7l0 0c0,-4 -2,-6 -5,-6 -1,0 -2,1 -3,2 0,-4 2,-7 4,-7 1,0 1,1 2,1l1 -2c-1,-1 -2,-2 -4,-2 -3,1 -6,4 -5,11l0 1c0,4 1,6 2,8 1,0 2,1 3,1zm0 -3c-1,0 -2,-1 -2,-4l0 0c-1,-2 0,-3 2,-3 1,0 2,1 3,3l0 0c0,2 -1,4 -3,4zm13 3c3,-1 6,-4 5,-11l0 0c0,-7 -2,-10 -6,-10 -3,0 -5,4 -5,10l0 1c0,6 2,10 6,10zm0 -3c-2,0 -3,-2 -3,-7l0 -1c0,-5 1,-7 3,-7 1,0 2,2 3,7l0 0c0,5 -1,8 -3,8zm13 2c4,0 6,-3 6,-10l0 0c0,-7 -3,-10 -6,-10 -4,0 -6,3 -6,10l0 0c1,7 3,10 6,10zm0 -3c-1,0 -3,-2 -3,-7l0 0c0,-5 1,-7 3,-7 1,0 3,2 3,7l0 0c0,5 -1,7 -3,7z"/>
  <path class="fil3" d="M1173 2398l0 3 18 0 0 -2 -1 -4 -3 0 1 3 -15 0zm0 7l0 3 16 6 2 0 0 -10 -3 0 0 7 -15 -6zm0 16c0,4 2,6 6,6l0 0c4,0 6,-3 6,-6 0,0 -1,-1 -1,-2l5 1 0 6 2 0 0 -9 -9 0 -1 1c1,1 1,2 1,3 0,1 -1,3 -3,3l0 0c-2,0 -3,-1 -3,-3 0,-1 0,-2 1,-3l-2 -2c-1,2 -2,3 -2,5zm1 11l0 3 18 -1 0 -2 -2 -4 -2 1 1 2 -15 1z"/>
  <path class="fil3" d="M2033 2376l9 0 0 -3 -6 0 3 -6c2,-3 3,-4 3,-6l0 0c0,-4 -2,-6 -5,-5 -2,0 -4,1 -5,3l2 2c1,-2 2,-3 3,-3 1,0 2,1 2,3 0,1 0,3 -2,5l-4 7 0 3zm17 0c4,0 6,-4 5,-10l0 -1c0,-6 -2,-10 -6,-10 -3,0 -5,4 -5,10l0 1c0,6 2,10 6,10zm0 -3c-2,0 -3,-2 -3,-7l0 -1c0,-5 1,-7 3,-7 1,0 2,2 3,7l0 1c0,5 -1,7 -3,7zm13 2c4,0 6,-3 6,-10l0 0c0,-7 -3,-10 -6,-10 -4,0 -6,3 -6,10l0 1c1,6 3,9 6,9zm0 -3c-1,1 -3,-2 -3,-7l0 0c0,-5 1,-7 3,-7 1,0 3,2 3,7l0 0c0,5 -1,7 -3,7zm10 3l3 0 -1 -20 -2 0 -3 1 0 3 3 -1 0 17z"/>
  <path class="fil3" d="M1774 2403l9 0 0 -3 -6 0 4 -5c1,-3 2,-5 2,-7l0 0c0,-3 -2,-5 -5,-5 -2,0 -4,1 -5,3l2 2c1,-2 2,-2 3,-2 1,0 2,1 2,2 0,2 0,3 -2,5l-4 7 0 3zm14 0l2 0 0 -20 -2 0 -4 1 1 3 2 -1 1 17zm11 0c3,0 5,-4 5,-10l0 -1c0,-7 -2,-10 -6,-10 -3,0 -5,4 -5,10l0 1c0,6 2,10 6,10zm0 -3c-2,0 -3,-2 -3,-7l0 -1c-1,-5 1,-7 2,-7 2,0 3,2 3,7l0 1c0,5 -1,7 -2,7zm9 2l3 0 0 -20 -2 0 -4 1 1 3 2 -1 0 17z"/>
  <polygon class="fil0" points="789,1329 602,1334 787,1245 "/>
  <path class="fil3" d="M2402 2184l0 -6 -5 0 0 6 5 0zm-1 -19l0 -5 -28 0 0 5 28 0zm0 -10l0 -6 -5 0 0 6 5 0zm0 -19l-1 -7c0,-8 -5,-13 -14,-13l0 0c-9,0 -14,5 -14,13l0 7 29 0zm-25 -7c0,-4 3,-8 10,-8l0 0c7,0 10,3 10,8l1 2 -21 1 0 -3zm24 -18l0 -16 -4 0 0 12 -8 0 -1 -10 -4 0 1 10 -8 0 -1 -11 -4 0 1 16 28 -1zm-1 -28l0 -8c0,-7 -3,-11 -8,-11l0 0c-4,0 -6,3 -7,6 -1,-2 -3,-5 -6,-5l0 0c-2,0 -4,1 -5,3 -2,1 -2,4 -2,7l0 8 28 0zm-20 -13c2,0 4,2 4,5l0 3 -8 1 0 -4c0,-3 1,-5 3,-5l1 0zm12 -1l0 0c2,0 4,2 4,5l0 4 -8 0 0 -3c-1,-4 1,-6 4,-6zm8 -19c0,-7 -6,-11 -15,-11l0 0c-9,0 -15,5 -14,12 0,6 5,10 14,10l1 0c9,0 14,-5 14,-11zm-4 0c0,3 -4,6 -10,6l-1 0c-7,0 -10,-2 -10,-6 0,-3 3,-6 10,-6l0 0c7,0 11,2 11,6zm3 -16l0 -5 -10 1 0 -3c0,0 0,-1 0,-1l10 -6 -1 -5 -11 6c-1,-3 -4,-5 -8,-5l0 0c-3,0 -5,1 -6,3 -2,2 -3,5 -3,8l1 8 28 -1zm-14 -4l-10 0 -1 -3c0,-4 2,-6 5,-6 3,0 6,2 6,6l0 3zm13 -19l0 -4 -10 0 0 -3c0,0 0,-1 0,-1l10 -5 0 -6 -11 7c-2,-4 -4,-6 -8,-6l-1 0c-2,0 -4,1 -6,3 -1,2 -2,5 -2,8l0 8 28 -1zm-14 -4l-10 0 0 -3c0,-4 1,-6 5,-6 3,0 5,2 5,6l0 3zm14 -17l0 -4 -7 -2 0 -9 6 -2 0 -5 -28 9 0 5 29 8zm-11 -7l-11 -3 11 -4 0 7zm10 -23c0,-2 0,-4 -2,-5 -1,-2 -3,-2 -6,-2l-21 0 1 5 20 -1c3,0 4,2 4,4 0,1 0,2 -1,3l3 3c1,-2 2,-4 2,-7zm0 -23c0,-6 -6,-11 -15,-10l0 0c-9,0 -14,4 -14,11 0,6 5,11 14,11l1 0c9,-1 14,-5 14,-12zm-4 0c0,4 -4,7 -10,7l-1 0c-7,0 -10,-3 -10,-6 0,-4 3,-6 10,-7l0 0c7,0 11,3 11,6z"/>
  <path class="fil0" d="M1736 2173c29,-1 54,22 55,52 0,30 -23,55 -53,55 -29,1 -54,-22 -55,-52 -1,-30 23,-55 53,-55z"/>
  <path class="fil0" d="M1736 2280l4 -32 -13 -2 -17 3 2 -3 14 -2 -2 -7 3 -1 3 8 11 2 1 -8 -13 -9 -1 -4 6 4 0 -8 3 0 -1 9 7 6 0 -7 2 3 0 20 15 -1 -1 -5 3 -1 0 5 9 -2 2 -9 2 2 -1 8 -13 5 -16 1 -1 25c-2,0 -4,0 -6,0l0 0c0,0 -1,0 -2,0zm-32 -51l-3 9 11 6 -5 6 -11 0 1 -7 -6 3 -5 -7 5 -5 -4 -5 9 1 8 -1zm55 1l12 0 6 -7 7 4 -3 4 4 4 -6 6 -8 -5 -9 7 4 0 -11 2 1 -6 -5 -3 8 -6zm-33 -35l5 -2 2 7 9 0 1 -6 25 0 3 8 -18 5 15 -2 9 10 -7 11 -11 1 -10 7 -11 -15 -12 1 0 -5 -10 8 10 1 3 9 -13 7 -9 -5 2 -10 -5 -4 1 6 -9 0 -2 -9 -1 -11 8 -6 8 3 -2 -4 12 -5 6 3 1 -3z"/>
  <polygon class="fil0" points="3026,2515 259,2515 445,4046 1298,3723 1735,3557 3034,3137 "/>
  <line class="fil1 str1" x1="3026" y1="2515" x2="259" y2= "2515" />
  <polygon class="fil0" points="2291,158 2272,138 2243,139 2232,151 2281,195 2292,182 "/>
  <polygon class="fil1 str2" points="2228,153 2545,442 2593,500 2798,954 2997,1531 3019,1958 3034,3137 1735,3557 1298,3723 445,4046 122,1388 220,1308 1636,665 "/>
 </g>
</svg>
