<?xml version="1.0" encoding="UTF-8"?>
<!DOCTYPE svg PUBLIC "-//W3C//DTD SVG 1.1//EN" "http://www.w3.org/Graphics/SVG/1.1/DTD/svg11.dtd">
<!-- Creator: CorelDRAW X7 -->
<svg xmlns="http://www.w3.org/2000/svg" xml:space="preserve" width="77.2385mm" height="91.3969mm" version="1.1" style="shape-rendering:geometricPrecision; text-rendering:geometricPrecision; image-rendering:optimizeQuality; fill-rule:evenodd; clip-rule:evenodd"
viewBox="0 0 10034 11873"
 xmlns:xlink="http://www.w3.org/1999/xlink">
 <defs>
  <style type="text/css">
   <![CDATA[
    .str3 {stroke:white;stroke-width:649.539}
    .str2 {stroke:#FEFEFE;stroke-width:46.8707}
    .str1 {stroke:#FEFEFE;stroke-width:52.093}
    .str0 {stroke:#AAE0F9;stroke-width:41.6744;stroke-linecap:round;stroke-linejoin:round}
    .fil1 {fill:none}
    .fil0 {fill:#BFEAF5}
    .fil2 {fill:#FEFEFE;fill-rule:nonzero}
    .fil3 {fill:#BFEAF5;fill-rule:nonzero}
   ]]>
  </style>
 </defs>
 <g id="Capa_x0020_1">
  <metadata id="CorelCorpID_0Corel-Layer"/>
  <polygon class="fil0" points="2756,720 2956,480 2963,516 "/>
  <polygon class="fil0" points="454,2974 440,2989 442,3059 498,3114 579,3112 591,3099 "/>
  <polygon class="fil0" points="4684,8111 4440,9296 4479,9319 4735,8072 4515,8027 4226,7918 4086,7922 4007,7834 3971,7830 3664,7495 3866,7234 5196,6851 8072,5897 8605,7856 8688,7834 8163,5873 8129,4550 9495,4514 9582,4408 9611,4231 9656,4229 9552,4967 9562,5775 9625,5862 9622,6164 9555,6594 9468,7397 9512,7734 9707,8209 9695,8632 9535,9179 9670,9416 9666,9460 2722,9642 2708,8499 3634,7522 3960,7875 3996,7879 4075,7966 4215,7963 4504,8072 "/>
  <polygon class="fil0" points="1286,2799 1078,2592 1960,1605 2141,1781 "/>
  <polygon class="fil0" points="2374,1518 2185,1323 2365,1115 2551,1307 "/>
  <polygon class="fil0" points="2180,1749 1988,1552 2153,1361 2342,1556 "/>
  <polygon class="fil0" points="2411,1091 2551,926 2628,853 2640,841 2802,1008 2583,1269 "/>
  <polygon class="fil0" points="2834,970 2680,810 2716,767 2967,522 3067,694 "/>
  <polygon class="fil0" points="1854,1718 2668,813 2628,853 2095,1361 1842,1651 "/>
  <polygon class="fil0" points="2224,1774 2449,1506 2648,1711 2423,1979 "/>
  <path class="fil0" d="M2202 2650c-166,195 -332,390 -499,585l-113 -119 496 -582 116 116z"/>
  <path class="fil0" d="M2353 2801c-167,196 -334,392 -501,588l-114 -118 499 -586 116 116z"/>
  <path class="fil0" d="M2505 2952c-168,197 -337,395 -505,592l-114 -119 503 -589 116 116z"/>
  <path class="fil0" d="M2665 3093c-172,202 -344,404 -517,606l-114 -119 511 -598 120 111z"/>
  <path class="fil0" d="M2823 3237l-372 436 -185 80 -62 4 -21 -22c173,-203 346,-406 519,-609l121 111z"/>
  <path class="fil0" d="M3128 2864l-147 -143 -283 334 -121 -111 88 -101 -35 -36 -93 107 -116 -116 46 -55 -34 -36 -47 56 -116 -116 50 -59 -34 -37 -52 61 -151 -151 -528 619 -234 -245 864 -1029 417 429 0 0c0,0 0,0 0,0 214,165 424,316 635,470l-38 173 -71 -14z"/>
  <polygon class="fil0" points="2705,8314 3554,7418 3828,7090 4258,6978 4233,6749 3756,6808 3745,6773 4229,6713 4205,6453 3699,6507 3694,6472 4201,6417 4115,5875 4254,5347 3726,5283 3691,5431 3649,5422 3676,5279 3441,5207 3418,5272 3379,5233 3520,4499 2920,4346 2745,3635 2621,3661 2509,3710 2711,4376 2669,4385 2469,3726 2263,3815 2201,3819 1489,3073 1362,3218 1332,3189 1458,3042 1075,2643 1026,2639 960,2717 623,3110 1386,3790 1521,3958 1954,4878 2369,5959 2642,6896 2702,8092 "/>
  <path class="fil1 str0" d="M3069 8124c49,41 124,35 185,45 50,-6 49,-37 161,-24 123,-11 134,-36 200,-57 68,-14 126,10 222,-19 63,-25 129,-95 199,-143m-1343 -24c20,2 41,2 57,11 15,18 42,40 102,61 41,15 89,6 123,45m1095 -134c22,-16 47,-36 52,-63 7,-54 -13,-169 -17,-226 -3,-49 16,-59 41,-70 50,-6 93,8 154,3 68,-11 114,-5 168,36 71,41 107,61 158,103 41,35 90,80 138,89 43,23 44,53 81,75 35,12 62,10 97,22 43,19 61,58 119,77 43,16 75,20 131,63 53,62 138,94 224,139 51,26 95,11 139,67 6,51 15,72 59,107 30,20 92,-5 150,19 46,39 76,77 152,103 75,50 103,145 169,220 33,39 122,59 127,96 16,57 27,115 9,173 -18,100 21,247 -11,290 -21,21 -50,25 -54,60 6,45 11,78 1,112 -3,47 -11,111 -15,172"/>
  <polygon class="fil0" points="7049,4913 6498,4927 6387,4435 6955,4493 "/>
  <polygon class="fil0" points="7460,4537 7672,5568 7266,5579 7011,4497 "/>
  <path class="fil0" d="M7524 4536l262 1274c7,29 29,52 52,43l234 -80c18,-6 33,-29 33,-54l-32 -1168 -549 -15z"/>
  <polygon class="fil0" points="7140,3481 7303,3573 7316,4068 7154,3998 "/>
  <polygon class="fil0" points="4821,5919 4935,5680 4316,5359 4216,5716 "/>
  <polygon class="fil0" points="4396,6072 4204,6069 4170,5885 4199,5766 4355,5818 "/>
  <polygon class="fil0" points="4631,6071 4443,6072 4408,5836 4607,5902 "/>
  <polygon class="fil0" points="4678,6075 4810,6077 4792,5966 4658,5919 "/>
  <polygon class="fil0" points="4407,6128 4216,6125 4256,6382 4450,6363 "/>
  <polygon class="fil0" points="4638,6127 4457,6129 4504,6363 4694,6349 "/>
  <polygon class="fil0" points="4692,6132 4834,6133 4928,6329 4746,6342 "/>
  <polygon class="fil0" points="4957,6387 4998,6504 5014,6501 "/>
  <polygon class="fil0" points="4817,6389 4850,6527 4955,6512 4910,6382 "/>
  <polygon class="fil0" points="4261,6440 4312,6965 5139,6738 5041,6551 4821,6596 4770,6396 "/>
  <polygon class="fil0" points="4914,4598 4594,4399 4491,4654 4805,4834 "/>
  <polygon class="fil0" points="4851,4867 5220,5090 5332,4855 4959,4627 "/>
  <polygon class="fil0" points="4932,4548 4613,4350 4699,4153 5020,4349 "/>
  <polygon class="fil0" points="5067,4382 5447,4613 5355,4808 4978,4578 "/>
  <polygon class="fil0" points="5043,3953 4830,3823 4916,3624 5126,3752 "/>
  <polygon class="fil0" points="5163,3775 5533,4001 5733,4108 5622,4295 5458,4209 5081,3977 "/>
  <polygon class="fil0" points="5140,4072 4816,3870 4715,4112 5041,4314 "/>
  <polygon class="fil0" points="5085,4343 5466,4574 5588,4334 5433,4248 5183,4096 "/>
  <polygon class="fil0" points="6182,3917 6255,3949 6205,4187 6108,4156 "/>
  <polygon class="fil0" points="5937,4324 6024,4329 6156,3822 6055,3770 6126,3605 6076,3577 5960,3813 6079,3862 5939,4180 5970,4201 "/>
  <polygon class="fil0" points="6195,3878 6619,4048 6614,3856 6580,3812 6251,3664 "/>
  <polygon class="fil0" points="6562,4234 6641,4245 6645,4398 6336,4363 6409,4014 6620,4087 6621,4118 6639,4158 6641,4224 6561,4214 "/>
  <polygon class="fil0" points="6670,4072 6664,3862 6955,3989 6956,4047 6767,4075 "/>
  <polygon class="fil0" points="6691,4230 6689,4164 6671,4124 6670,4092 6767,4095 6957,4067 6960,4206 6779,4232 "/>
  <polygon class="fil0" points="6966,4420 6695,4404 6691,4250 6780,4253 6961,4226 "/>
  <path class="fil0" d="M6755 3350l328 110 13 506 -379 -157c-25,-20 -47,-47 -45,-71l83 -388z"/>
  <polygon class="fil0" points="4180,3525 4123,3688 4369,3816 4343,3878 4101,3755 3934,4510 4440,4636 4764,3840 4403,3645 "/>
  <polygon class="fil0" points="3921,4560 4420,4687 4264,5301 3736,5237 "/>
  <polygon class="fil0" points="5196,5142 4955,5636 4324,5313 4476,4709 "/>
  <polygon class="fil0" points="3565,4510 3857,4559 3807,4760 3535,4685 "/>
  <polygon class="fil0" points="3485,4943 3740,5007 3795,4795 3528,4725 "/>
  <polygon class="fil0" points="3479,4980 3730,5044 3682,5227 3447,5155 "/>
  <polygon class="fil0" points="5810,4308 5882,4153 5805,4112 5719,4296 "/>
  <polygon class="fil0" points="5913,4317 5834,4310 5892,4184 5949,4213 "/>
  <polygon class="fil0" points="6089,3754 6162,3796 6210,3646 6148,3616 "/>
  <polygon class="fil0" points="5818,4090 5944,3842 6042,3875 5921,4147 "/>
  <polygon class="fil0" points="6065,4330 6300,4353 6373,3996 6279,3960 6221,4223 6103,4190 "/>
  <polygon class="fil0" points="4711,2582 4814,2323 4806,1989 4983,1985 4988,2170 5039,2168 5034,1983 5112,1981 5145,2319 5165,2325 4968,2705 "/>
  <polygon class="fil0" points="4950,2740 4693,2614 4501,3010 4803,3039 "/>
  <polygon class="fil0" points="4993,2767 5168,2865 5083,3072 4859,3044 "/>
  <polygon class="fil0" points="5189,2823 5367,2392 5216,2342 5011,2732 "/>
  <polygon class="fil0" points="5534,3251 5149,3080 5425,2417 5735,2683 5832,2776 "/>
  <polygon class="fil0" points="5560,3265 6063,3499 6113,3374 5765,3187 5781,3152 6131,3334 6217,3109 6173,3098 6025,2958 5952,3138 5924,3124 6000,2935 5854,2796 "/>
  <polygon class="fil0" points="6113,3537 6259,3190 6694,3343 6619,3750 6590,3760 "/>
  <polygon class="fil0" points="2680,1673 2481,1468 2669,1243 2869,1449 "/>
  <polygon class="fil0" points="2883,1882 2715,1709 2903,1484 3072,1658 "/>
  <polygon class="fil0" points="3071,1285 3239,1458 3104,1619 2935,1446 "/>
  <polygon class="fil0" points="2837,1043 3036,1249 2901,1410 2701,1205 "/>
  <polygon class="fil0" points="3068,1211 2869,1005 2966,889 3166,1095 "/>
  <polygon class="fil0" points="2754,3580 2689,3581 2549,3634 2859,3271 2948,3352 "/>
  <polygon class="fil0" points="3081,3474 3078,3571 2805,3578 2976,3378 "/>
  <polygon class="fil0" points="3128,3200 3083,3404 3082,3408 3008,3340 "/>
  <polygon class="fil0" points="3104,2907 2855,3199 2734,3088 2984,2794 "/>
  <polygon class="fil0" points="3180,2965 3145,3121 2980,3314 2892,3233 3144,2937 "/>
  <polygon class="fil0" points="3876,1484 3951,1560 3676,1981 3552,1853 3801,1554 3810,1563 "/>
  <polygon class="fil0" points="3434,1978 3300,1840 3707,1361 3799,1405 3850,1457 3803,1513 3794,1503 3509,1845 3510,1886 "/>
  <polygon class="fil0" points="3229,2228 2922,1912 3106,1693 3410,2007 "/>
  <path class="fil0" d="M3256 2256l289 -355 109 113 -400 615 -5 22c-52,-37 -103,-75 -155,-112l160 -256 2 -27z"/>
  <path class="fil0" d="M2632 2195l-174 -180 225 -268 190 196 5 -6 333 344 -147 236c-143,-105 -287,-210 -432,-322z"/>
  <polygon class="fil0" points="3426,1292 3426,1292 2998,851 3095,741 3206,930 3662,1338 3265,1804 3130,1665 3436,1302 "/>
  <path class="fil0" d="M4341 1773l412 -11 14 562 -316 678 -112 -4 -206 487 -74 215 -178 798 -327 -54 -588 -147 -163 -672 312 -8 4 -182 171 -776 704 -1073 347 187zm255 1539l-46 -20 -149 298 -203 -103 166 -424 693 64 -277 675 -338 -186 154 -304zm872 275l23 -39 411 254 133 -256 -504 -234 -411 -185 -184 458 626 383 200 106 119 -230 -413 -257z"/>
  <path class="fil0" d="M6602 5674l14 53 46 -14 -155 -733 559 -14 161 666 456 -12 39 191c11,43 -6,76 -38,87l-2497 824 -306 -644c-24,-52 -15,-109 13,-165l759 -1552 682 69 185 844 -963 182 65 402 343 -68 30 155 41 -8 -33 -159 599 -104zm-602 -274l-178 36 54 327 182 -36 -58 -327zm-216 41l-178 35 54 328 181 -36 -57 -327zm258 -46l482 -88 67 329 -492 86 -57 -327z"/>
  <polygon class="fil0" points="7804,4131 7808,4289 7373,4097 7369,3966 7623,3959 7626,4060 "/>
  <polygon class="fil0" points="7360,3605 7547,3601 7555,3899 7368,3904 "/>
  <polygon class="fil0" points="7466,4451 7023,4424 7012,4014 7179,4086 7186,4333 7243,4331 7237,4112 7459,4209 "/>
  <polygon class="fil0" points="8077,4483 7523,4471 7517,4244 8076,4471 "/>
  <polygon class="fil0" points="8055,4409 7865,4307 7861,4153 8050,4228 "/>
  <polygon class="fil0" points="8295,4278 8299,4440 8112,4445 8107,4251 8185,4282 "/>
  <polygon class="fil0" points="9457,4410 8355,4439 8351,4276 9516,4234 9501,4325 "/>
  <polygon class="fil0" points="4842,1890 4824,1891 4822,1819 "/>
  <path class="fil0" d="M4631 6071l-188 1 -35 -236 199 66 24 169zm-235 1l-192 -3 -34 -184 29 -119 156 52 41 254z"/>
  <path class="fil0" d="M3243 3617l604 -1469c80,-196 292,-282 470,-193 178,90 258,324 177,521l-604 1468c-80,196 -292,283 -470,193 -178,-90 -258,-324 -177,-520z"/>
  <path class="fil0" d="M3242 3617l604 -1469c81,-196 293,-282 471,-193 178,90 258,324 177,521l-604 1468c-80,196 -292,283 -470,193 -178,-90 -258,-324 -178,-520z"/>
  <path class="fil1 str1" d="M3242 3617l604 -1469c81,-196 293,-282 471,-193 178,90 258,324 177,521l-604 1468c-80,196 -292,283 -470,193 -178,-90 -258,-324 -178,-520"/>
  <path class="fil1 str0" d="M8548 5189c97,-74 138,-177 244,-262 83,-73 151,-153 258,-208 77,-53 162,-26 266,-63 70,-15 138,-29 198,-93 33,-31 67,-52 103,-59m-12 1767c-10,7 -22,13 -34,15 -102,46 -199,57 -305,55 -100,2 -142,68 -235,73 -93,11 -223,-13 -320,-30 -117,-64 -184,-104 -285,-87 -98,26 -222,-2 -317,96 -51,32 -121,25 -182,103 -49,59 -103,63 -142,93 -90,101 -131,28 -183,105 -33,84 -71,100 -118,101 -59,4 -119,83 -163,126 -75,89 -139,158 -199,259"/>
  <polygon class="fil0" points="7582,6844 7620,6843 7622,6919 7584,6920 "/>
  <path class="fil2" d="M7156 4904l1 13 -48 1 0 -13 47 -1zm95 -2l1 12 -48 2 0 -13 47 -1zm96 -3l0 13 -48 1 0 -13 48 -1zm95 -2l0 12 -47 2 -1 -13 48 -1zm94 10l-46 1 -1 -13 47 -1 0 13zm-367 50l0 12 -47 2 -1 -13 48 -1zm95 -3l0 13 -47 1 0 -13 47 -1zm95 -2l1 12 -48 2 0 -13 47 -1zm95 -3l1 13 -48 1 0 -13 47 -1zm91 10l-43 2 0 -13 43 -1 0 12zm-5463 -2545l12 1 -5 47 -13 -1 6 -47zm48 -83l10 8 -31 37 -10 -8 31 -37zm61 -73l10 8 -31 37 -10 -8 31 -37zm61 -73l10 8 -31 37 -10 -9 31 -36zm61 -73l10 8 -31 36 -10 -8 31 -36zm61 -73l9 8 -30 36 -10 -8 31 -36z"/>
  <path class="fil0" d="M6734 6712l358 -9c54,-2 100,42 102,96l9 358c1,54 -42,100 -97,102l-357 9c-55,2 -101,-42 -102,-97l-10 -357c-1,-55 42,-101 97,-102z"/>
  <path class="fil0" d="M6734 6712l357 -9c55,-2 101,42 102,96l10 358c1,54 -42,100 -97,102l-358 9c-54,2 -100,-42 -101,-97l-10 -357c-1,-55 42,-101 97,-102z"/>
  <path class="fil1 str2" d="M6734 6712l357 -9c55,-2 101,42 102,96l10 358c1,54 -42,100 -97,102l-358 9c-54,2 -100,-42 -101,-97l-10 -357c-1,-55 42,-101 97,-102"/>
  <path class="fil0" d="M7350 6696l357 -10c55,-1 101,43 102,97l10 358c1,54 -42,100 -97,102l-358 9c-54,1 -100,-42 -101,-97l-10 -357c-1,-55 42,-101 97,-102z"/>
  <path class="fil0" d="M7350 6696l357 -10c55,-1 101,42 102,97l10 358c1,54 -43,100 -97,102l-358 9c-54,1 -100,-42 -102,-97l-9 -357c-1,-55 42,-101 97,-102z"/>
  <path class="fil1 str2" d="M7350 6696l357 -10c55,-1 101,42 102,97l10 358c1,54 -43,100 -97,102l-358 9c-54,1 -100,-42 -102,-97l-9 -357c-1,-55 42,-101 97,-102"/>
  <path class="fil0" d="M6750 7338l358 -10c55,-1 101,42 102,97l9 358c2,54 -42,100 -96,102l-358 9c-55,1 -100,-42 -102,-97l-9 -357c-2,-55 42,-101 96,-102z"/>
  <path class="fil0" d="M6750 7338l358 -10c54,-1 100,42 102,97l9 358c2,54 -42,100 -97,101l-357 10c-55,1 -101,-42 -102,-97l-9 -357c-2,-55 42,-101 96,-102z"/>
  <path class="fil1 str2" d="M6750 7338l358 -10c54,-1 100,42 102,97l9 358c2,54 -42,100 -97,101l-357 10c-55,1 -101,-42 -102,-97l-9 -357c-2,-55 42,-101 96,-102"/>
  <path class="fil0" d="M7366 7322l358 -10c54,-1 100,42 102,97l9 357c2,55 -42,101 -97,102l-357 10c-55,1 -101,-42 -102,-97l-9 -358c-2,-54 42,-100 96,-101z"/>
  <path class="fil0" d="M7366 7321l358 -9c54,-1 100,42 102,97l9 357c1,55 -42,101 -97,102l-357 10c-55,1 -101,-42 -102,-97l-10 -358c-1,-54 42,-100 97,-102z"/>
  <path class="fil1 str2" d="M7366 7321l358 -9c54,-1 100,42 102,97l9 357c1,55 -42,101 -97,102l-357 10c-55,1 -101,-42 -102,-97l-10 -358c-1,-54 42,-100 97,-102"/>
  <polygon class="fil0" points="8106,5156 9520,5119 9522,5185 8108,5222 "/>
  <polygon class="fil0" points="8263,6503 9213,6478 9214,6543 8264,6568 "/>
  <polygon class="fil0" points="5654,4359 5207,5281 5549,5454 6510,5273 6331,4430 "/>
  <polygon class="fil0" points="3271,1420 3103,1247 3201,1131 3369,1304 "/>
  <path class="fil0" d="M8805 5696c-3,-113 86,-207 200,-210 113,-3 207,86 210,200 3,113 -86,207 -200,210 -113,3 -207,-86 -210,-200z"/>
  <path class="fil0" d="M9141 5589l-265 7 131 -48 134 41zm35 207l-323 8 -1 -21 12 0 0 -12 11 0 0 -12 23 0 1 -135 -6 0 0 -24 231 -6 1 24 -5 0 3 63 4 72 23 0 0 13 12 0 1 11 12 -1 1 20zm-64 -211l-105 -32 -103 37 208 -5zm9 169l-6 -135 -13 0 1 136 18 -1zm-1 -155l-222 6 0 14 222 -6 0 -14zm-65 157l-6 -136 -13 1 1 135 18 0zm-66 2l-6 -136 -13 0 0 136 19 0zm181 32l0 -11 -12 1 0 -11 -12 0 0 -11 -266 7 0 11 -12 0 1 11 -12 1 0 10 313 -8zm-247 -31l-6 -135 -14 0 1 136 19 -1z"/>
  <polygon class="fil0" points="9609,9309 2718,9309 2744,11421 6038,10298 6997,10385 9566,10613 9670,9416 "/>
  <polygon class="fil0" points="2969,479 3003,442 2955,404 "/>
  <polygon class="fil0" points="5117,1981 5170,1980 5178,2300 5168,2319 5145,2311 "/>
  <polygon class="fil0" points="5369,2387 5372,2381 5221,2332 5219,2336 "/>
  <path class="fil0" d="M6217 3108l5 -12 -188 -159 -8 19 150 142 41 10zm-215 -176l8 -20 -152 -122 -2 4 146 138z"/>
  <polygon class="fil3" points="2948,372 2946,359 2946,359 2951,370 "/>
  <polygon class="fil1 str3" points="1991,1460 2628,853 2967,522 3206,930 3666,1341 3972,1487 4322,1597 4767,1625 4849,1915 5106,1921 5145,2319 5460,2422 6173,3098 7605,3451 7626,4060 8185,4282 9656,4229 9552,4967 9562,5775 9625,5862 9622,6164 9555,6594 9468,7397 9512,7734 9707,8209 9695,8632 9535,9179 9670,9416 9566,10613 6997,10385 6038,10298 2744,11421 2702,8092 2642,6896 2369,5959 1954,4878 1521,3958 1386,3790 459,2963 601,2806 1037,2379 "/>
 </g>
</svg>
