<?xml version="1.0" encoding="UTF-8"?>
<!DOCTYPE svg PUBLIC "-//W3C//DTD SVG 1.1//EN" "http://www.w3.org/Graphics/SVG/1.1/DTD/svg11.dtd">
<!-- Creator: CorelDRAW X7 -->
<svg xmlns="http://www.w3.org/2000/svg" xml:space="preserve" width="64.2806mm" height="57.854mm" version="1.1" style="shape-rendering:geometricPrecision; text-rendering:geometricPrecision; image-rendering:optimizeQuality; fill-rule:evenodd; clip-rule:evenodd"
viewBox="0 0 19924 17932"
 xmlns:xlink="http://www.w3.org/1999/xlink">
 <defs>
  <style type="text/css">
   <![CDATA[
    .str1 {stroke:white;stroke-width:1549.75}
    .str0 {stroke:#FEFEFE;stroke-width:10.2284}
    .fil2 {fill:none}
    .fil0 {fill:#BFEAF5}
    .fil3 {fill:white}
    .fil1 {fill:#BFEAF5;fill-rule:nonzero}
   ]]>
  </style>
 </defs>
 <g id="Capa_x0020_1">
  <metadata id="CorelCorpID_0Corel-Layer"/>
  <polygon class="fil0" points="521,6331 901,7126 742,7304 218,6522 "/>
  <polygon class="fil0" points="993,7028 984,7033 619,6269 822,6141 "/>
  <polygon class="fil0" points="772,1213 294,1226 291,1102 772,1083 "/>
  <polygon class="fil0" points="298,1375 773,1362 775,1946 313,1958 "/>
  <polygon class="fil0" points="317,2107 776,2095 778,2679 332,2691 "/>
  <path class="fil0" d="M1027 7208c-60,-53 -99,-130 -101,-216 -2,-52 10,-100 32,-143l69 359z"/>
  <path class="fil1" d="M467 6223l11 24 38 -8 21 46 -29 28 12 26 123 -126 -11 -25 -165 35zm532 837l9 50 -92 94 -11 -25 28 -29 -21 -46 -38 9 -11 -25 136 -28zm-461 -826l66 -15 -50 49 -16 -34zm-10 122l11 24 95 -53 -70 107 10 21 143 -79 -11 -24 -91 51 67 -104 -11 -23 -143 80zm69 150l11 25 123 -68 14 32 21 -12 -40 -88 -21 11 15 32 -123 68zm30 66l11 24 37 -8 22 46 -29 28 12 26 123 -126 -11 -25 -165 35zm71 11l66 -15 -50 49 -16 -34zm104 -48l8 18 29 14 -1 -26 -36 -6zm-114 170l11 24 51 -28 8 15c0,1 0,2 1,3l-39 56 13 28 43 -63c13,12 31,17 52,5l2 -1c13,-7 22,-18 26,-31 4,-13 2,-29 -5,-45l-20 -43 -143 80zm82 -15l52 -29 7 16c9,18 5,34 -12,44 -15,8 -30,4 -40,-17l-7 -14zm-18 155l11 24 123 -68 15 32 20 -11 -40 -88 -21 11 15 32 -123 68zm35 76l11 25 144 -80 -11 -24 -144 79zm24 53l17 36c18,41 56,51 100,27l3 -2c44,-24 59,-64 40,-104l-16 -37 -144 80zm140 -32c11,24 2,49 -32,68l-2 2c-34,18 -58,11 -69,-13l-6 -12 104 -57 5 12zm-17 157l66 -14 -50 49 -16 -35z"/>
  <polygon class="fil0" points="13791,16403 13801,16790 13353,16802 13341,16339 13528,16413 "/>
  <polygon class="fil0" points="16563,16718 13934,16787 13924,16398 16705,16299 16668,16517 "/>
  <polygon class="fil0" points="11996,14395 12002,14639 11556,14650 11020,14344 10148,14063 10182,13948 "/>
  <polygon class="fil0" points="4530,10021 4360,10026 4325,10008 "/>
  <path class="fil0" d="M16932 16290l155 -931 90 649 -73 241 -65 52 0 -14 -107 3zm465 -3366c146,-1236 216,-1743 391,-3001l36 -23 863 -11 -849 1778 -441 1257z"/>
  <polygon class="fil0" points="1079,7312 1156,7220 1411,7742 1327,7842 1098,7408 "/>
  <polygon class="fil0" points="1084,7339 1164,7251 1049,7162 "/>
  <polygon class="fil0" points="9635,12105 9833,10829 10575,10960 10654,11236 10671,11532 10030,11344 10009,11448 10646,11656 10330,12391 "/>
  <polygon class="fil0" points="9233,13229 9347,13009 9775,13140 9795,13079 9378,12949 9508,12697 10218,12919 10158,13468 "/>
  <polygon class="fil0" points="9562,12577 9620,12200 10306,12483 10246,12789 "/>
  <polygon class="fil0" points="6876,11770 7212,10898 6459,10918 6478,11635 "/>
  <polygon class="fil0" points="8142,10874 9689,10833 9625,11246 8806,11131 8375,11638 8754,11842 9486,12144 9415,12601 9226,12931 8934,12784 8908,12829 9196,12985 8907,13490 7002,11856 7373,10894 8050,10876 7763,11646 7853,11664 "/>
  <polygon class="fil0" points="9493,11522 9583,11526 9611,11344 8831,11230 8824,11242 9173,11416 "/>
  <polygon class="fil0" points="9059,11423 8791,11770 8503,11615 8796,11271 "/>
  <polygon class="fil0" points="1391,7956 1460,7877 2817,9296 2738,9389 2728,9384 1666,8399 "/>
  <polygon class="fil0" points="978,6042 1039,7000 1020,7012 846,6125 "/>
  <polygon class="fil0" points="816,5701 969,5697 974,5901 862,5971 817,5926 "/>
  <polygon class="fil0" points="794,2828 894,2825 909,3409 798,3412 "/>
  <polygon class="fil0" points="799,3561 913,3558 928,4141 804,4144 "/>
  <polygon class="fil0" points="805,4293 932,4290 947,4874 809,4877 "/>
  <polygon class="fil0" points="811,5026 951,5023 965,5548 815,5552 "/>
  <polygon class="fil0" points="848,1082 851,1211 782,1213 781,1084 "/>
  <polygon class="fil0" points="783,1362 855,1360 870,1944 787,1946 "/>
  <polygon class="fil0" points="788,2095 874,2093 890,2676 793,2679 "/>
  <polygon class="fil0" points="13881,14738 14438,14724 14456,15435 13899,15450 "/>
  <polygon class="fil0" points="14571,14720 15128,14706 15147,15417 14590,15432 "/>
  <polygon class="fil0" points="15262,14702 15819,14688 15837,15399 15280,15414 "/>
  <polygon class="fil0" points="14551,13956 15108,13941 15124,14557 14567,14571 "/>
  <polygon class="fil0" points="15242,13938 15799,13923 15815,14539 15258,14553 "/>
  <polygon class="fil0" points="12159,14783 12587,14772 12605,15484 12185,15495 "/>
  <polygon class="fil0" points="12119,14020 12567,14008 12583,14623 12153,14635 12145,14427 12130,14423 "/>
  <polygon class="fil0" points="12097,13175 12545,13164 12563,13859 12115,13871 "/>
  <polygon class="fil0" points="12074,12299 12522,12287 12541,13015 12093,13026 "/>
  <polygon class="fil0" points="11382,11584 11788,11574 11792,11761 11915,11757 11910,11570 12502,11555 12518,12138 11762,12158 11394,12028 "/>
  <polygon class="fil0" points="11745,12308 11941,12303 11960,13030 10391,12839 10452,12456 10695,11939 "/>
  <polygon class="fil0" points="12263,10828 12483,10822 12499,11406 11906,11421 11901,11255 11779,11258 11784,11425 11263,11438 10818,11317 10703,10859 10689,10857 10684,10647 10562,10650 10566,10835 9903,10720 9888,10157 12243,10096 "/>
  <polygon class="fil0" points="10786,11677 11317,11863 11322,12023 10737,11827 "/>
  <polygon class="fil0" points="10794,11436 11311,11613 11315,11773 10798,11596 "/>
  <polygon class="fil0" points="12617,10819 13063,10807 13078,11391 12632,11402 "/>
  <polygon class="fil0" points="13196,10804 13644,10792 13659,11376 13212,11387 "/>
  <polygon class="fil0" points="13777,10788 14334,10774 14349,11357 13792,11372 "/>
  <polygon class="fil0" points="14468,10770 15025,10756 15040,11339 14483,11354 "/>
  <polygon class="fil0" points="15158,10752 15715,10738 15731,11321 15173,11336 "/>
  <polygon class="fil0" points="15177,11485 15734,11470 15750,12054 15193,12068 "/>
  <polygon class="fil0" points="14487,11503 15044,11488 15059,12072 14502,12086 "/>
  <polygon class="fil0" points="13796,11521 14353,11506 14369,12090 13812,12104 "/>
  <polygon class="fil0" points="13216,11536 13663,11524 13678,12108 13231,12120 "/>
  <polygon class="fil0" points="12636,11551 13082,11540 13098,12123 12651,12135 "/>
  <polygon class="fil0" points="12655,12284 13101,12272 13120,12999 12674,13011 "/>
  <polygon class="fil0" points="13235,12269 13682,12257 13701,12984 13254,12996 "/>
  <polygon class="fil0" points="13815,12253 14373,12239 14392,12966 13834,12981 "/>
  <polygon class="fil0" points="14506,12235 15063,12221 15082,12948 14525,12963 "/>
  <polygon class="fil0" points="15197,12217 15754,12203 15773,12930 15216,12945 "/>
  <polygon class="fil0" points="15219,13093 15777,13079 15795,13774 15238,13789 "/>
  <polygon class="fil0" points="14529,13112 15086,13097 15104,13792 14547,13807 "/>
  <polygon class="fil0" points="13838,13130 14396,13115 14414,13810 13857,13825 "/>
  <polygon class="fil0" points="13258,13145 13705,13133 13723,13828 13276,13840 "/>
  <polygon class="fil0" points="12678,13160 13124,13148 13143,13844 12696,13855 "/>
  <polygon class="fil0" points="13860,13974 14418,13959 14434,14575 13877,14589 "/>
  <polygon class="fil0" points="12700,14004 13146,13993 13163,14608 12716,14620 "/>
  <polygon class="fil0" points="13280,13989 13727,13977 13743,14593 13296,14605 "/>
  <polygon class="fil0" points="12720,14769 13167,14757 13185,15468 12739,15480 "/>
  <polygon class="fil0" points="13300,14754 13747,14742 13766,15453 13318,15465 "/>
  <polygon class="fil0" points="13322,15614 13770,15602 13791,16399 13528,16408 13341,16335 "/>
  <polygon class="fil0" points="13924,16394 13903,15599 14460,15584 14470,15954 14603,15951 14594,15581 16838,15522 16705,16298 "/>
  <polygon class="fil0" points="12353,10093 12510,10089 12525,10672 12368,10676 "/>
  <polygon class="fil0" points="12597,10086 13044,10075 13059,10658 12613,10670 "/>
  <polygon class="fil0" points="13177,10071 13624,10059 13640,10643 13192,10655 "/>
  <polygon class="fil0" points="14448,10038 15006,10023 15021,10607 14464,10621 "/>
  <polygon class="fil0" points="15139,10020 15696,10005 15711,10589 15154,10603 "/>
  <polygon class="fil0" points="15952,14684 16953,14658 16889,15371 15971,15395 "/>
  <polygon class="fil0" points="15910,13075 17118,13044 16970,14508 15948,14535 "/>
  <polygon class="fil0" points="15868,11467 17283,11430 17135,12894 15906,12926 "/>
  <polygon class="fil0" points="15830,10002 17451,9959 17300,11280 15864,11318 "/>
  <polygon class="fil0" points="13758,10056 14315,10041 14330,10625 13773,10640 "/>
  <polygon class="fil0" points="5475,9396 7485,9344 8112,9327 9630,9288 9665,10599 5553,10707 5504,10523 "/>
  <polygon class="fil0" points="11486,13821 11506,13496 11423,13473 11373,13872 11369,14170 11459,14174 11472,13957 11986,14023 11996,14390 10183,13945 10275,13636 10650,13732 10625,13957 10692,13969 10798,13225 10732,13213 10671,13625 10300,13521 10365,12969 11964,13179 11982,13874 "/>
  <polygon class="fil0" points="6629,881 6846,9164 6489,9174 6272,894 "/>
  <path class="fil0" d="M1216 6686c164,-4 301,126 305,290 5,165 -125,301 -290,306 -61,1 -119,-16 -167,-47l-83 -423c52,-74 137,-123 235,-126z"/>
  <path class="fil0" d="M1219 6809c96,-2 177,74 179,170 3,97 -73,177 -170,180 -96,2 -176,-74 -179,-170 -2,-97 74,-177 170,-180z"/>
  <polygon class="fil1" points="1034,7084 1028,7054 1028,7054 1040,7079 "/>
  <polygon class="fil0" points="1738,6789 1973,6572 2558,6557 2581,7434 2595,7969 2076,7465 "/>
  <polygon class="fil0" points="1660,7658 1396,7078 1643,6844 1987,7544 1988,7544 2600,8138 2612,8606 "/>
  <polygon class="fil0" points="2650,6555 3207,6540 3223,7124 2665,7138 "/>
  <polygon class="fil0" points="2669,7287 3226,7273 3242,7856 2685,7871 "/>
  <polygon class="fil0" points="3299,6538 3856,6523 3872,7107 3314,7121 "/>
  <polygon class="fil0" points="3318,7270 3875,7256 3891,7839 3334,7854 "/>
  <polygon class="fil0" points="3337,8003 3895,7988 3910,8572 3353,8586 "/>
  <polygon class="fil0" points="3948,6521 4505,6506 4521,7090 3963,7104 "/>
  <polygon class="fil0" points="3967,7253 4525,7239 4540,7822 3983,7837 "/>
  <polygon class="fil0" points="4597,6504 5154,6489 5170,7073 4612,7087 "/>
  <polygon class="fil0" points="4616,7236 5174,7222 5189,7805 4632,7820 "/>
  <polygon class="fil0" points="5246,6487 5803,6472 5819,7056 5261,7070 "/>
  <polygon class="fil0" points="5265,7219 5823,7205 5838,7788 5281,7803 "/>
  <polygon class="fil0" points="5285,7952 5842,7937 5857,8521 5300,8535 "/>
  <polygon class="fil0" points="4266,8562 4002,8569 3987,7986 4628,7969 "/>
  <polygon class="fil0" points="5193,7954 5208,8538 4404,8559 4766,7965 "/>
  <polygon class="fil0" points="5212,8686 5227,9270 3950,9304 4312,8710 "/>
  <polygon class="fil0" points="3626,9611 2742,8751 4173,8714 "/>
  <polygon class="fil0" points="3861,9455 5275,9418 5290,10001 4627,10019 4307,9999 4306,9998 3720,9700 "/>
  <polygon class="fil0" points="3070,8594 2704,8603 2694,8229 "/>
  <polygon class="fil0" points="2689,8020 3246,8005 3261,8589 3234,8589 2690,8061 "/>
  <polygon class="fil0" points="8882,8590 9440,8576 9452,9041 8895,9056 "/>
  <polygon class="fil0" points="8192,8608 8749,8594 8761,9059 8204,9074 "/>
  <polygon class="fil0" points="7501,8627 8058,8612 8071,9077 7513,9092 "/>
  <polygon class="fil0" points="6811,8645 7368,8630 7380,9095 6823,9110 "/>
  <polygon class="fil0" points="7482,7894 8039,7879 8055,8463 7497,8478 "/>
  <polygon class="fil0" points="7463,7162 8020,7147 8035,7731 7478,7745 "/>
  <polygon class="fil0" points="6753,6447 7310,6433 7326,7016 6768,7031 "/>
  <polygon class="fil0" points="6772,7180 7330,7165 7345,7749 6788,7763 "/>
  <path class="fil0" d="M6792 7912c185,-5 371,-10 557,-14l15 583 -557 15 -15 -584z"/>
  <polygon class="fil0" points="7444,6429 8001,6415 8016,6998 7459,7013 "/>
  <polygon class="fil0" points="5895,6470 6452,6455 6468,7039 5910,7053 "/>
  <polygon class="fil0" points="5914,7202 6472,7188 6487,7771 5930,7786 "/>
  <path class="fil0" d="M5934 7935c185,-5 371,-10 557,-15l15 584 -557 14 -15 -583z"/>
  <polygon class="fil0" points="6522,9118 5316,9149 5304,8684 6510,8653 "/>
  <polygon class="fil0" points="8686,1097 9243,1082 9259,1666 8701,1680 "/>
  <polygon class="fil0" points="7996,1115 8553,1100 8568,1684 8011,1698 "/>
  <polygon class="fil0" points="7305,1133 7862,1118 7877,1702 7320,1716 "/>
  <path class="fil0" d="M6614 1151c186,-5 372,-10 558,-15l15 584 -557 15 -16 -584z"/>
  <polygon class="fil0" points="6634,1883 7191,1869 7206,2452 6649,2467 "/>
  <polygon class="fil0" points="7324,1865 7881,1851 7897,2434 7339,2449 "/>
  <polygon class="fil0" points="8015,1847 8572,1833 8587,2416 8030,2431 "/>
  <polygon class="fil0" points="8705,1829 9262,1815 9278,2398 8721,2413 "/>
  <polygon class="fil0" points="6653,2616 7210,2601 7225,3185 6668,3199 "/>
  <polygon class="fil0" points="7343,2598 7901,2583 7916,3167 7359,3181 "/>
  <polygon class="fil0" points="8034,2580 8591,2565 8606,3149 8049,3163 "/>
  <path class="fil0" d="M6672 3348l557 -14 15 583c-185,5 -371,10 -557,15l-15 -584z"/>
  <polygon class="fil0" points="7363,3330 7920,3316 7935,3899 7378,3914 "/>
  <polygon class="fil0" points="8053,3312 8610,3298 8626,3881 8068,3896 "/>
  <path class="fil0" d="M6691 4081l557 -15 16 584c-186,5 -372,10 -558,14l-15 -583z"/>
  <polygon class="fil0" points="7382,4063 7939,4048 7954,4632 7397,4646 "/>
  <polygon class="fil0" points="8072,4045 8629,4030 8645,4614 8088,4628 "/>
  <path class="fil0" d="M6710 4813c186,-5 372,-9 558,-14l15 583 -557 15 -16 -584z"/>
  <polygon class="fil0" points="7401,4795 7958,4781 7973,5364 7416,5379 "/>
  <polygon class="fil0" points="8091,4777 8649,4763 8664,5346 8107,5361 "/>
  <polygon class="fil0" points="7420,5528 7977,5513 7993,6097 7435,6111 "/>
  <polygon class="fil0" points="5223,5585 5780,5571 5795,6154 5238,6169 "/>
  <polygon class="fil0" points="5203,4853 5761,4838 5776,5422 5219,5436 "/>
  <polygon class="fil0" points="5184,4120 5741,4106 5757,4689 5199,4704 "/>
  <polygon class="fil0" points="5165,3388 5722,3373 5737,3957 5180,3971 "/>
  <polygon class="fil0" points="5146,2655 5703,2641 5718,3224 5161,3239 "/>
  <polygon class="fil0" points="4574,5602 5131,5588 5146,6171 4589,6186 "/>
  <polygon class="fil0" points="4554,4870 5112,4855 5127,5439 4570,5453 "/>
  <polygon class="fil0" points="4535,4137 5092,4123 5108,4706 4550,4721 "/>
  <polygon class="fil0" points="4516,3405 5073,3390 5088,3974 4531,3988 "/>
  <polygon class="fil0" points="4497,2672 5054,2658 5069,3241 4512,3256 "/>
  <polygon class="fil0" points="3925,5619 4482,5605 4497,6188 3940,6203 "/>
  <polygon class="fil0" points="3905,4887 4463,4872 4478,5456 3921,5470 "/>
  <polygon class="fil0" points="3886,4154 4443,4140 4459,4723 3901,4738 "/>
  <polygon class="fil0" points="3867,3422 4424,3407 4439,3991 3882,4005 "/>
  <polygon class="fil0" points="3848,2689 4405,2675 4420,3258 3863,3273 "/>
  <polygon class="fil0" points="3276,5636 3833,5622 3848,6205 3291,6220 "/>
  <polygon class="fil0" points="3256,4904 3814,4889 3829,5473 3272,5487 "/>
  <polygon class="fil0" points="3237,4171 3794,4157 3810,4740 3252,4755 "/>
  <polygon class="fil0" points="3218,3439 3775,3424 3790,4008 3233,4022 "/>
  <polygon class="fil0" points="3199,2706 3756,2692 3771,3275 3214,3290 "/>
  <polygon class="fil0" points="2550,2723 3107,2709 3122,3292 2565,3307 "/>
  <polygon class="fil0" points="2569,3456 3126,3441 3141,4025 2584,4039 "/>
  <polygon class="fil0" points="2588,4188 3145,4174 3161,4757 2603,4772 "/>
  <polygon class="fil0" points="2607,4921 3164,4906 3180,5490 2623,5504 "/>
  <polygon class="fil0" points="2626,5653 3184,5639 3199,6222 2642,6237 "/>
  <polygon class="fil0" points="1978,5670 2535,5656 2550,6239 1993,6254 "/>
  <polygon class="fil0" points="1329,5687 1886,5673 1902,6290 1356,6720 "/>
  <path class="fil0" d="M1309 4955c186,-5 372,-10 557,-15l16 584 -557 14 -16 -583z"/>
  <polygon class="fil0" points="1958,4938 2515,4923 2531,5507 1974,5521 "/>
  <path class="fil0" d="M1290 4222l557 -14 16 583c-186,5 -372,10 -558,15l-15 -584z"/>
  <polygon class="fil0" points="1939,4205 2496,4191 2512,4774 1954,4789 "/>
  <path class="fil0" d="M1271 3490l557 -15 15 584c-185,5 -371,10 -557,14l-15 -583z"/>
  <polygon class="fil0" points="1920,3473 2477,3458 2492,4042 1935,4056 "/>
  <polygon class="fil0" points="1252,2757 1809,2743 1824,3326 1267,3341 "/>
  <polygon class="fil0" points="1901,2740 2458,2726 2473,3309 1916,3324 "/>
  <polygon class="fil0" points="1233,2025 1790,2010 1805,2594 1248,2608 "/>
  <polygon class="fil0" points="1882,2008 2439,1993 2454,2577 1897,2591 "/>
  <polygon class="fil0" points="2531,1991 3088,1976 3103,2560 2546,2574 "/>
  <polygon class="fil0" points="3180,1974 3737,1959 3752,2543 3195,2557 "/>
  <polygon class="fil0" points="3829,1957 4386,1942 4401,2526 3844,2540 "/>
  <polygon class="fil0" points="4478,1940 5035,1925 5050,2509 4493,2523 "/>
  <polygon class="fil0" points="5127,1923 5684,1908 5699,2492 5142,2506 "/>
  <polygon class="fil0" points="5107,1190 5665,1176 5680,1759 5123,1774 "/>
  <polygon class="fil0" points="4458,1207 5016,1193 5031,1776 4474,1791 "/>
  <polygon class="fil0" points="3809,1224 4367,1210 4382,1793 3825,1808 "/>
  <polygon class="fil0" points="3160,1241 3718,1227 3733,1810 3176,1825 "/>
  <polygon class="fil0" points="2511,1258 3069,1244 3084,1827 2527,1842 "/>
  <polygon class="fil0" points="1862,1275 2420,1261 2435,1844 1878,1859 "/>
  <path class="fil0" d="M1213 1292c186,-4 372,-9 558,-14l15 583 -557 15 -16 -584z"/>
  <polygon class="fil0" points="8825,6393 9382,6378 9397,6962 8840,6977 "/>
  <polygon class="fil0" points="8844,7125 9401,7111 9416,7694 8859,7709 "/>
  <polygon class="fil0" points="8863,7858 9420,7843 9436,8427 8878,8441 "/>
  <polygon class="fil0" points="8134,6411 8691,6396 8707,6980 8150,6995 "/>
  <polygon class="fil0" points="8153,7143 8711,7129 8726,7712 8169,7727 "/>
  <polygon class="fil0" points="8173,7876 8730,7861 8745,8445 8188,8460 "/>
  <polygon class="fil0" points="8111,5510 8668,5495 8683,6079 8126,6093 "/>
  <polygon class="fil0" points="8801,5492 9358,5477 9374,6060 8816,6075 "/>
  <polygon class="fil0" points="8782,4759 9339,4744 9354,5328 8797,5343 "/>
  <polygon class="fil0" points="8763,4027 9320,4012 9335,4596 8778,4610 "/>
  <polygon class="fil0" points="8744,3294 9301,3279 9316,3863 8759,3878 "/>
  <polygon class="fil0" points="8724,2562 9282,2547 9297,3131 8740,3145 "/>
  <polygon class="fil0" points="5872,5568 6429,5554 6444,6137 5887,6152 "/>
  <path class="fil0" d="M5852 4836c186,-5 372,-10 558,-15l15 584 -557 14 -16 -583z"/>
  <path class="fil0" d="M5833 4103l557 -14 16 583c-186,5 -372,10 -558,15l-15 -584z"/>
  <path class="fil0" d="M5814 3371l557 -15 15 584c-185,5 -371,10 -557,14l-15 -583z"/>
  <polygon class="fil0" points="5795,2638 6352,2624 6367,3207 5810,3222 "/>
  <polygon class="fil0" points="5776,1906 6333,1891 6348,2475 5791,2489 "/>
  <path class="fil0" d="M5756 1173c186,-4 372,-9 558,-14l15 583 -557 15 -16 -584z"/>
  <polygon class="fil0" points="6730,5546 7287,5531 7302,6115 6745,6129 "/>
  <path class="fil0" d="M6828 5630l147 -4 3 130c-14,8 -25,21 -32,37l-114 3 -4 -166zm218 -6l147 -4 4 166 -114 3c-8,-15 -19,-27 -33,-35l-4 -130zm153 241l5 166 -147 4 -4 -130c14,-9 25,-22 32,-37l114 -3zm-214 172l-146 3 -5 -166 115 -3c7,16 19,28 33,36l3 130z"/>
  <path class="fil0" d="M6828 5630l146 -4 4 130c-14,8 -25,21 -32,37l-114 3 -4 -166zm218 -6l146 -4 5 166 -114 3c-8,-15 -20,-27 -34,-35l-3 -130zm153 241l4 166 -147 4 -3 -130c14,-9 25,-22 32,-37l114 -3zm-214 172l-147 3 -4 -166 114 -3c8,16 19,28 34,36l3 130z"/>
  <path class="fil2 str0" d="M6828 5630l146 -4 4 130c-14,8 -25,21 -32,37l-114 3 -4 -166m218 -6l146 -4 5 166 -114 3c-8,-15 -20,-27 -34,-35l-3 -130m153 241l4 166 -147 4 -3 -130c14,-9 25,-22 32,-37l114 -3m-214 172l-147 3 -4 -166 114 -3c8,16 19,28 34,36l3 130"/>
  <polygon class="fil0" points="6338,1336 6608,1329 6646,2789 6376,2796 "/>
  <path class="fil0" d="M6461 1164l11 0c32,-1 59,33 60,76l3 109c1,43 -24,79 -56,80l-11 0c-32,1 -59,-34 -60,-76l-3 -110c-1,-43 24,-78 56,-79z"/>
  <path class="fil0" d="M6488 2205l11 0c32,-1 59,33 60,76l3 109c1,43 -24,79 -56,80l-11 0c-32,1 -59,-34 -60,-76l-3 -110c-1,-43 24,-78 56,-79z"/>
  <path class="fil0" d="M6499 2620l11 0c32,-1 59,33 60,76l3 109c1,43 -24,79 -56,80l-11 0c-32,1 -59,-34 -60,-76l-3 -110c-1,-43 24,-78 56,-79z"/>
  <path class="fil0" d="M6508 2940l10 0c32,-1 59,34 60,76l3 110c1,43 -24,78 -56,79l-11 0c-32,1 -59,-33 -60,-76l-3 -109c-1,-43 24,-79 57,-80z"/>
  <path class="fil0" d="M6518 3355l11 0c32,-1 59,34 60,76l3 110c1,43 -24,78 -56,79l-11 0c-32,1 -59,-33 -60,-76l-3 -109c-1,-43 24,-79 56,-80z"/>
  <path class="fil0" d="M6527 3676l10 0c32,-1 60,33 61,76l3 110c1,42 -25,78 -57,79l-10 0c-32,1 -59,-33 -61,-76l-2 -110c-2,-42 24,-78 56,-79z"/>
  <path class="fil0" d="M6537 4081l11 0c32,-1 59,33 60,76l3 109c1,43 -24,79 -56,80l-11 0c-32,1 -59,-34 -60,-76l-3 -110c-1,-43 24,-78 56,-79z"/>
  <path class="fil0" d="M6546 4402l10 -1c32,-1 60,34 61,76l3 110c1,43 -25,78 -57,79l-10 0c-32,1 -59,-33 -61,-76l-2 -109c-2,-43 24,-79 56,-79z"/>
  <path class="fil0" d="M6557 4811l10 0c32,-1 59,34 60,76l3 110c1,43 -24,78 -56,79l-11 0c-32,1 -59,-33 -60,-76l-3 -109c-1,-43 24,-79 57,-80z"/>
  <path class="fil0" d="M6565 5132l11 0c32,-1 59,33 60,76l3 109c1,43 -25,79 -57,80l-10 0c-32,1 -59,-33 -60,-76l-3 -110c-1,-42 24,-78 56,-79z"/>
  <path class="fil0" d="M6576 5542l10 0c32,-1 59,33 61,76l2 109c2,43 -24,79 -56,80l-10 0c-32,1 -60,-34 -61,-76l-3 -110c-1,-43 25,-78 57,-79z"/>
  <path class="fil0" d="M6584 5863l11 -1c32,-1 59,34 60,76l3 110c1,43 -24,78 -56,79l-11 0c-32,1 -59,-33 -60,-76l-3 -109c-1,-43 24,-79 56,-79z"/>
  <path class="fil0" d="M6600 6461l10 0c32,-1 60,34 61,76l3 110c1,43 -25,78 -57,79l-10 0c-32,1 -60,-33 -61,-76l-3 -109c-1,-43 25,-79 57,-80z"/>
  <path class="fil0" d="M6608 6782l11 0c32,-1 59,33 60,76l3 109c1,43 -24,79 -56,80l-11 0c-32,1 -59,-33 -60,-76l-3 -110c-1,-42 24,-78 56,-79z"/>
  <path class="fil0" d="M6619 7182l10 -1c32,0 59,34 61,77l2 109c2,43 -24,79 -56,79l-10 1c-33,1 -60,-34 -61,-77l-3 -109c-1,-43 25,-78 57,-79z"/>
  <path class="fil0" d="M6627 7502l11 0c32,-1 59,34 60,76l3 110c1,43 -24,78 -56,79l-11 0c-32,1 -59,-33 -60,-76l-3 -109c-1,-43 24,-79 56,-80z"/>
  <path class="fil0" d="M6638 7907l10 0c32,-1 59,33 61,76l2 110c2,42 -24,78 -56,79l-10 0c-33,1 -60,-33 -61,-76l-3 -110c-1,-42 25,-78 57,-79z"/>
  <path class="fil0" d="M6646 8228l11 -1c32,0 59,34 60,77l3 109c1,43 -24,79 -56,79l-11 1c-32,1 -59,-34 -60,-77l-3 -109c-1,-43 24,-78 56,-79z"/>
  <path class="fil0" d="M6656 8607l11 0c32,-1 59,33 60,76l3 109c1,43 -24,79 -57,80l-10 0c-32,1 -59,-34 -60,-76l-3 -110c-1,-43 24,-78 56,-79z"/>
  <path class="fil0" d="M6664 8928l11 -1c32,-1 59,34 60,77l3 109c1,43 -24,78 -56,79l-11 1c-32,0 -59,-34 -60,-77l-3 -109c-1,-43 24,-79 56,-79z"/>
  <path class="fil0" d="M6393 8544c-82,28 -33,137 38,110 70,-26 32,-134 -38,-110z"/>
  <path class="fil0" d="M16404 11803c-18,24 -21,53 -27,85l-41 259 562 137c-23,-48 -432,-434 -494,-481z"/>
  <path class="fil0" d="M16107 12059c-66,-26 -350,-134 -410,-137l-48 266 428 38 30 -167z"/>
  <path class="fil0" d="M16114 12023l32 -152c-53,-43 -265,-195 -322,-215l-112 231 402 136z"/>
  <path class="fil0" d="M15648 12219c41,166 17,200 88,205 69,6 227,2 298,-3 20,-39 41,-127 23,-168l-409 -34z"/>
  <path class="fil0" d="M15801 11632c-37,-41 -132,-124 -175,-144l-154 315 216 70 113 -241z"/>
  <polygon class="fil0" points="15667,11903 15459,11831 15393,12164 15618,12183 "/>
  <path class="fil0" d="M16014 11488c-51,22 -143,99 -165,148 99,44 225,167 321,205l62 -108c-64,-90 -160,-158 -218,-245z"/>
  <path class="fil0" d="M15510 12501c53,-23 106,-58 158,-71l-55 -218 -219 -20 52 322c4,1 8,1 10,1l54 -14z"/>
  <path class="fil0" d="M15648 11448c15,30 150,146 179,159 32,-19 55,-49 86,-74 36,-30 51,-34 71,-84 -48,-42 -79,-131 -129,-168 -37,22 -68,57 -103,86 -35,29 -69,60 -104,81z"/>
  <path class="fil0" d="M16133 12540c120,-22 673,-190 733,-184 -93,-20 -524,6 -646,13l-87 171z"/>
  <polygon class="fil0" points="16239,12341 16909,12314 16322,12173 "/>
  <path class="fil0" d="M15464 12557c27,43 83,90 121,137l226 -96 -120 -149 -227 108z"/>
  <path class="fil0" d="M15891 11260c124,195 92,199 191,190 35,-3 75,-8 112,-13l-73 -205 -230 28z"/>
  <path class="fil0" d="M15722 12449c25,43 27,33 61,69 22,23 37,45 53,75l246 -39 -34 -104 -326 -1z"/>
  <path class="fil0" d="M16257 11693c1,-2 5,-5 6,-7 2,-2 5,-6 6,-8l54 -96c-114,-152 -141,-116 -277,-102 61,53 132,169 204,220 2,-2 5,-6 7,-7z"/>
  <path class="fil0" d="M16252 12242c27,-36 40,-59 53,-111 -45,-21 -118,-48 -172,-61l-29 160 148 12z"/>
  <path class="fil0" d="M16307 12096c49,-98 19,-132 -137,-209l-27 145c42,29 112,47 164,64z"/>
  <path class="fil0" d="M16605 11905c-40,-47 -71,-81 -108,-127l-115 -124c19,116 14,101 79,162l355 341c-36,-38 -65,-81 -102,-125 -38,-46 -71,-83 -109,-127z"/>
  <path class="fil0" d="M15653 12703c66,3 174,18 227,-9 23,-11 132,-88 146,-104 -91,6 -298,53 -373,113z"/>
  <path class="fil0" d="M16236 12269l-139 -8c-10,54 -30,110 -22,162l90 -1 71 -153z"/>
  <path class="fil0" d="M16193 11857c39,37 89,70 138,97 4,-7 4,-2 12,-26l10 -77 -105 -93 -55 99z"/>
  <path class="fil0" d="M16221 11330c-18,-18 -25,-18 -40,-36 4,30 30,109 45,134l69 81c17,15 3,5 26,18 -14,-92 -15,-112 -100,-197z"/>
  <path class="fil0" d="M16275 11719c31,31 32,69 90,99 8,-64 2,-150 -29,-198l-61 99z"/>
  <path class="fil0" d="M16972 12312c18,36 -43,10 91,52 155,49 75,28 99,7l-190 -59z"/>
  <polygon class="fil0" points="16147,12447 16075,12445 16106,12533 "/>
  <polygon class="fil0" points="16960,12352 16975,12298 16367,11586 16175,11898 16074,12428 16120,12570 "/>
  <polygon class="fil0" points="16331,11415 16150,11222 15893,11254 15653,11456 15470,11815 15397,12181 15458,12556 15605,12721 15885,12724 16126,12561 16334,12165 16407,11764 "/>
  <polygon class="fil0" points="16979,12294 17200,12367 17184,12416 16963,12343 "/>
  <polygon class="fil3" points="6628,881 6845,9164 6488,9174 6271,894 "/>
  <polygon class="fil2 str1" points="9446,784 9747,10005 18687,9889 17838,11667 17367,13010 17025,14914 17177,16008 17104,16249 17039,16301 17039,16287 13528,16408 12200,15889 12145,14427 8736,13589 7030,11968 6276,11711 6200,10815 5566,10753 5382,10066 4307,9999 3499,9755 2728,9384 1666,8399 1364,7912 1098,7408 818,5982 781,1084 9428,784 "/>
 </g>
</svg>
