<?xml version="1.0" encoding="UTF-8"?>
<!DOCTYPE svg PUBLIC "-//W3C//DTD SVG 1.1//EN" "http://www.w3.org/Graphics/SVG/1.1/DTD/svg11.dtd">
<!-- Creator: CorelDRAW X7 -->
<svg xmlns="http://www.w3.org/2000/svg" xml:space="preserve" width="81.0991mm" height="109.444mm" version="1.1" style="shape-rendering:geometricPrecision; text-rendering:geometricPrecision; image-rendering:optimizeQuality; fill-rule:evenodd; clip-rule:evenodd"
viewBox="0 0 18831 25413"
 xmlns:xlink="http://www.w3.org/1999/xlink">
 <defs>
  <style type="text/css">
   <![CDATA[
    .str7 {stroke:white;stroke-width:464.395}
    .str6 {stroke:white;stroke-width:1160.99}
    .str1 {stroke:#F28736;stroke-width:65.6886}
    .str3 {stroke:#FEFEFE;stroke-width:18.6222}
    .str2 {stroke:#48B754;stroke-width:32.8327}
    .str0 {stroke:#FEFEFE;stroke-width:98.5213}
    .str4 {stroke:black;stroke-width:46.5556;stroke-linecap:round;stroke-linejoin:round}
    .str5 {stroke:black;stroke-width:46.5556;stroke-linecap:round;stroke-linejoin:round}
    .fil1 {fill:none}
    .fil0 {fill:#BFEAF5}
    .fil3 {fill:black;fill-rule:nonzero}
    .fil2 {fill:#BFEAF5;fill-rule:nonzero}
   ]]>
  </style>
 </defs>
 <g id="Capa_x0020_1">
  <metadata id="CorelCorpID_0Corel-Layer"/>
  <g id="_2478819895744">
   <path class="fil0" d="M6890 8490l221 -141 120 -4c285,270 739,-221 850,-25l-544 162 -647 8zm225 6249c39,77 91,151 156,222 110,120 488,392 487,770 -1,160 -448,446 -471,546 -78,277 -61,269 -55,498 48,220 183,1051 154,1616l2 98 -409 -1093 12 -456 -56 -610 21 -976 159 -615zm504 6289l18 21 9 339 128 522 66 267 -58 326 4 83 -135 3 5 -108 -37 -1453z"/>
   <path class="fil0" d="M9674 22536l-1613 43 -242 -4303 -107 -1833 -110 -1966 186 -1327 8 -823 2 -1572c0,0 -34,-352 45,-694l1241 -918 146 67c-982,697 -959,1473 -1002,2617 -43,1147 19,1267 33,1795 14,529 100,3465 100,3465l25 2085 145 5c0,0 -56,-4194 -65,-4532 -9,-337 -113,-1753 -100,-2299 18,-732 -14,-1785 454,-2555 167,-275 407,-457 987,-737 167,-80 381,-146 602,-200l428 80 577 -254c83,-10 132,-15 132,-15 0,0 663,-38 909,-177 246,-139 792,-433 969,-966 177,-534 132,-753 97,-972 -35,-220 -164,-662 -255,-748 -108,-102 -31,-236 -10,-377l26 -162c0,0 2000,80 2265,117 266,37 678,85 1092,162 194,37 514,96 936,175l-76 255 -1969 10939 -5512 301 -344 5324z"/>
   <path class="fil0" d="M7989 21298l-170 -3022 -107 -1833 -110 -1966 186 -1327 8 -823 2 -1572c0,0 -34,-352 45,-694l1241 -918 146 67c-982,697 -959,1473 -1002,2617 -43,1147 19,1267 33,1795 14,529 100,3465 100,3465l25 2085 145 5c0,0 -56,-4194 -65,-4532 -9,-337 -113,-1753 -100,-2299 18,-732 -14,-1785 454,-2555 167,-275 407,-457 987,-737 167,-80 381,-146 602,-200l428 80 577 -254c83,-10 132,-15 132,-15 0,0 663,-38 909,-177 246,-139 792,-433 969,-966 177,-534 132,-753 97,-972 -35,-220 -164,-662 -255,-748 -48,-45 -59,-97 -55,-153 22,29 -31,-242 41,-330 100,-122 332,-76 365,-33 685,898 1537,3254 -2236,4239 -1758,459 -1424,1122 -1555,2975 -121,1704 -331,2360 259,4708l-67 4 -259 3999c-247,14 -451,16 -559,19 -403,10 -818,44 -1211,68z"/>
   <path class="fil0" d="M14654 2811l726 -1685c0,0 94,-271 -107,-249 -200,22 -436,112 -560,174 -124,62 -697,261 -938,326 -241,65 -629,117 -683,286 -54,169 -91,387 3,427 93,39 1559,721 1559,721z"/>
   <path class="fil0" d="M7261 18149c-3,-53 -11,-98 -28,-157 -33,-120 -128,-249 -70,-351 58,-103 64,-244 1,-374 -64,-130 15,-172 -48,-261 -63,-89 -179,-288 -134,-502 45,-213 112,-356 48,-485 -64,-130 -100,-331 -13,-485 87,-153 85,-224 31,-354 -12,-29 -21,-51 -30,-68l400 -1546 109 -1835 -118 -939 292 -627 623 -460c-33,51 -68,124 -129,226 -106,181 -160,376 -165,494 -4,119 3,379 -31,498 -34,120 -1,260 53,347 55,88 81,236 47,348 -35,112 -3,185 22,289 25,103 33,407 15,563 -18,156 53,347 4,445 -49,98 -153,375 -136,493 18,118 30,274 49,429 19,155 -4,430 -46,535 -41,105 -88,299 -116,352 -29,53 -32,201 28,237 60,35 -19,104 42,199 62,95 68,317 93,435 26,118 16,304 -26,394 -43,90 -94,91 -62,202 33,110 74,280 76,347 2,66 -18,156 1,318 19,163 -45,261 -57,365 -12,105 21,245 60,318 39,73 26,148 -8,245 -35,97 63,176 74,280 10,103 5,215 29,266 23,51 -46,224 -44,305 2,82 119,309 114,383 -6,74 -46,216 -36,320 10,104 22,274 17,371 -5,96 -12,133 20,192 31,58 26,155 6,244 -20,90 -27,83 6,230 9,42 125,547 362,695 262,164 646,244 1164,279l-76 1187 -2023 53 5 -108 -53 -2062 110 -975 -291 -864 -161 -431zm395 -9703c7,-7 14,-13 23,-16 60,-22 126,-196 207,-198 81,-2 69,-82 218,-167 98,-56 750,-268 1180,-405l-210 364 -1418 422zm1452 -5445c19,-154 97,-295 95,-386 -3,-111 65,-194 113,-296 48,-102 264,-330 384,-384 120,-53 300,-108 298,-169 -1,-60 85,-244 186,-237 101,7 98,-114 178,-156 79,-43 129,-84 177,-146 5,-6 10,-11 14,-15l916 -41 273 542c-88,35 -183,85 -234,172 -35,61 -51,87 -73,103l-371 -553 -1371 821 -585 745zm1431 -223c-38,67 -48,112 -130,174 -102,77 -42,128 -114,204 -72,76 -89,291 -79,365 9,74 13,237 111,272 97,34 159,122 227,194 69,73 173,70 241,113 68,42 135,70 217,75 81,6 122,131 167,167 46,36 215,-36 261,37 46,73 49,170 146,189 97,20 224,61 271,142 46,80 145,167 220,202 75,35 107,138 154,218 47,81 58,229 178,292 121,64 337,110 376,168 38,59 40,125 116,198 76,72 73,220 132,241 60,21 124,182 111,242 -14,60 69,95 115,160 46,66 132,204 90,309 -42,105 -32,201 21,259 54,58 10,371 -106,448 -117,77 -196,176 -285,201 -88,24 -153,100 -151,167 2,66 16,44 -87,84 -84,32 -189,61 -264,108l319 -477 -70 -592 -370 -594 -873 -1085 -1053 -884 -481 -187 -88 -191 91 -609 140 -68 272 -430 175 -112zm-936 6085c-28,21 -63,48 -113,85 -146,108 -355,321 -429,323 -74,2 -205,94 -322,164 -79,47 -164,97 -236,137l929 -686 171 -23z"/>
   <polygon class="fil0" points="6917,7333 7671,7313 7538,8087 6941,8258 "/>
   <path class="fil0" d="M9964 3382l166 522 1294 865 440 444 927 1109 85 619 -108 355 28 234 -513 767 -452 199c388,-51 1195,-375 1423,-942 107,-265 146,-349 163,-547 30,-353 -89,-736 -294,-1112 -319,-585 -414,-661 -414,-661l-127 -26c-463,-463 -936,-922 -1399,-1386 -366,-360 -310,-975 -73,-1408l-746 476 -272 430 -128 62zm-840 5731l46 126c0,0 320,-246 851,-431l-589 78 -308 227z"/>
   <polyline class="fil1 str0" points="13456,10232 12772,8926 15843,6977 16512,8591 12722,10654 "/>
   <polyline class="fil1 str0" points="14320,9784 13597,8372 14580,6688 15527,6134 "/>
   <line class="fil1 str0" x1="14710" y1="6628" x2="15858" y2= "8928" />
   <polygon class="fil0" points="9755,21281 7625,21281 7656,22481 7548,24722 9527,24808 "/>
  </g>
  <path class="fil0" d="M15933 5298c9,8 825,-784 913,-750 335,132 655,256 966,375l-189 632 -1321 -241c-228,-11 -370,-18 -369,-16z"/>
  <path class="fil0" d="M11118 2703l1450 389c109,-314 -449,-1182 -800,-1135 -90,12 -183,59 -270,126l40 59 -246 156c-95,131 -162,278 -174,405z"/>
  <path class="fil0" d="M11070 2788c0,0 -77,278 -55,453 21,175 193,355 447,474 193,90 1141,396 1273,0 24,-71 59,-410 -139,-524 -509,-134 -1018,-269 -1526,-403z"/>
  <path class="fil0" d="M13106 2277c-72,-32 186,482 282,767l1007 418 204 -507 -1493 -678z"/>
  <path class="fil0" d="M13163 3101c0,0 269,412 322,486 52,74 121,114 322,134 202,20 292,-33 400,-86 107,-53 166,-63 13,-126 -152,-63 -736,-291 -787,-314 -51,-24 -270,-94 -270,-94z"/>
  <path class="fil0" d="M11139 3626c359,527 978,871 1396,1409 2,-306 82,-783 127,-1080 -662,129 -1085,-23 -1523,-329z"/>
  <path class="fil0" d="M15084 5216c-685,-38 -1836,-96 -2178,-115 -107,-6 -125,-4 -159,-15 -74,-27 -57,-88 -44,-219 13,-139 37,-453 49,-615 9,-112 21,-182 111,-266 151,-143 404,-181 543,-144 84,23 102,-21 102,-21 368,639 917,1045 1576,1395z"/>
  <path class="fil0" d="M13589 3773c0,0 284,557 635,824 350,268 640,461 860,564 221,103 421,89 522,87 100,-3 200,-14 200,-14 309,-310 563,-519 885,-752l-2276 -878c0,0 -130,138 -271,183 -141,46 -317,50 -426,28 -110,-22 -129,-42 -129,-42z"/>
  <polygon class="fil0" points="14489,3519 14693,3002 17119,4127 16775,4395 "/>
  <path class="fil0" d="M14773 2875l2442 1158c0,0 186,-574 117,-1267 -14,-150 -32,-280 -53,-397l-260 -218 -1394 -1247 -37 -12c-75,103 -136,245 -211,435 -149,380 -604,1548 -604,1548z"/>
  <polygon class="fil0" points="16923,4455 17235,4204 17907,4506 17880,4695 17846,4808 "/>
  <polygon class="fil0" points="8019,6763 8407,6753 8380,7191 7918,7203 "/>
  <polygon class="fil0" points="7608,6766 7867,6759 7758,7199 7619,7203 "/>
  <polygon class="fil0" points="7880,7308 8484,7292 8556,6192 8905,6183 9147,7154 8973,7159 8865,7517 7754,8014 "/>
  <polygon class="fil0" points="8176,4977 8428,4970 8708,5400 8187,5414 "/>
  <polygon class="fil0" points="8416,6479 8404,6641 8244,6645 8239,6484 "/>
  <polygon class="fil0" points="8404,5814 8540,5810 8542,5898 8407,5902 "/>
  <path class="fil0" d="M8733 5638l82 193 -221 6 -2 -68 141 -131zm-41 -11l-141 132 -164 4 -148 -124 453 -12zm-341 318l-142 132 -11 -425 148 124 5 169zm507 127l37 -33 -1 -65 -62 -109 -237 6 2 80 -205 5 -141 132 607 -16z"/>
  <path class="fil0" d="M8660 3569c-29,-312 -66,-543 -69,-845 -4,-425 37,-352 228,-538 97,-96 680,-541 1230,-951l1420 -64 128 255 -341 295 -192 -286 -1371 821 -1033 1313zm563 4196l-420 147c278,-243 477,-450 595,-682l21 196 -196 339z"/>
  <path class="fil0" d="M11894 1860c433,201 711,633 795,1123 45,141 165,143 231,116 66,-27 83,-44 83,-44l-894 -1348 -215 153z"/>
  <path class="fil0" d="M12239 1614l846 1372c0,0 107,-70 105,-137 -103,-345 -386,-692 -279,-1173 22,-101 -100,-190 -201,-187 -106,2 -164,-43 -185,-79l-286 204z"/>
  <path class="fil0" d="M13053 3149c0,0 -13,78 -265,80 11,393 117,498 540,449 92,-11 119,52 41,-55 -78,-107 -316,-474 -316,-474z"/>
  <path class="fil0" d="M12918 5260l168 355 100 -371c0,0 -276,16 -268,16z"/>
  <path class="fil0" d="M10149 3640c0,0 70,-213 283,-159 212,55 275,144 461,335 186,192 125,148 371,308 245,159 705,393 527,503 -178,111 -357,176 -357,176 0,0 -1183,-743 -1234,-953l-51 -210z"/>
  <path class="fil0" d="M9372 2533c0,0 -261,31 -301,-123 -40,-154 -124,-199 121,-372 246,-173 517,-276 597,-421 79,-145 187,-124 280,-198 94,-74 92,-145 236,-113 143,32 229,101 231,196 2,53 -226,298 -429,506l-414 248 -150 191 -171 86z"/>
  <path class="fil0" d="M10331 3704l-145 142c0,0 289,213 451,325 162,113 300,140 300,140l110 -136 -23 -7c-29,-42 -52,-38 -116,-42 -65,-4 -39,14 -106,-29 -68,-43 -172,-40 -241,-112 -68,-73 -150,-167 -227,-195 -77,-27 -14,1 -27,-63l24 -23z"/>
  <path class="fil0" d="M9216 2525c-64,-14 -127,-46 -145,-115 -40,-154 -124,-199 121,-372 246,-173 517,-276 597,-421 79,-145 187,-124 280,-198 94,-74 92,-145 236,-113 41,9 78,21 109,36 -16,11 -34,21 -52,31 -80,42 -77,163 -178,156 -101,-7 -187,177 -186,237 2,61 -178,116 -298,169 -120,54 -336,282 -384,384 -34,73 -79,136 -100,206z"/>
  <path class="fil2" d="M7685 16007l-2 -52 -133 3 -1 -33c0,-2 0,-3 0,-6l132 -61 -2 -59 -146 70c-17,-33 -51,-57 -106,-55l-3 0c-36,1 -64,12 -83,29 -20,20 -31,49 -30,84l3 89 371 -9zm-186 -48l-134 4 -1 -33c-1,-40 20,-63 65,-64 40,-1 68,18 69,63l1 30zm179 -201l-1 -52 -371 10 1 51 371 -9zm0 -221c-2,-70 -73,-116 -189,-113l-11 0c-116,3 -184,53 -182,123 2,71 72,117 189,114l10 0c117,-3 185,-53 183,-124zm-53 2c1,37 -45,67 -133,69l-7 0c-89,3 -136,-24 -137,-62 0,-37 45,-67 134,-69l7 0c88,-3 135,24 136,62zm42 -380c-1,-34 -16,-62 -33,-85l-179 4 3 102 50 -1 -1 -53 96 -3c6,8 11,20 11,34 1,45 -41,82 -132,85l-7 0c-82,2 -133,-31 -134,-77 0,-24 12,-41 25,-53l-48 -27c-22,25 -32,51 -31,82 2,77 75,131 190,128l7 -1c121,-3 185,-60 183,-135zm-5 -239c-2,-62 -47,-103 -133,-101l-247 7 2 51 250 -7c49,-1 74,19 75,50 0,32 -24,53 -73,54l-250 7 2 52 247 -7c86,-2 128,-45 127,-106z"/>
  <path class="fil2" d="M7653 14789l-1 -51 -86 -19 -3 -98 85 -24 -2 -53 -370 106 2 53 375 86zm-252 -1156l-13 52 115 -3c49,-1 74,18 74,50 1,32 -23,52 -72,54l-144 3 -14 53 157 -4c86,-3 128,-46 126,-107 -1,-62 -46,-103 -132,-100l-97 2zm-74 286l-5 18c4,-5 8,-9 13,-13l-8 -5zm-16 64l-20 75c33,31 86,50 155,48l7 0c121,-3 185,-60 183,-135 -1,-35 -16,-63 -33,-86l-179 5 3 102 50 -2 -1 -53 96 -3c6,8 11,21 11,35 1,45 -41,82 -132,84l-7 0c-79,2 -128,-28 -133,-70zm-43 166l-3 10 4 160 371 -10 -4 -171 -53 1 3 120 -108 3 -2 -105 -53 1 3 105 -105 3 -3 -118 -50 1zm246 559l-150 -33 148 -40 2 73zm131 -200l-4 -160 -53 1 3 108 -318 8 1 52 371 -9z"/>
  <path class="fil2" d="M7622 13603l-1 -51 -86 -19 -3 -98 85 -23 -2 -54 -188 54 -3 52 57 -15 2 73 -61 -13 -3 48 203 46zm-134 -1213l-3 51c40,2 59,21 60,49 1,31 -21,51 -66,54l-3 52c83,-4 124,-46 122,-107 -1,-56 -38,-95 -110,-99zm-15 261l-4 52 129 -3 -1 -52 -124 3zm-9 152l-4 52 142 -4 -1 -52 -137 4zm-15 239l-3 54c108,-8 165,-57 164,-125 -1,-31 -16,-57 -41,-79l-43 29c17,15 28,30 29,50 1,33 -34,64 -106,71zm-9 159l-4 72 28 -12 149 -4 -2 -52 -149 4 -22 -8z"/>
  <polygon class="fil0" points="11728,5564 11688,5488 11674,5496 "/>
  <path class="fil0" d="M8190 2786l25 0c37,-1 69,28 70,66l7 304c1,37 -28,68 -65,69l-26 1c-37,1 -68,-29 -69,-66l-8 -304c-1,-37 29,-69 66,-70z"/>
  <path class="fil0" d="M8209 3320l25 0c37,-1 68,28 69,65l8 304c1,38 -28,69 -66,70l-25 0c-37,1 -68,-28 -69,-65l-8 -304c-1,-38 28,-69 66,-70z"/>
  <path class="fil0" d="M8218 3873l26 -1c37,-1 68,29 69,66l8 304c1,37 -29,69 -66,70l-25 0c-37,1 -68,-28 -69,-66l-8 -304c-1,-37 28,-68 65,-69z"/>
  <path class="fil0" d="M8228 4426l25 -1c38,-1 69,29 70,66l8 304c1,37 -29,68 -66,69l-25 1c-38,1 -69,-29 -70,-66l-8 -304c-1,-37 29,-68 66,-69z"/>
  <polygon class="fil0" points="7809,2790 7835,2789 7846,3227 7821,3228 "/>
  <polygon class="fil0" points="7822,3338 7848,3337 7859,3774 7834,3775 "/>
  <polygon class="fil0" points="7837,3888 7862,3887 7873,4322 7848,4323 "/>
  <polygon class="fil0" points="7851,4437 7876,4437 7888,4873 7863,4874 "/>
  <path class="fil0" d="M11249 1181l330 208 -110 -218 -220 10zm829 548c245,283 934,1340 1282,1972 391,707 1125,1258 1658,1535 305,159 1540,380 2540,540l68 -229 -1877 -324c0,0 -771,-139 -1149,-425 -378,-287 -900,-847 -1153,-1303 -208,-377 -805,-1458 -1150,-1923l-219 157z"/>
  <path class="fil0" d="M10674 2692c75,71 188,239 85,212 -83,77 -289,432 -237,606 51,173 -308,45 -316,-17 -7,-61 -4,-173 31,-254 35,-81 100,-175 105,-231 4,-56 84,-89 126,-133 16,-16 35,-51 56,-87l150 -96z"/>
  <line class="fil1 str0" x1="9993" y1="17605" x2="8381" y2= "16917" />
  <polyline class="fil1 str0" points="16003,14284 14981,14237 11457,8661 "/>
  <line class="fil1 str0" x1="16031" y1="7398" x2="12118" y2= "9700" />
  <line class="fil1 str0" x1="16173" y1="7832" x2="12304" y2= "10038" />
  <line class="fil1 str0" x1="16326" y1="8265" x2="12491" y2= "10388" />
  <line class="fil1 str0" x1="14142" y1="7518" x2="15044" y2= "9446" />
  <line class="fil1 str0" x1="14142" y1="7495" x2="15730" y2= "6643" />
  <polyline class="fil1 str0" points="14431,6978 13906,6626 13816,5895 14762,5894 "/>
  <polyline class="fil1 str0" points="14759,5314 14797,6049 14670,6424 "/>
  <line class="fil1 str0" x1="15457" y1="6783" x2="15478" y2= "7023" />
  <polyline class="fil1 str0" points="15161,5327 15502,6145 15721,6653 15837,6979 "/>
  <line class="fil1 str0" x1="13499" y1="6423" x2="13852" y2= "6361" />
  <line class="fil1 str0" x1="8820" y1="12459" x2="9036" y2= "16932" />
  <line class="fil1 str0" x1="8456" y1="16732" x2="9592" y2= "16674" />
  <line class="fil1 str0" x1="8484" y1="16329" x2="9579" y2= "16274" />
  <line class="fil1 str0" x1="8479" y1="15975" x2="9573" y2= "15920" />
  <line class="fil1 str0" x1="8432" y1="15572" x2="9526" y2= "15518" />
  <line class="fil1 str0" x1="8445" y1="15094" x2="9539" y2= "15039" />
  <line class="fil1 str0" x1="8438" y1="14668" x2="9533" y2= "14614" />
  <line class="fil1 str0" x1="8420" y1="14230" x2="9515" y2= "14176" />
  <line class="fil1 str0" x1="8394" y1="13741" x2="9488" y2= "13686" />
  <line class="fil1 str0" x1="8374" y1="13353" x2="9468" y2= "13298" />
  <line class="fil1 str0" x1="8371" y1="12880" x2="9482" y2= "12824" />
  <line class="fil1 str0" x1="8365" y1="12491" x2="9476" y2= "12435" />
  <line class="fil1 str0" x1="8365" y1="11990" x2="9460" y2= "11936" />
  <line class="fil1 str0" x1="8386" y1="11432" x2="9480" y2= "11377" />
  <line class="fil1 str0" x1="8366" y1="11684" x2="9461" y2= "11630" />
  <path class="fil2" d="M13103 11390c10,15 23,24 40,29l9 -24c-12,-3 -20,-8 -27,-18 -11,-17 -3,-44 32,-67l1 0c34,-22 62,-19 75,0 5,9 6,19 4,29l27 3c2,-15 0,-30 -10,-46 -21,-33 -64,-43 -111,-12l-3 2c-48,30 -59,70 -37,104zm32 47l16 25 40 -12 30 48 -27 31 16 26 118 -140 -16 -25 -177 47zm80 6l70 -19 -47 55 -23 -36zm6 129l49 77 21 -13 -33 -52 126 -80 -16 -25 -147 93zm61 96l49 76 21 -13 -33 -52 126 -80 -16 -24 -147 93zm61 95l52 83 21 -14 -37 -57 43 -27 32 50 21 -13 -32 -51 41 -26 36 57 21 -14 -52 -81 -146 93zm94 148l16 25 96 -62 -61 117 14 22 146 -93 -15 -25 -94 60 59 -113 -14 -24 -147 93zm179 97c10,15 29,18 48,6l2 -1c18,-12 24,-31 14,-46 -9,-15 -29,-18 -47,-6l-2 2c-19,11 -24,30 -15,45zm-37 -11l32 49 10 -6 -32 -50 -10 7zm49 4c-5,-8 1,-17 12,-25l2 -1c11,-7 22,-8 26,0 5,7 0,17 -12,24l-1 1c-12,7 -23,8 -27,1zm-40 147l54 86 22 -14 -36 -55 60 7c33,4 48,3 64,-7l1 -1c24,-15 26,-43 11,-67 -11,-17 -29,-28 -50,-31l-6 25c16,2 26,7 32,17 8,11 6,25 -5,32 -11,7 -23,8 -49,5l-80 -8 -18 11z"/>
  <path class="fil1 str1" d="M10701 1205l362 230m1 0l1083 686 86 238"/>
  <path class="fil1 str1" d="M10910 1196l828 510m200 123l324 199 86 238"/>
  <path class="fil1 str2" d="M13458 3764c-14,1 -32,0 -53,-1"/>
  <path class="fil1 str2" d="M8447 16969c2,17 5,35 8,52"/>
  <path class="fil0" d="M12139 6073c-32,-60 -68,-126 -108,-193 -126,-207 -201,-406 -343,-452 -141,-46 -33,-129 -135,-217 -103,-87 -114,-137 -136,-206 -22,-70 -113,-97 -204,-135 -91,-38 -164,-166 -287,-283 -124,-117 -184,-125 -275,-173 -92,-48 -183,-105 -245,-164 -61,-58 -202,-74 -264,-153 -62,-78 -164,-136 -244,-154 -9,-1 -18,-3 -28,-5l-9 59 88 191 481 187 1053 884 656 814z"/>
  <polygon class="fil0" points="11727,5563 11688,5487 11674,5496 "/>
  <polyline class="fil1 str3" points="11727,5563 11688,5487 11674,5496 "/>
  <polygon class="fil0" points="2704,8430 1252,8468 1226,7482 2678,7444 "/>
  <polygon class="fil0" points="802,7493 1126,7484 1152,8470 939,8476 923,7839 814,7841 "/>
  <polygon class="fil0" points="6356,5700 6773,5689 6785,6126 6368,6137 "/>
  <polygon class="fil0" points="7579,5668 7996,5657 8008,6094 7590,6105 "/>
  <polygon class="fil0" points="6873,5687 7479,5671 7491,6108 6885,6124 "/>
  <polygon class="fil0" points="5839,5714 6256,5703 6268,6140 5850,6151 "/>
  <polygon class="fil0" points="5321,5727 5739,5716 5750,6154 5333,6164 "/>
  <polygon class="fil0" points="4804,5741 5222,5730 5233,6167 4816,6178 "/>
  <polygon class="fil0" points="4287,5754 4704,5743 4716,6181 4298,6192 "/>
  <polygon class="fil0" points="3770,5768 4187,5757 4198,6194 3781,6205 "/>
  <polygon class="fil0" points="3784,6317 4201,6306 4213,6743 3795,6754 "/>
  <polygon class="fil0" points="4301,6303 4719,6292 4730,6729 4313,6740 "/>
  <polygon class="fil0" points="4819,6290 5236,6279 5247,6716 4830,6727 "/>
  <polygon class="fil0" points="5336,6276 5753,6265 5765,6702 5347,6713 "/>
  <polygon class="fil0" points="5853,6262 6271,6251 6282,6689 5865,6700 "/>
  <polygon class="fil0" points="6370,6249 6788,6238 6799,6675 6382,6686 "/>
  <polygon class="fil0" points="6888,6235 7494,6219 7505,6657 6899,6672 "/>
  <polygon class="fil0" points="7593,6217 8011,6206 7902,6646 7605,6654 "/>
  <polygon class="fil0" points="8141,6211 8438,6203 8404,6641 8032,6651 "/>
  <polygon class="fil0" points="6902,6784 7508,6768 7519,7205 6914,7221 "/>
  <polygon class="fil0" points="6385,6798 6802,6787 6814,7224 6396,7235 "/>
  <polygon class="fil0" points="5868,6811 6285,6800 6296,7237 5879,7248 "/>
  <polygon class="fil0" points="5350,6825 5768,6814 5779,7251 5362,7262 "/>
  <polygon class="fil0" points="4833,6838 5250,6827 5262,7264 4844,7275 "/>
  <polygon class="fil0" points="4316,6852 4733,6841 4744,7278 4327,7289 "/>
  <polygon class="fil0" points="3798,6865 4216,6854 4227,7292 3810,7303 "/>
  <polygon class="fil0" points="3813,7414 4230,7403 4241,7840 3824,7851 "/>
  <polygon class="fil0" points="4330,7401 4747,7390 4759,7827 4341,7838 "/>
  <polygon class="fil0" points="4847,7387 5265,7376 5276,7813 4859,7824 "/>
  <polygon class="fil0" points="5365,7373 5782,7362 5793,7800 5376,7811 "/>
  <polygon class="fil0" points="5882,7360 6299,7349 6311,7786 5893,7797 "/>
  <polygon class="fil0" points="6399,7346 6817,7335 6828,7773 6411,7784 "/>
  <polygon class="fil0" points="6414,7895 6831,7884 6842,8315 6425,8326 "/>
  <polygon class="fil0" points="5896,7909 6314,7898 6325,8335 5908,8346 "/>
  <polygon class="fil0" points="5379,7922 5796,7911 5808,8348 5390,8359 "/>
  <polygon class="fil0" points="4862,7936 5279,7925 5291,8362 4873,8373 "/>
  <polygon class="fil0" points="4344,7949 4762,7938 4773,8375 4356,8386 "/>
  <polygon class="fil0" points="3827,7963 4244,7952 4256,8389 3838,8400 "/>
  <polygon class="fil0" points="3724,7854 2790,7878 2778,7441 3713,7417 "/>
  <polygon class="fil0" points="3739,8403 2804,8427 2792,7990 3727,7965 "/>
  <polygon class="fil0" points="3666,1800 4083,1789 4094,2226 3677,2237 "/>
  <polygon class="fil0" points="3148,1814 3566,1803 3577,2240 3160,2251 "/>
  <polygon class="fil0" points="2631,1827 3048,1816 3060,2254 2642,2265 "/>
  <polygon class="fil0" points="2114,1841 2531,1830 2543,2267 2125,2278 "/>
  <polygon class="fil0" points="1596,1854 2014,1844 2025,2281 1608,2292 "/>
  <polygon class="fil0" points="1079,1868 1496,1857 1508,2294 1090,2305 "/>
  <polygon class="fil0" points="1093,2417 1511,2406 1522,2843 1105,2854 "/>
  <polygon class="fil0" points="1611,2403 2028,2392 2040,2829 1622,2840 "/>
  <polygon class="fil0" points="2128,2390 2545,2379 2557,2816 2139,2827 "/>
  <polygon class="fil0" points="2645,2376 3063,2365 3074,2802 2657,2813 "/>
  <polygon class="fil0" points="3163,2363 3580,2352 3591,2789 3174,2800 "/>
  <polygon class="fil0" points="3680,2349 4097,2338 4109,2775 3691,2786 "/>
  <polygon class="fil0" points="745,5847 1083,5838 1094,6275 760,6284 "/>
  <polygon class="fil0" points="1700,5822 2118,5811 2129,6248 1712,6259 "/>
  <polygon class="fil0" points="2218,5809 2635,5798 2646,6235 2229,6246 "/>
  <polygon class="fil0" points="2735,5795 3152,5784 3164,6221 2746,6232 "/>
  <polygon class="fil0" points="3252,5781 3670,5771 3681,6208 3264,6219 "/>
  <polygon class="fil0" points="764,6396 1097,6387 1109,6824 779,6833 "/>
  <polygon class="fil0" points="1197,6384 1615,6373 1626,6811 1209,6822 "/>
  <polygon class="fil0" points="1715,6371 2132,6360 2144,6797 1726,6808 "/>
  <polygon class="fil0" points="2232,6357 2649,6346 2661,6783 2243,6794 "/>
  <polygon class="fil0" points="2749,6344 3167,6333 3178,6770 2761,6781 "/>
  <polygon class="fil0" points="3267,6330 3684,6319 3695,6756 3278,6767 "/>
  <polygon class="fil0" points="3281,6879 3698,6868 3710,7305 3292,7316 "/>
  <polygon class="fil0" points="2764,6892 3181,6881 3193,7319 2775,7330 "/>
  <polygon class="fil0" points="2675,7332 1740,7357 1729,6920 2664,6895 "/>
  <polygon class="fil0" points="1212,6933 1629,6922 1641,7359 1223,7370 "/>
  <polygon class="fil0" points="783,6944 1112,6936 1123,7373 798,7381 "/>
  <polygon class="fil0" points="7685,1341 7691,1583 7274,1594 7268,1360 "/>
  <polygon class="fil0" points="8197,1318 8204,1570 7786,1581 7780,1337 "/>
  <polygon class="fil0" points="7277,1706 7711,1694 7722,2132 7288,2143 "/>
  <path class="fil0" d="M7806 1692l417 -11 12 437c-139,4 -279,7 -418,11l-11 -437z"/>
  <path class="fil0" d="M6764 1719l418 -11 11 437c-139,4 -278,8 -417,11l-12 -437z"/>
  <path class="fil0" d="M6252 1732c139,-3 278,-7 418,-10l11 437 -417 11 -12 -438z"/>
  <polygon class="fil0" points="5735,1746 6152,1735 6164,2172 5746,2183 "/>
  <polygon class="fil0" points="5218,1760 5635,1749 5646,2186 5229,2197 "/>
  <polygon class="fil0" points="4700,1773 5118,1762 5129,2199 4712,2210 "/>
  <polygon class="fil0" points="4183,1787 4600,1776 4612,2213 4194,2224 "/>
  <polygon class="fil0" points="4197,2335 4615,2324 4626,2762 4209,2773 "/>
  <polygon class="fil0" points="4715,2322 5132,2311 5143,2748 4726,2759 "/>
  <polygon class="fil0" points="5232,2308 5649,2297 5661,2735 5243,2745 "/>
  <polygon class="fil0" points="5749,2295 6167,2284 6178,2721 5761,2732 "/>
  <polygon class="fil0" points="6267,2281 6684,2270 6695,2707 6278,2718 "/>
  <polygon class="fil0" points="6779,2268 7337,2253 7349,2690 6790,2705 "/>
  <polygon class="fil0" points="7437,2251 7822,2240 7833,2678 7449,2688 "/>
  <polygon class="fil0" points="7927,2238 8241,2229 8246,2420 8039,2672 7939,2675 "/>
  <polygon class="fil0" points="7452,2799 7869,2788 7881,3226 7463,3236 "/>
  <path class="fil0" d="M7466 3348l418 -11 11 437c-139,4 -278,7 -417,11l-12 -437z"/>
  <path class="fil0" d="M7480 3897l418 -11 11 437c-139,4 -278,7 -417,11l-12 -437z"/>
  <path class="fil0" d="M7495 4445c139,-3 278,-7 417,-10l12 437 -418 11 -11 -438z"/>
  <polygon class="fil0" points="7509,4994 7975,4982 7986,5419 7521,5431 "/>
  <polygon class="fil0" points="6836,4463 7395,4448 7406,4885 6848,4900 "/>
  <polygon class="fil0" points="6851,5011 7409,4997 7421,5434 6862,5449 "/>
  <polygon class="fil0" points="6822,3914 7381,3899 7392,4336 6833,4351 "/>
  <polygon class="fil0" points="6808,3365 7366,3351 7378,3788 6819,3802 "/>
  <polygon class="fil0" points="6793,2817 7352,2802 7363,3239 6805,3254 "/>
  <polygon class="fil0" points="6281,2830 6698,2819 6710,3256 6292,3267 "/>
  <path class="fil0" d="M6295 3379l418 -11 11 437c-139,4 -278,7 -417,11l-12 -437z"/>
  <path class="fil0" d="M6310 3927l417 -11 12 438c-140,3 -279,7 -418,11l-11 -438z"/>
  <path class="fil0" d="M6324 4476c139,-4 278,-7 417,-11l12 437 -417 11 -12 -437z"/>
  <polygon class="fil0" points="6338,5025 6756,5014 6767,5451 6350,5462 "/>
  <polygon class="fil0" points="5807,4490 6224,4479 6236,4916 5818,4927 "/>
  <polygon class="fil0" points="5821,5038 6238,5027 6250,5465 5833,5476 "/>
  <polygon class="fil0" points="5792,3941 6210,3930 6221,4367 5804,4378 "/>
  <polygon class="fil0" points="5778,3392 6195,3381 6207,3818 5789,3829 "/>
  <polygon class="fil0" points="5764,2844 6181,2833 6192,3270 5775,3281 "/>
  <polygon class="fil0" points="5246,2857 5664,2846 5675,3283 5258,3294 "/>
  <polygon class="fil0" points="5261,3406 5678,3395 5690,3832 5272,3843 "/>
  <polygon class="fil0" points="5275,3955 5692,3944 5704,4381 5287,4392 "/>
  <polygon class="fil0" points="5289,4503 5707,4492 5718,4929 5301,4940 "/>
  <polygon class="fil0" points="5304,5052 5721,5041 5733,5478 5315,5489 "/>
  <polygon class="fil0" points="4786,5066 5204,5055 5215,5492 4798,5503 "/>
  <polygon class="fil0" points="4772,4517 5189,4506 5201,4943 4784,4954 "/>
  <polygon class="fil0" points="4758,3968 5175,3957 5187,4394 4769,4405 "/>
  <polygon class="fil0" points="4743,3419 5161,3408 5172,3846 4755,3856 "/>
  <polygon class="fil0" points="4729,2871 5146,2860 5158,3297 4740,3308 "/>
  <polygon class="fil0" points="4212,2884 4629,2873 4641,3310 4223,3321 "/>
  <polygon class="fil0" points="4226,3433 4643,3422 4655,3859 4237,3870 "/>
  <polygon class="fil0" points="4240,3982 4658,3971 4669,4408 4252,4419 "/>
  <polygon class="fil0" points="4255,4530 4672,4519 4684,4957 4266,4967 "/>
  <polygon class="fil0" points="4269,5079 4687,5068 4698,5505 4281,5516 "/>
  <polygon class="fil0" points="3752,5093 4169,5082 4181,5519 3763,5530 "/>
  <polygon class="fil0" points="3737,4544 4155,4533 4166,4970 3749,4981 "/>
  <polygon class="fil0" points="3723,3995 4140,3984 4152,4421 3735,4432 "/>
  <polygon class="fil0" points="3709,3446 4126,3435 4138,3873 3720,3884 "/>
  <polygon class="fil0" points="3694,2898 4112,2887 4123,3324 3706,3335 "/>
  <polygon class="fil0" points="3177,2911 3594,2900 3606,3338 3188,3348 "/>
  <polygon class="fil0" points="3191,3460 3609,3449 3620,3886 3203,3897 "/>
  <polygon class="fil0" points="3206,4009 3623,3998 3635,4435 3217,4446 "/>
  <polygon class="fil0" points="3220,4557 3638,4546 3649,4984 3232,4995 "/>
  <polygon class="fil0" points="3234,5106 3652,5095 3663,5532 3246,5543 "/>
  <polygon class="fil0" points="2717,5120 3135,5109 3146,5546 2729,5557 "/>
  <polygon class="fil0" points="2703,4571 3120,4560 3132,4997 2714,5008 "/>
  <polygon class="fil0" points="2688,4022 3106,4011 3117,4448 2700,4459 "/>
  <polygon class="fil0" points="2674,3474 3091,3463 3103,3900 2686,3911 "/>
  <polygon class="fil0" points="2660,2925 3077,2914 3089,3351 2671,3362 "/>
  <polygon class="fil0" points="2142,2938 2560,2927 2571,3365 2154,3376 "/>
  <polygon class="fil0" points="2157,3487 2574,3476 2586,3913 2168,3924 "/>
  <polygon class="fil0" points="2171,4036 2589,4025 2600,4462 2183,4473 "/>
  <polygon class="fil0" points="2186,4585 2603,4574 2614,5011 2197,5022 "/>
  <polygon class="fil0" points="2200,5133 2617,5122 2629,5559 2211,5570 "/>
  <polygon class="fil0" points="1683,5147 2100,5136 2111,5573 1694,5584 "/>
  <polygon class="fil0" points="1165,5160 1583,5149 1594,5587 1177,5598 "/>
  <polygon class="fil0" points="1151,4612 1568,4601 1580,5038 1162,5049 "/>
  <polygon class="fil0" points="1668,4598 2086,4587 2097,5024 1680,5035 "/>
  <polygon class="fil0" points="1137,4063 1554,4052 1565,4489 1148,4500 "/>
  <polygon class="fil0" points="1654,4049 2071,4038 2083,4476 1665,4486 "/>
  <polygon class="fil0" points="1122,3514 1540,3503 1551,3940 1134,3951 "/>
  <polygon class="fil0" points="1639,3501 2057,3490 2068,3927 1651,3938 "/>
  <polygon class="fil0" points="1108,2965 1525,2955 1537,3392 1119,3403 "/>
  <polygon class="fil0" points="1625,2952 2043,2941 2054,3378 1637,3389 "/>
  <polygon class="fil0" points="722,5172 1065,5163 1077,5600 737,5609 "/>
  <polygon class="fil0" points="8709,1295 8716,1556 8299,1567 8292,1314 "/>
  <polygon class="fil0" points="9221,1272 9228,1543 8811,1554 8804,1291 "/>
  <polygon class="fil0" points="8814,1665 9201,1655 9201,1668 8821,1939 "/>
  <path class="fil0" d="M8318 1678l401 -10 8 325c-46,53 -93,99 -140,116 -91,2 -166,4 -257,7l-12 -438z"/>
  <path class="fil0" d="M9717 1250l-331 283 -1 0c-3,-100 -6,-182 -8,-268l340 -15z"/>
  <polygon class="fil0" points="9948,1239 9413,1678 8968,1923 8778,1982 9649,1253 "/>
  <polygon class="fil0" points="1183,5836 1600,5825 1612,6262 1194,6273 "/>
  <path class="fil0" d="M17300 4081l626 292 243 -1709 -590 -43 -135 -113c77,488 36,1016 -144,1573z"/>
  <path class="fil0" d="M8649 14165c156,-4 286,119 290,275 4,156 -119,285 -275,289 -156,4 -286,-119 -290,-274 -4,-156 119,-286 275,-290z"/>
  <path class="fil0" d="M8442 14378l88 53c0,0 70,-39 179,-77 109,-39 164,33 154,51 -10,18 -93,34 -93,34l98 29c0,0 31,44 -67,59 -99,15 -268,-35 -269,-34l-86 54 28 -86 -32 -83z"/>
  <path class="fil2" d="M9100 14405c20,0 36,-9 50,-25l-18 -28c-9,11 -19,18 -32,19 -23,0 -45,-27 -46,-84l0 -2c-2,-54 17,-85 42,-86 12,0 22,6 31,15l18 -29c-13,-13 -28,-21 -49,-20 -45,1 -78,43 -76,120l0 4c2,77 34,118 80,116zm76 -4l101 -3 -1 -34 -68 2 -5 -201 -33 0 6 236z"/>
  <path class="fil2" d="M9361 14399c40,-1 65,-29 64,-84l-4 -156 -33 1 4 158c1,32 -11,47 -31,48 -20,0 -34,-15 -34,-46l-5 -159 -33 1 5 157c1,54 28,81 67,80zm101 -6l55 -1c43,-1 72,-25 71,-66l0 -2c-1,-31 -18,-46 -40,-54 16,-9 31,-24 31,-54l0 -2c-1,-16 -6,-29 -16,-39 -12,-13 -31,-19 -53,-19l-54 2 6 235zm84 -171c1,22 -13,35 -35,35l-21 1 -1 -68 22 -1c22,0 35,11 35,32l0 1zm9 101l0 0c1,22 -14,35 -37,36l-25 0 -2 -70 24 0c25,-1 39,12 40,34zm119 65l49 -2c54,-1 87,-45 85,-117l0 -5c-2,-72 -37,-114 -91,-113l-49 1 6 236zm43 -204c33,-1 56,26 57,82l0 3c2,56 -20,84 -52,84l-16 1 -4 -170 15 0zm124 199l109 -3 -1 -33 -76 2 -2 -68 67 -2 -1 -33 -67 1 -2 -66 75 -2 -1 -34 -107 3 6 235z"/>
  <path class="fil2" d="M9038 14718l33 -1 -3 -77 18 -1c42,-2 71,-30 70,-81l0 -1c-2,-50 -31,-77 -74,-76l-51 1 7 236zm30 -111l-3 -92 17 -1c26,0 40,16 40,45l0 0c1,28 -12,47 -38,47l-16 1zm117 107l109 -3 -1 -34 -76 2 -2 -68 67 -2 -1 -33 -67 2 -2 -67 75 -2 -1 -33 -107 2 6 236zm185 -2c35,-1 61,-29 60,-67l0 -1c0,-29 -14,-47 -48,-69 -31,-20 -37,-29 -38,-43l0 0c0,-16 11,-27 26,-28 15,0 28,9 37,20l20 -29c-17,-18 -38,-25 -56,-24 -37,1 -61,28 -60,65l0 1c1,30 17,48 53,70 27,17 33,27 33,40l0 0c1,17 -10,31 -28,31 -18,0 -32,-13 -43,-24l-20 29c21,22 43,29 64,29zm159 -5c20,0 37,-9 51,-25l-18 -28c-10,11 -20,18 -32,19 -24,0 -45,-27 -47,-84l0 -2c-1,-54 18,-85 43,-86 12,0 22,6 30,15l18 -29c-12,-13 -28,-21 -49,-20 -44,1 -77,43 -75,120l0 4c2,77 34,118 79,116zm63 -4l33 -1 12 -54 62 -2 15 54 34 -1 -68 -235 -33 1 -55 238zm52 -88l21 -95 25 94 -46 1zm127 83l49 -1c54,-1 87,-46 85,-117l0 -6c-2,-71 -37,-114 -91,-112l-49 1 6 235zm43 -203c32,-1 55,26 57,81l0 4c1,56 -20,83 -53,84l-15 1 -5 -170 16 0zm193 201c44,-2 74,-46 72,-120l0 -7c-2,-74 -34,-117 -79,-115 -44,1 -74,45 -72,119l0 7c2,74 34,117 79,116zm-1 -34c-24,1 -43,-28 -44,-84l0 -5c-2,-56 16,-86 39,-86 24,-1 43,28 44,84l0 5c2,56 -15,86 -39,86zm106 28l33 -1 -2 -85 21 0c1,0 2,0 4,-1l39 84 37 -1 -44 -93c21,-11 36,-32 35,-67l0 -2c-1,-22 -8,-40 -19,-52 -13,-13 -31,-20 -53,-19l-57 1 6 236zm30 -118l-2 -85 21 -1c25,-1 40,13 41,41 0,26 -12,43 -41,44l-19 1zm127 113l108 -2 0 -34 -77 2 -1 -68 66 -2 -1 -33 -66 1 -2 -66 75 -2 -1 -34 -107 3 6 235zm185 -2c35,-1 61,-29 60,-67l0 0c-1,-30 -14,-48 -48,-69 -32,-20 -38,-29 -38,-43l0 -1c0,-15 10,-27 26,-27 15,0 27,9 37,19l20 -28c-18,-19 -39,-25 -56,-25 -37,1 -61,29 -60,66l0 0c1,31 17,49 52,70 28,18 34,28 34,40l0 1c0,16 -11,30 -28,31 -18,0 -33,-13 -44,-24l-19 29c21,21 43,29 64,28z"/>
  <path class="fil0" d="M9483 2524l-502 -159c240,-373 646,-411 938,-244l-226 135 -210 268z"/>
  <path class="fil1 str4" d="M9483 2524l-502 -159c240,-373 646,-411 938,-244"/>
  <path class="fil0" d="M9484 2523l-216 -70c206,-423 477,-490 623,-315l-198 118 -209 267z"/>
  <path class="fil1 str5" d="M9484 2523l-216 -70c206,-423 477,-490 623,-315"/>
  <g>
   <path class="fil3" d="M9789 1998c4,-12 17,-19 29,-15 12,3 18,16 15,29l-44 -14zm-19 61l19 -61 44 14 -19 61 -44 -14zm44 14c-4,12 -17,19 -29,15 -12,-4 -19,-17 -15,-29l44 14z"/>
  </g>
  <path class="fil1 str6" d="M839 8569l6698 -87 1537 -458 345 -598 -167 -1531 -266 -396 -488 -582 137 -1316 1058 -1345 1371 -821 474 707 -1174 748 -272 430 -140 68 -91 609 88 191 481 187c1273,1069 3255,2532 1853,3922 -1857,818 -1289,382 -2851,589l-1731 1279c-58,522 -116,1044 -174,1566l-109 1835 -462 1788 -21 976 56 610 -12 456 443 1184 291 864 -110 975 53 2062 -108 2241 1979 86 491 -7596 5512 -301 1969 -10939 381 -1277 289 -2031 -590 -43 -560 -470 -1394 -1247 -1006 -309 -1243 207 -1539 1099 -368 -730 -10869 490 239 6908z"/>
  <path class="fil0 str7" d="M10294 4188c-312,-200 -978,3 -922,576 -134,940 1213,1083 373,3293 1165,865 2732,374 2447,-1033 -293,-1419 -617,-2142 -1898,-2836z"/>
 </g>
</svg>
